<svg xmlns="http://www.w3.org/2000/svg" width="85.491" height="71.938" viewBox="0 0 85.491 71.938"><defs><style>.a{fill:#fa7e3e;}</style></defs><path class="a" d="M72.243,23.537a15.383,15.383,0,0,0,.179-2.861A18.774,18.774,0,0,0,53.646,1.9,18.977,18.977,0,0,0,36.837,12.272a16.8,16.8,0,0,0-8.226-2.325,15.831,15.831,0,0,0-15.736,13.59,14.063,14.063,0,0,0,1.252,28.075,1.788,1.788,0,1,0,0-3.576,10.57,10.57,0,0,1-10.55-10.55,10.419,10.419,0,0,1,10.55-10.372h.179a1.792,1.792,0,0,0,1.788-1.788A12.323,12.323,0,0,1,36.3,16.384a1.824,1.824,0,0,0,1.609.358,1.891,1.891,0,0,0,1.252-1.073,15.173,15.173,0,0,1,29.505,5.007,12.021,12.021,0,0,1-.715,4.292,1.715,1.715,0,0,0,.358,1.609c.536.715,1.788.715,3.04.536a10.55,10.55,0,0,1,0,21.1,1.788,1.788,0,1,0,0,3.576A14.157,14.157,0,0,0,85.476,37.664,13.522,13.522,0,0,0,72.243,23.537Z" transform="translate(0 -1.9)"/><path class="a" d="M17.834,9.591a1.413,1.413,0,0,0-1.839.263l-5.518,7.357V1.314A1.241,1.241,0,0,0,9.163,0,1.241,1.241,0,0,0,7.849,1.314v15.9L2.331,9.854A1.413,1.413,0,0,0,.492,9.591,1.413,1.413,0,0,0,.229,11.43l7.883,10.51h0a1.232,1.232,0,0,0,1.971,0h0l7.883-10.51C18.491,10.773,18.491,9.985,17.834,9.591Z" transform="translate(23.704 46.555) rotate(-120)"/><path class="a" d="M17.834,9.591a1.413,1.413,0,0,0-1.839.263l-5.518,7.357V1.314A1.241,1.241,0,0,0,9.163,0,1.241,1.241,0,0,0,7.849,1.314v15.9L2.331,9.854A1.413,1.413,0,0,0,.492,9.591,1.413,1.413,0,0,0,.229,11.43l7.883,10.51h0a1.232,1.232,0,0,0,1.971,0h0l7.883-10.51C18.491,10.773,18.491,9.985,17.834,9.591Z" transform="translate(43.23 71.939) rotate(-120)"/><path class="a" d="M17.834,16.472a1.413,1.413,0,0,0-1.839.263l-5.518,7.357L9.755,1.314A1.241,1.241,0,0,0,8.441,0,1.241,1.241,0,0,0,7.127,1.314l.722,22.778L2.331,16.735a1.413,1.413,0,0,0-1.839-.263,1.413,1.413,0,0,0-.263,1.839l7.883,10.51h0a1.232,1.232,0,0,0,1.971,0h0l7.883-10.51C18.491,17.655,18.491,16.866,17.834,16.472Z" transform="translate(36.294 56.829) rotate(-120)"/></svg>