<svg xmlns="http://www.w3.org/2000/svg" width="71.93" height="79.62" viewBox="0 0 71.93 79.62"><defs><style>.a{fill:#fa7e3e;}</style></defs><g transform="translate(0 0)"><path class="a" d="M67.778,20.451a9.9,9.9,0,0,0-8.2-7.236A22.481,22.481,0,0,0,20.4,10.842,18.228,18.228,0,0,0,3.591,29.071,18.441,18.441,0,0,0,14.4,45.849v-3.6c0-.169.011-.326.022-.484a14.781,14.781,0,0,1-7.2-12.693A14.629,14.629,0,0,1,21.5,14.407a1.786,1.786,0,0,0,1.508-.89,18.863,18.863,0,0,1,33.681,2.126,1.821,1.821,0,0,0,1.632,1.1A6.268,6.268,0,0,1,64.4,22a1.811,1.811,0,0,0,1.069,1.373,10.662,10.662,0,0,1,6.414,9.778v.1a10.593,10.593,0,0,1-7.18,10.015v3.77A14.214,14.214,0,0,0,75.521,33.254v-.1A14.3,14.3,0,0,0,67.778,20.451Z" transform="translate(-3.591 -0.5)"/><g transform="translate(24.651 77.102)"><path class="a" d="M24.35,62.476a.944.944,0,0,0,0,1.889h5.393a2.545,2.545,0,0,1,0-1.889Z" transform="translate(-23.406 -62.476)"/></g><g transform="translate(40.651 77.102)"><path class="a" d="M41.95,62.476H36.272a2.579,2.579,0,0,1,.177.944,2.488,2.488,0,0,1-.182.944h5.684a.944.944,0,1,0,0-1.889Z" transform="translate(-36.267 -62.476)"/></g><g transform="translate(31.844 74.163)"><path class="a" d="M35.565,62.423H35.2a.311.311,0,0,1-.315-.315v-.422a1.574,1.574,0,1,0-3.147,0v.422a.311.311,0,0,1-.315.315h-.661a1.574,1.574,0,0,0,0,3.147h4.8a1.574,1.574,0,1,0,0-3.147Z" transform="translate(-29.188 -60.113)"/></g><g transform="translate(13.068 39.468)"><path class="a" d="M57.609,32.225H16.368a2.273,2.273,0,0,0-2.272,2.28V39.64a2.266,2.266,0,0,0,2.272,2.272h3.7v1.395H16.367a2.273,2.273,0,0,0-2.272,2.28v5.134a2.266,2.266,0,0,0,2.272,2.272h3.706v1.395H16.367a2.273,2.273,0,0,0-2.272,2.28V61.8a2.266,2.266,0,0,0,2.272,2.272H36.05v1.988a2.483,2.483,0,0,1,.944-.182,2.584,2.584,0,0,1,.944.177V64.074h19.67a2.273,2.273,0,0,0,2.28-2.272V56.668a2.281,2.281,0,0,0-2.28-2.28h-3.7V52.994h3.7a2.274,2.274,0,0,0,2.28-2.272V45.588a2.281,2.281,0,0,0-2.28-2.28h-3.7V41.913h3.7a2.273,2.273,0,0,0,2.28-2.272V34.507A2.281,2.281,0,0,0,57.609,32.225ZM18.2,38.61a1.541,1.541,0,1,1,0-3.083H40.286a1.541,1.541,0,1,1,0,3.083Zm0,11.081a1.541,1.541,0,1,1,0-3.083H40.286a1.541,1.541,0,1,1,0,3.083ZM40.84,60.773H18.754a1.541,1.541,0,1,1,0-3.083H40.841a1.541,1.541,0,1,1,0,3.083Zm6.825-.626a.66.66,0,0,1-.661.661H45.173a.655.655,0,0,1-.661-.661V58.316a.66.66,0,0,1,.661-.661H47a.666.666,0,0,1,.661.661Zm4.553,0a.66.66,0,0,1-.661.661H49.726a.655.655,0,0,1-.661-.661V58.316a.66.66,0,0,1,.661-.661h1.831a.666.666,0,0,1,.661.661Zm2.061-2.492h1.831a.666.666,0,0,1,.661.661v1.831a.66.66,0,0,1-.661.661H54.28a.655.655,0,0,1-.661-.661V58.316A.659.659,0,0,1,54.28,57.655Z" transform="translate(-14.095 -32.225)"/></g></g></svg>