<svg xmlns="http://www.w3.org/2000/svg" width="80.075" height="80.075" viewBox="0 0 80.075 80.075"><defs><style>.a{fill:#fa7e3e;}</style></defs><path class="a" d="M71.4,30.026H70.224A18.672,18.672,0,1,0,36.152,15.4,14.68,14.68,0,0,0,11.9,30.053,10.691,10.691,0,0,0,2,40.7a10.579,10.579,0,0,0,2.776,7.153,3.652,3.652,0,0,0-.107.854V74.068H3.495a1.335,1.335,0,0,0-1.308,1.561L2.8,79.046a.479.479,0,0,0,.027.147,4.032,4.032,0,0,0,3.844,2.883H53.382a4.032,4.032,0,0,0,3.844-2.883.479.479,0,0,0,.027-.147l.614-3.417a1.335,1.335,0,0,0-1.308-1.561H55.384V58.053h1.335a1.335,1.335,0,0,0,1.295-1.014l.227-.894.787.48a1.335,1.335,0,0,0,1.628-.2l3.777-3.777a1.356,1.356,0,0,0,.347-1.268H71.4a10.677,10.677,0,1,0,0-21.353ZM54.65,78.5a1.353,1.353,0,0,1-1.268.908H6.671A1.353,1.353,0,0,1,5.4,78.5L5.1,76.737H24.688a1.335,1.335,0,0,0,1.335,1.335H34.03a1.335,1.335,0,0,0,1.335-1.335H54.956Zm-11.6-28.493.894.227-.48.787a1.335,1.335,0,0,0,.2,1.628l3.777,3.777a1.335,1.335,0,0,0,1.628.2l.787-.48.227.894a1.335,1.335,0,0,0,1.295,1.014h1.335V74.068H34.03A1.335,1.335,0,0,0,32.7,75.4H27.357a1.335,1.335,0,0,0-1.335-1.335H7.338V48.711a1.42,1.42,0,0,1,.147-.6,1.319,1.319,0,0,1,1.188-.734H42.038v1.335A1.335,1.335,0,0,0,43.052,50.005ZM63.391,47.67l-1.628.4a1.344,1.344,0,0,0-.908.787,1.36,1.36,0,0,0,.08,1.2L61.8,51.5l-2.3,2.3-1.441-.867a1.36,1.36,0,0,0-1.2-.08,1.344,1.344,0,0,0-.787.908l-.4,1.628H52.421l-.4-1.628a1.344,1.344,0,0,0-.787-.908,1.36,1.36,0,0,0-1.2.08L48.59,53.8l-2.3-2.3.867-1.441a1.36,1.36,0,0,0,.08-1.2,1.344,1.344,0,0,0-.908-.787l-1.628-.4V44.413l1.628-.4a1.344,1.344,0,0,0,.908-.787,1.36,1.36,0,0,0-.08-1.2L46.3,40.583l2.3-2.3,1.441.854a1.32,1.32,0,0,0,1.2.093,1.344,1.344,0,0,0,.787-.908l.4-1.628h3.256l.4,1.628a1.344,1.344,0,0,0,.787.908,1.32,1.32,0,0,0,1.2-.093l1.441-.854,2.3,2.3-.867,1.441a1.36,1.36,0,0,0-.08,1.2,1.344,1.344,0,0,0,.908.787l1.628.4ZM71.4,48.711H66.06V43.372a1.335,1.335,0,0,0-1.014-1.295l-.894-.227.48-.787a1.335,1.335,0,0,0-.2-1.628l-3.777-3.777a1.335,1.335,0,0,0-1.628-.2l-.787.48-.227-.894a1.335,1.335,0,0,0-1.295-1.014H51.38a1.335,1.335,0,0,0-1.295,1.014l-.227.894-.787-.48a1.335,1.335,0,0,0-1.628.2l-3.777,3.777a1.335,1.335,0,0,0-.2,1.628l.48.787-.894.227a1.335,1.335,0,0,0-1.014,1.295v1.335H8.673a3.988,3.988,0,0,0-2.389.8A7.994,7.994,0,0,1,12.677,32.7H13.8a1.352,1.352,0,0,0,1.121-.6,1.38,1.38,0,0,0,.107-1.268,11.674,11.674,0,0,1-1.014-4.8,12.011,12.011,0,0,1,21.794-6.967,1.331,1.331,0,0,0,2.4-.587,16,16,0,0,1,31.857,2.215,15.772,15.772,0,0,1-3.417,9.849A1.335,1.335,0,0,0,67.7,32.7h3.7a8.008,8.008,0,1,1,0,16.015Z" transform="translate(-2 -2)"/><path class="a" d="M41,6V8.669A10.689,10.689,0,0,1,51.677,19.346h2.669A13.361,13.361,0,0,0,41,6Z" transform="translate(11.049 -0.662)"/><path class="a" d="M13,22.342h2.669a6.681,6.681,0,0,1,6.673-6.673V13A9.353,9.353,0,0,0,13,22.342Z" transform="translate(1.68 1.68)"/><path class="a" d="M42.338,31a5.338,5.338,0,1,0,5.338,5.338A5.338,5.338,0,0,0,42.338,31Zm0,8.008a2.669,2.669,0,1,1,2.669-2.669A2.669,2.669,0,0,1,42.338,39.008Z" transform="translate(9.711 7.703)"/><rect class="a" width="2.929" height="2.929" transform="translate(26.379 37.1)"/><path class="a" d="M47.357,19H23.335A1.335,1.335,0,0,0,22,20.335V31.011h2.669V21.669H46.023v4h2.669V20.335A1.335,1.335,0,0,0,47.357,19Z" transform="translate(4.692 3.688)"/><path class="a" d="M41.032,48.677h-.1a8.955,8.955,0,0,0,.1-1.335A9.353,9.353,0,0,0,31.689,38a8.884,8.884,0,0,0-7.073,3.561,8.4,8.4,0,0,0-3.6-.892,8.016,8.016,0,0,0-8.008,8.008v.168A5.338,5.338,0,0,0,14.34,59.353H41.032a5.338,5.338,0,1,0,0-10.677Zm0,8.008H14.34a2.669,2.669,0,0,1,0-5.338,1.335,1.335,0,0,0,1.335-1.335V48.677a5.338,5.338,0,0,1,5.338-5.338A5.988,5.988,0,0,1,24.25,44.43a1.335,1.335,0,0,0,1.908-.4,6.462,6.462,0,0,1,5.531-3.36,6.654,6.654,0,0,1,6.283,8.9,1.335,1.335,0,0,0,1.259,1.779h1.8a2.669,2.669,0,1,1,0,5.338Z" transform="translate(0.341 10.045)"/><rect class="a" width="2.929" height="1.953" transform="translate(55.668 64.436)"/><path class="a" d="M53.338,53.011H48V55.68h6.673a1.335,1.335,0,0,0,1.335-1.335V41H53.338Z" transform="translate(13.391 11.049)"/></svg>