<svg xmlns="http://www.w3.org/2000/svg" width="85.491" height="64.867" viewBox="0 0 85.491 64.867"><defs><style>.a{fill:#fa7e3e;}</style></defs><g transform="translate(0 0)"><path class="a" d="M72.243,23.537a15.383,15.383,0,0,0,.179-2.861A18.774,18.774,0,0,0,53.646,1.9,18.977,18.977,0,0,0,36.837,12.272a16.8,16.8,0,0,0-8.226-2.325,15.831,15.831,0,0,0-15.736,13.59,14.063,14.063,0,0,0,1.252,28.075,1.788,1.788,0,1,0,0-3.576,10.57,10.57,0,0,1-10.55-10.55,10.419,10.419,0,0,1,10.55-10.372h.179a1.792,1.792,0,0,0,1.788-1.788A12.323,12.323,0,0,1,36.3,16.384a1.824,1.824,0,0,0,1.609.358,1.891,1.891,0,0,0,1.252-1.073,15.173,15.173,0,0,1,29.505,5.007,12.021,12.021,0,0,1-.715,4.292,1.715,1.715,0,0,0,.358,1.609c.536.715,1.788.715,3.04.536a10.55,10.55,0,0,1,0,21.1,1.788,1.788,0,1,0,0,3.576A14.157,14.157,0,0,0,85.476,37.664,13.522,13.522,0,0,0,72.243,23.537Z" transform="translate(0 -1.9)"/><path class="a" d="M36.628,19.815h0a1.788,1.788,0,0,0-2.861,0h0L23.037,34.121A1.788,1.788,0,1,0,25.9,36.267l7.51-10.014V47.89a1.788,1.788,0,0,0,3.576,0V26.253L44.5,36.267a1.626,1.626,0,0,0,1.431.715A2.542,2.542,0,0,0,47,36.624a1.923,1.923,0,0,0,.358-2.5Z" transform="translate(17.912 8.081)"/><path class="a" d="M35.6,39.154a1.923,1.923,0,0,0-2.5.358l-7.51,10.014V27.888a1.788,1.788,0,0,0-3.576,0V49.525L14.5,39.511a1.923,1.923,0,0,0-2.5-.358,1.923,1.923,0,0,0-.358,2.5L22.367,55.963h0a1.676,1.676,0,0,0,2.682,0h0L35.778,41.657C36.493,40.763,36.493,39.69,35.6,39.154Z" transform="translate(8.927 8.233)"/></g></svg>