<svg xmlns="http://www.w3.org/2000/svg" width="71.262" height="69.66" viewBox="0 0 71.262 69.66"><defs><style>.a{fill:#fa7e3e;}</style></defs><g transform="translate(-226.853 -1333.931)"><path class="a" d="M68.272,29.037a17.461,17.461,0,0,0,1.349-6.751,17.737,17.737,0,0,0-32.512-9.823,13.148,13.148,0,0,0-17.67,8.153A16.463,16.463,0,0,0,14.22,52.5V67.6H35.1v4.3h-5a1.149,1.149,0,0,0,0,2.3H48.157a1.149,1.149,0,1,0,0-2.3h-5V67.6h20.88V53.3a13.154,13.154,0,0,0,4.23-24.267ZM40.863,71.909H37.4v-4.3h3.463ZM61.743,65.3H16.519V62.139H61.743ZM16.519,59.841V35.865H61.743V59.841ZM64.042,50.96V33.566H14.22V50.017a14.163,14.163,0,0,1,5.747-27.11.471.471,0,0,1,.107.008,1.867,1.867,0,0,0,.207.008l.927.023.215-.9A10.822,10.822,0,0,1,31.982,13.72a10.68,10.68,0,0,1,5.027,1.241l.973.506.552-.95a15.438,15.438,0,0,1,28.788,7.762,15.279,15.279,0,0,1-1.571,6.751l-.506,1.042,1.042.5a10.867,10.867,0,0,1-2.245,20.39Z" transform="translate(223.353 1329.391)"/><path class="a" d="M1872.056,1217.6v7.461l-8.455-1.194V1217.6Z" transform="translate(-1601.717 159.088)"/><path class="a" d="M1842.666,1217.6v6.267l-6.466-.9V1217.6Z" transform="translate(-1580.982 159.068)"/><path class="a" d="M1872.02,1186.748v7.446l-8.467-.118v-6.328Z" transform="translate(-1601.681 182.014)"/><path class="a" d="M1842.411,1191.245v6.3h-6.55v-5.5Z" transform="translate(-1580.726 178.66)"/></g></svg>