<svg xmlns="http://www.w3.org/2000/svg" width="107.316" height="60.05" viewBox="0 0 107.316 60.05"><defs><style>.a,.f{fill:none;}.a{stroke:#fa7e3e;stroke-width:3px;}.b,.c,.d{fill:#fa7e3e;}.c{font-size:19px;font-family:Oswald-Regular, Oswald;}.d,.e{fill-rule:evenodd;}.e{fill:#fff;}</style></defs><g transform="translate(1.5 1.503)"><path class="a" d="M1784.811,1156.856c4.96.13,14.509,8.825,12.153,21.283s-16.493,14.016-16.493,14.016h-73.91s-13.641-.908-13.517-16.352,15.749-13.886,15.749-13.886,1.447-20.593,21.082-14.276c4.218-12.351,16.88-12.4,16.937-12.509,19.876-.644,21.041,11.12,21.259,10.562C1784.013,1139.551,1784.811,1156.856,1784.811,1156.856Z" transform="translate(-1693.042 -1135.108)"/><g transform="translate(52.133 15.084)"><path class="b" d="M1873.958,1217.6v9.139l-10.357-1.462V1217.6Z" transform="translate(-1845.176 -1207.891)"/><path class="b" d="M1844.121,1217.6v7.676l-7.92-1.1v-6.58Z" transform="translate(-1825.939 -1207.915)"/><text class="c" transform="translate(0 35.548)"><tspan x="0" y="0">Azure</tspan></text><path class="b" d="M1873.925,1186.747v9.12l-10.371-.144v-7.751Z" transform="translate(-1845.143 -1186.747)"/><path class="b" d="M1843.885,1191.245v7.715h-8.023v-6.741Z" transform="translate(-1825.702 -1189.844)"/></g><g transform="translate(11.41 34.109)"><path class="d" d="M0,18.221H18.615L36.833,0H0V18.221" transform="translate(0)"/><path class="e" d="M22.614,8.625H18.977l.012,8.556L15.821,8.622H12.68l-2.7,7.148c-.287-1.819-2.168-2.446-3.647-2.917-.977-.314-2.014-.775-2-1.286.008-.419.555-.807,1.641-.749a5.933,5.933,0,0,1,2.653.717L9.879,9.341A9.794,9.794,0,0,0,5.773,8.37H5.765A4.986,4.986,0,0,0,2.138,9.694a3.056,3.056,0,0,0-.867,2.115,2.841,2.841,0,0,0,1.244,2.532,8.479,8.479,0,0,0,2.466,1.127c1.006.312,1.828.583,1.818,1.16a.855.855,0,0,1-.239.566,1.594,1.594,0,0,1-1.168.367,5.009,5.009,0,0,1-3-.857L1.27,18.928a7.786,7.786,0,0,0,3.96,1.035l.329,0a4.942,4.942,0,0,0,3.125-.988c.047-.038.089-.076.133-.114l-.138.709,3.069-.01.551-1.41a6.022,6.022,0,0,0,1.936.307,6.086,6.086,0,0,0,1.89-.29l.384,1.393,5.507.005.013-3.214H23.2c2.832,0,4.507-1.441,4.507-3.859C27.707,9.8,26.079,8.625,22.614,8.625Zm-8.379,7.314a3.291,3.291,0,0,1-1.161-.2l1.148-3.626h.022l1.13,3.636a3.4,3.4,0,0,1-1.139.193Zm8.592-2.083h-.8V10.933h.8c1.065,0,1.915.355,1.915,1.442,0,1.126-.85,1.48-1.915,1.48" transform="translate(-0.756 -4.981)"/><path class="f" d="M0,0H37.252V18.221H0Z" transform="translate(0)"/></g></g></svg>