<svg xmlns="http://www.w3.org/2000/svg" xmlns:xlink="http://www.w3.org/1999/xlink" width="1366" height="700" viewBox="0 0 1366 700"><defs><style>.a{fill:none;}.b{fill:#fff;}.c{clip-path:url(#a);}.d{fill:#f2f2f2;}</style><clipPath id="a"><rect class="a" width="1366" height="700"/></clipPath></defs><g transform="translate(0 0.418)"><rect class="b" width="700" height="1366" transform="translate(1366 -0.418) rotate(90)"/><g transform="translate(0 -0.418)"><g class="c"><g transform="translate(-2.28 -0.768)"><path class="d" d="M1368.015,699.431H-2.546V-2.406H1368.015ZM-.266,698.263h1366V-1.238H-.266Z" transform="translate(2.546 2.406)"/><rect class="d" width="1368.281" height="1.168" transform="translate(1.14 583.891)"/><rect class="d" width="1368.281" height="1.168" transform="translate(1.14 467.113)"/><rect class="d" width="1368.281" height="1.168" transform="translate(1.14 350.335)"/><rect class="d" width="1368.281" height="1.168" transform="translate(1.14 233.556)"/><rect class="d" width="1368.281" height="1.168" transform="translate(1.14 116.778)"/><rect class="d" width="2.28" height="700.669" transform="translate(1140.234 0.584)"/><rect class="d" width="2.28" height="700.669" transform="translate(912.187 0.584)"/><rect class="d" width="2.28" height="700.669" transform="translate(684.14 0.584)"/><rect class="d" width="2.28" height="700.669" transform="translate(456.094 0.584)"/><rect class="d" width="2.281" height="700.669" transform="translate(228.047 0.584)"/></g></g></g></g></svg>