<svg xmlns="http://www.w3.org/2000/svg" xmlns:xlink="http://www.w3.org/1999/xlink" width="138" height="138" viewBox="0 0 138 138"><defs><style>.a{fill:#fa7e3e;}.b{fill:#fff;fill-rule:evenodd;}.c{filter:url(#a);}</style><filter id="a" x="0" y="0" width="138" height="138" filterUnits="userSpaceOnUse"><feOffset dy="3" input="SourceAlpha"/><feGaussianBlur stdDeviation="3" result="b"/><feFlood flood-opacity="0.161"/><feComposite operator="in" in2="b"/><feComposite in="SourceGraphic"/></filter></defs><g transform="translate(-41 -2580)"><g class="c" transform="matrix(1, 0, 0, 1, 41, 2580)"><rect class="a" width="120" height="120" rx="10" transform="translate(9 6)"/></g><path class="b" d="M89.255,1.27a1.555,1.555,0,0,1-.795,2.053l-15.323,6.77,7.815,20.747,1.5,3.168,5.36-1.665a1.556,1.556,0,1,1,.924,2.972l-6.65,2.066a1.557,1.557,0,0,1-1.869-.819L78.69,33.335l-1.172.364-.842,3.8A5.471,5.471,0,0,1,77.8,39.452a7.108,7.108,0,0,1-.368,4.554c-.826,2.317-3.2,2.775-4.856,2.781a13.468,13.468,0,0,1-2.769-.31,6.131,6.131,0,0,1-.7,2.253,5.412,5.412,0,0,1-2.832,2.431,9.562,9.562,0,0,1-4.66.431,9.063,9.063,0,0,1-1.643,3.376,5.991,5.991,0,0,1-3.667,2.161,10.959,10.959,0,0,1-6.057-1.015,6.4,6.4,0,0,1-1.4,2.1,4.57,4.57,0,0,1-3.253,1.3,7.594,7.594,0,0,1-4.14-1.47,11.15,11.15,0,0,1-2.717,1.431,5.6,5.6,0,0,1-4.213.085A5.71,5.71,0,0,1,31.414,56.4l-.014-.041c-.252,0-.525-.007-.811-.027a6.706,6.706,0,0,1-4.405-1.755,9.63,9.63,0,0,1-2.048-3.458c-.051-.146-.1-.287-.139-.421-.3,0-.642,0-1-.025a6.706,6.706,0,0,1-4.405-1.755,6.693,6.693,0,0,1-1.574-4.464c-.01-.36,0-.7.015-1.007-.132-.047-.271-.1-.415-.156A9.636,9.636,0,0,1,13.243,41.1a5.381,5.381,0,0,1-1.112-4.916,8.01,8.01,0,0,1,.862-2.266l-2.7-1.814-1.7,4.94a1.557,1.557,0,0,1-2.091.921L.938,35.558A1.556,1.556,0,1,1,2.177,32.7l4.016,1.74L14.636,9.954.911,3.687A1.556,1.556,0,1,1,2.2.856L17.215,7.71a1.556,1.556,0,0,1,.825,1.923l-.233.676,9.03,1.543a1.556,1.556,0,1,1-.525,3.068L16.779,13.29,11.342,29.061l4.029,2.706a8.6,8.6,0,0,1,2.439-.7A5.079,5.079,0,0,1,22.23,32.48l.049.051a10.7,10.7,0,0,1,1.68,2.1,6.11,6.11,0,0,1,.508,1.152,6.687,6.687,0,0,1,5.356,2.357,5.83,5.83,0,0,1,1.5,2.605,8.03,8.03,0,0,1,1.11.054,6.389,6.389,0,0,1,3.91,1.877,8.522,8.522,0,0,1,1.98,3.459,6.319,6.319,0,0,1,.235,1.632q.094.014.188.035c2.852.631,4.819,1.9,5.375,3.967a5.4,5.4,0,0,1-.607,3.9,4.3,4.3,0,0,0,2.1.735,1.459,1.459,0,0,0,1.083-.432,4.8,4.8,0,0,0,1.119-2.386,1.557,1.557,0,0,1,2.24-1.019c2.134,1.121,4.188,1.769,5.713,1.5A2.879,2.879,0,0,0,57.563,53a6.271,6.271,0,0,0,1.119-2.485l-4.525-2.841a1.557,1.557,0,1,1,1.656-2.636l5.232,3.285a7.348,7.348,0,0,0,4.093-.059,2.306,2.306,0,0,0,1.245-1.035,3.72,3.72,0,0,0,.365-1.945l-5.913-4.117a1.557,1.557,0,1,1,1.78-2.554l6.338,4.413a12.17,12.17,0,0,0,3.616.648c1.424,0,1.824-.407,1.933-.713a4.141,4.141,0,0,0,.328-2.586,3.045,3.045,0,0,0-.82-1.177L50.258,25.613a1.557,1.557,0,1,1,1.547-2.7L73.916,35.559l.756-3.414A1.556,1.556,0,0,1,75.731,31l1.748-.543-6.405-17-6.221,1.59a1.557,1.557,0,0,1-1.943-1.54l.016-.808L45.1,10.341,32.694,18.247c-.405,1.454-.985,3.419-1.579,5.192-.338,1.009-.687,1.979-1.018,2.765-.132.315-.268.615-.4.885a5.036,5.036,0,0,0,2,.45,4.808,4.808,0,0,0,2.968-.931,8.511,8.511,0,0,0,2.818-4.215,1.557,1.557,0,0,1,1.193-1.01L44.2,20.4a1.556,1.556,0,1,1,.548,3.064l-4.664.834a11.036,11.036,0,0,1-3.593,4.835,8.051,8.051,0,0,1-8.674.483,3.878,3.878,0,0,1-1.258-1.132,2.132,2.132,0,0,1-.365-1.1A1.86,1.86,0,0,1,26.732,26a2.278,2.278,0,0,0,.121-.2c.1-.192.23-.46.374-.8.287-.683.608-1.57.936-2.547.652-1.95,1.3-4.163,1.687-5.6a1.557,1.557,0,0,1,.666-.9L43.9,7.412a1.558,1.558,0,0,1,1.041-.231l19.77,2.605a1.556,1.556,0,0,1,1.353,1.575l0,.154,3.9-1L69.7,9.812a1.556,1.556,0,0,1,.828-1.972L87.2.475A1.557,1.557,0,0,1,89.255,1.27ZM40.263,55.02a3.252,3.252,0,0,0,.846-2.443c-.1-.367-.579-1.187-3.019-1.731a.668.668,0,0,0-.177.059,3.285,3.285,0,0,0-.775.548,14.016,14.016,0,0,0-2.057,2.5c-.286.426-.521.807-.683,1.08l-.086.146a.98.98,0,0,0,.047.2c.081.235.365.808,1.543,1.386a2.849,2.849,0,0,0,1.8-.224A7.927,7.927,0,0,0,40.263,55.02Zm-8.414-1.787c.172-.282.39-.629.645-1.01a17.391,17.391,0,0,1,2.46-2.993,2.451,2.451,0,0,0,.363-2.267,5.414,5.414,0,0,0-1.226-2.134m-2.243,8.4a9.206,9.206,0,0,1-1.048-.009,3.72,3.72,0,0,1-2.37-.8,6.543,6.543,0,0,1-1.357-2.336c-.079-.225-.142-.434-.191-.614.135-.151.281-.309.434-.477a17.934,17.934,0,0,0,3.558-5.1,5.07,5.07,0,0,1,1.184,0,3.288,3.288,0,0,1,2.034.942M24.4,47.567c.3-.351.6-.68.9-1.005a12.372,12.372,0,0,0,2.969-4.544c.124-.348.044-.959-.69-1.723-1.869-1.946-3.055-1.383-3.28-1.168l-4.109,3.942a9.3,9.3,0,0,0-.059,1.3,3.709,3.709,0,0,0,.708,2.395,3.72,3.72,0,0,0,2.37.805A9.3,9.3,0,0,0,24.4,47.567Zm-2.764-10.2a3.037,3.037,0,0,0-.384-1.2,8.116,8.116,0,0,0-1.268-1.532,1.989,1.989,0,0,0-1.791-.481,5.685,5.685,0,0,0-2.034.7,3.979,3.979,0,0,0-.981,1.979,2.343,2.343,0,0,0,.313,2.11A6.545,6.545,0,0,0,17.769,40.4c.184.073.357.135.512.186Z" transform="translate(65 2615.658)"/></g></svg>