<svg xmlns="http://www.w3.org/2000/svg" xmlns:xlink="http://www.w3.org/1999/xlink" width="138" height="138" viewBox="0 0 138 138"><defs><style>.a{fill:#fa7e3e;}.b{fill:#fff;}.c{filter:url(#a);}</style><filter id="a" x="0" y="0" width="138" height="138" filterUnits="userSpaceOnUse"><feOffset dy="3" input="SourceAlpha"/><feGaussianBlur stdDeviation="3" result="b"/><feFlood flood-opacity="0.161"/><feComposite operator="in" in2="b"/><feComposite in="SourceGraphic"/></filter></defs><g transform="translate(-41 -2240)"><g class="c" transform="matrix(1, 0, 0, 1, 41, 2240)"><rect class="a" width="120" height="120" rx="10" transform="translate(9 6)"/></g><g transform="translate(-7510 -694)"><path class="b" d="M63.637,109.749V94H60.818v15.749a4.228,4.228,0,1,0,2.819,0Zm-1.409,5.391a1.409,1.409,0,1,1,1.409-1.409A1.409,1.409,0,0,1,62.228,115.14Z" transform="translate(7557.871 2927.243)"/><path class="b" d="M97.5,92.228a4.231,4.231,0,0,0-3.981,2.819h-8.7V88H82v7.047a2.821,2.821,0,0,0,2.819,2.819h8.7A4.226,4.226,0,1,0,97.5,92.228Zm0,5.637a1.409,1.409,0,1,1,1.409-1.409A1.409,1.409,0,0,1,97.5,97.865Z" transform="translate(7550.783 2929.015)"/><path class="b" d="M63.637,23.957V8.207a4.228,4.228,0,1,0-2.819,0V23.957ZM62.228,2.817a1.409,1.409,0,1,1-1.409,1.409,1.409,1.409,0,0,1,1.409-1.409Z" transform="translate(7557.871 2955.007)"/><path class="b" d="M37.729,28.684V21.637a2.821,2.821,0,0,0-2.819-2.819h-8.7a4.228,4.228,0,1,0,0,2.819h8.7v7.047Zm-15.5-7.047a1.409,1.409,0,1,1,1.409-1.409A1.409,1.409,0,0,1,22.226,21.637Z" transform="translate(7569.686 2950.28)"/><path class="b" d="M93.521,21.637a4.228,4.228,0,1,0,0-2.819h-8.7A2.821,2.821,0,0,0,82,21.637v7.047h2.819V21.637ZM97.5,18.818a1.409,1.409,0,1,1-1.409,1.409A1.409,1.409,0,0,1,97.5,18.818Z" transform="translate(7550.783 2950.28)"/><path class="b" d="M62.119,71.824H59.3V70.415H74.1a4.233,4.233,0,0,0,4.228-4.228V42.228A4.233,4.233,0,0,0,74.1,38H33.228A4.233,4.233,0,0,0,29,42.228V66.187a4.233,4.233,0,0,0,4.228,4.228h14.8v1.409H45.207a1.409,1.409,0,1,0,0,2.819H62.119a1.409,1.409,0,1,0,0-2.819Zm6.342-21.845H71.28a1.409,1.409,0,1,1,0,2.819H68.461a1.409,1.409,0,1,1,0-2.819Zm0,5.637H71.28a1.409,1.409,0,1,1,0,2.819H68.461a1.409,1.409,0,1,1,0-2.819Zm-29.6,2.819H36.047a1.409,1.409,0,1,1,0-2.819h2.819a1.409,1.409,0,0,1,0,2.819Zm0-5.637H36.047a1.409,1.409,0,1,1,0-2.819h2.819a1.409,1.409,0,0,1,0,2.819ZM56.482,71.824H50.845V70.415h5.637Zm.808-8.855a3.7,3.7,0,0,1-3.2,1.809h-.86a3.7,3.7,0,0,1-3.2-1.808,3.6,3.6,0,0,1-.912.116,3.758,3.758,0,0,1-2.632-1.1l-.607-.607a3.7,3.7,0,0,1-.98-3.543,3.7,3.7,0,0,1-1.812-3.2v-.861a3.7,3.7,0,0,1,1.811-3.2,3.693,3.693,0,0,1,.979-3.54l.613-.614a3.755,3.755,0,0,1,2.628-1.1,3.6,3.6,0,0,1,.912.117,3.7,3.7,0,0,1,3.2-1.808h.86a3.7,3.7,0,0,1,3.2,1.808,3.6,3.6,0,0,1,.913-.117,3.757,3.757,0,0,1,2.632,1.1l.608.609a3.7,3.7,0,0,1,.978,3.54,3.7,3.7,0,0,1,1.812,3.2v.861a3.7,3.7,0,0,1-1.812,3.2,3.707,3.707,0,0,1-.979,3.542l-.611.612a3.754,3.754,0,0,1-2.628,1.1,3.6,3.6,0,0,1-.913-.117Z" transform="translate(7566.436 2943.782)"/><path class="b" d="M67.736,59.043a.818.818,0,0,0,.766-.862V57.32a.817.817,0,0,0-.766-.862h-1.1a6,6,0,0,0-.811-1.957l.776-.777a.818.818,0,0,0-.067-1.15l-.608-.609a.912.912,0,0,0-.638-.274.716.716,0,0,0-.513.206L64,52.674a5.992,5.992,0,0,0-1.957-.811v-1.1A.818.818,0,0,0,61.181,50h-.86a.817.817,0,0,0-.862.766v1.1a5.992,5.992,0,0,0-1.957.811l-.776-.776a.718.718,0,0,0-.514-.206.912.912,0,0,0-.638.274l-.608.609a.817.817,0,0,0-.069,1.15l.777.777a5.993,5.993,0,0,0-.811,1.957h-1.1A.817.817,0,0,0,53,57.32v.861a.818.818,0,0,0,.765.862h1.1A6.006,6.006,0,0,0,55.674,61l-.777.776a.818.818,0,0,0,.069,1.151l.608.609a.912.912,0,0,0,.638.274.719.719,0,0,0,.514-.206l.776-.777a6,6,0,0,0,1.957.812v1.1a.818.818,0,0,0,.862.765h.86a.818.818,0,0,0,.862-.765v-1.1A6,6,0,0,0,64,62.827l.777.777a.718.718,0,0,0,.513.206.912.912,0,0,0,.638-.274l.608-.609a.819.819,0,0,0,.067-1.151L65.828,61a6.017,6.017,0,0,0,.811-1.958Zm-6.985,2.936a4.228,4.228,0,1,1,4.228-4.228A4.228,4.228,0,0,1,60.751,61.979Z" transform="translate(7559.348 2940.239)"/><ellipse class="b" cx="1.5" cy="1" rx="1.5" ry="1" transform="translate(7619 2997)"/><circle class="b" cx="1.5" cy="1.5" r="1.5" transform="translate(7581 3004)"/><circle class="b" cx="1.5" cy="1.5" r="1.5" transform="translate(7656 3004)"/><path class="b" d="M34.91,95.047h-8.7a4.228,4.228,0,1,0,0,2.819h8.7a2.821,2.821,0,0,0,2.819-2.819V88H34.91ZM22.226,97.865a1.409,1.409,0,1,1,1.409-1.409A1.409,1.409,0,0,1,22.226,97.865Z" transform="translate(7569.686 2929.015)"/><path class="b" d="M113.751,54a9.263,9.263,0,0,0-7.482,3.4,1.409,1.409,0,0,0,2.279,1.657,7.166,7.166,0,0,1,10.4,0,1.409,1.409,0,1,0,2.279-1.657A9.262,9.262,0,0,0,113.751,54Z" transform="translate(7543.694 2939.057)"/><path class="b" d="M114.637,62a6.423,6.423,0,0,0-5.412,2.759,1.409,1.409,0,0,0,2.367,1.529,3.889,3.889,0,0,1,6.089,0,1.409,1.409,0,0,0,2.367-1.529A6.423,6.423,0,0,0,114.637,62Z" transform="translate(7542.809 2936.695)"/><path class="b" d="M2.549,59.057a6.432,6.432,0,0,1,5.2-2.238,6.432,6.432,0,0,1,5.2,2.238A1.409,1.409,0,1,0,15.233,57.4,9.263,9.263,0,0,0,7.751,54,9.263,9.263,0,0,0,.27,57.4a1.409,1.409,0,0,0,2.279,1.657Z" transform="translate(7575 2939.057)"/><path class="b" d="M14.049,64.758A6.423,6.423,0,0,0,8.637,62a6.423,6.423,0,0,0-5.412,2.759,1.409,1.409,0,0,0,2.367,1.529,3.593,3.593,0,0,1,3.044-1.469,3.593,3.593,0,0,1,3.044,1.469,1.409,1.409,0,1,0,2.367-1.529Z" transform="translate(7574.114 2936.695)"/></g></g></svg>