<svg xmlns="http://www.w3.org/2000/svg" width="604.772" height="579.198" viewBox="0 0 604.772 579.198"><defs><style>.a{fill:#0e6ba6;}.b{fill:#e23959;}.c{fill:#f67c3d;}.d{fill:#fa7e3e;}</style></defs><g transform="translate(-133.999 -983)"><path class="a" d="M919.418,865.373a92.49,92.49,0,1,1,0-130.8L946.884,707.1a131.334,131.334,0,1,0,0,185.736v0l-27.466-27.466Z" transform="translate(-404.975 472.664)"/><path class="b" d="M1014.176,497.4l-85.9-.051.008.026A92.49,92.49,0,1,1,862.876,655.26l-27.465,27.468a131.332,131.332,0,1,0,92.872-224.2l-.008.031v-.014H454.837V497.4Z" transform="translate(-320.838 524.472)"/><path class="c" d="M928.275,1102.45v.05l.009-.024a92.49,92.49,0,1,0-65.408-157.888l-27.465-27.471a131.333,131.333,0,1,1,92.872,224.2l-.009-.031v.014H454.837V1102.45Z" transform="translate(-320.838 420.88)"/><path class="a" d="M944.316,819.937A70.335,70.335,0,1,1,873.98,749.6,70.334,70.334,0,0,1,944.316,819.937Z" transform="translate(-424.646 452.399)"/><path class="d" d="M1084.03,1100.284a70.335,70.335,0,1,0-70.334-70.334A70.333,70.333,0,0,0,1084.03,1100.284Z" transform="translate(-476.696 406.386)"/><path class="b" d="M1084.062,680.186a70.336,70.336,0,1,0-70.337-70.337A70.336,70.336,0,0,0,1084.062,680.186Z" transform="translate(-476.725 497.486)"/></g></svg>