<svg xmlns="http://www.w3.org/2000/svg" xmlns:xlink="http://www.w3.org/1999/xlink" width="138" height="138" viewBox="0 0 138 138"><defs><style>.a{fill:#fa7e3e;}.b{fill:#fff;}.c{filter:url(#a);}</style><filter id="a" x="0" y="0" width="138" height="138" filterUnits="userSpaceOnUse"><feOffset dy="3" input="SourceAlpha"/><feGaussianBlur stdDeviation="3" result="b"/><feFlood flood-opacity="0.161"/><feComposite operator="in" in2="b"/><feComposite in="SourceGraphic"/></filter></defs><g transform="translate(-41 -2070)"><g class="c" transform="matrix(1, 0, 0, 1, 41, 2070)"><rect class="a" width="120" height="120" rx="10" transform="translate(9 6)"/></g><g transform="translate(-7375.2 -891)"><path class="b" d="M90.7,17H9.3a3.116,3.116,0,0,0-3.1,3.1V70.6a3.116,3.116,0,0,0,3.1,3.1H90.6a3.116,3.116,0,0,0,3.1-3.1V20.1A2.97,2.97,0,0,0,90.7,17ZM50,71.7a2.9,2.9,0,1,1,2.9-2.9A2.9,2.9,0,0,1,50,71.7ZM88.6,61.5a3.116,3.116,0,0,1-3.1,3.1h-71a3.116,3.116,0,0,1-3.1-3.1V25.2a3.116,3.116,0,0,1,3.1-3.1h71a3.116,3.116,0,0,1,3.1,3.1V61.5Z" transform="translate(7435 2977)"/><path class="b" d="M60.5,76.2a4.082,4.082,0,0,1-4,3.4h-13a4.082,4.082,0,0,1-4-3.4H6.3A6.744,6.744,0,0,0,13.1,83H87a6.744,6.744,0,0,0,6.8-6.8Z" transform="translate(7435 2977)"/><rect class="b" width="18.7" height="3" transform="translate(7487.8 3007.2)"/><rect class="b" width="28.2" height="3" transform="translate(7487.8 3016)"/><rect class="b" width="28.2" height="3" transform="translate(7487.8 3021)"/><rect class="b" width="28.2" height="3" transform="translate(7487.8 3026)"/><rect class="b" width="14.1" height="3" transform="translate(7487.8 3031)"/><path class="b" d="M37.1,29.4A10.243,10.243,0,0,0,26.9,39.6,9.772,9.772,0,0,0,29,45.9l-.4.5a2.618,2.618,0,0,0-1.3.6l-7.6,7.6a1.607,1.607,0,0,0-.5,1.7,1.887,1.887,0,0,0,.6,1.5,1.99,1.99,0,0,0,1.6.7,2.242,2.242,0,0,0,1.5-.6l7.6-7.6a2.618,2.618,0,0,0,.6-1.3l.5-.5a9.681,9.681,0,0,0,5.6,1.6A10.264,10.264,0,0,0,47.4,39.8,10.436,10.436,0,0,0,37.1,29.4Zm6.3,10.4A6.4,6.4,0,1,1,37,33.4,6.511,6.511,0,0,1,43.4,39.8Z" transform="translate(7435 2977)"/></g></g></svg>