<svg xmlns="http://www.w3.org/2000/svg" xmlns:xlink="http://www.w3.org/1999/xlink" width="138" height="138" viewBox="0 0 138 138"><defs><style>.a{fill:#fa7e3e;}.b{fill:#fff;}.c{filter:url(#a);}</style><filter id="a" x="0" y="0" width="138" height="138" filterUnits="userSpaceOnUse"><feOffset dy="3" input="SourceAlpha"/><feGaussianBlur stdDeviation="3" result="b"/><feFlood flood-opacity="0.161"/><feComposite operator="in" in2="b"/><feComposite in="SourceGraphic"/></filter></defs><g transform="translate(-41 -2750)"><g class="c" transform="matrix(1, 0, 0, 1, 41, 2750)"><rect class="a" width="120" height="120" rx="10" transform="translate(9 6)"/></g><g transform="translate(66.489 2772.894)"><path class="b" d="M19.7,87.428a2.884,2.884,0,0,0,1.754-.593l9.863-7.554a30.45,30.45,0,0,1-3.108.087l27.263.031a17.782,17.782,0,0,0,1.883-.068,7.835,7.835,0,0,0,2.2-1.613L79.5,57.77a6.145,6.145,0,0,0-.434-9.067h0a6.324,6.324,0,0,0-8.422.579l-8.9,8.9a5.391,5.391,0,0,0-2.732-.757h0c-.179-.008-4.381-.166-5.4-.175-.707.006-1.433.021-2.174.035-3.676.074-7.476.149-10.9-.743-.784-.205-1.536-.424-2.269-.637-3.679-1.069-7.154-2.078-11.605-.539C22.776,56.7,19.078,59.3,15.032,63.538L7.452,70.415A2.885,2.885,0,0,0,7.2,74.422l10.317,12.01A2.869,2.869,0,0,0,19.7,87.428ZM9.208,72.356l7.619-6.912c.023-.021.046-.044.068-.066,3.757-3.944,7.133-6.339,10.625-7.538,3.667-1.266,6.472-.454,10.022.578.754.219,1.529.444,2.338.656,3.774.983,7.938.9,11.612.828.73-.015,1.446-.029,2.144-.034.75-.009,3.776.11,5.32.175A2.953,2.953,0,0,1,61.9,62.983a2.949,2.949,0,0,1-2.941,2.95H39.54A1.573,1.573,0,0,0,38.083,67.5c.138,1.03,1.59,1.129,2.393,1.057H58.958a5.57,5.57,0,0,0,5.559-5.568A5.5,5.5,0,0,0,63.639,60L72.5,51.136a3.69,3.69,0,0,1,4.9-.413,3.478,3.478,0,0,1,1.271,2.544,3.52,3.52,0,0,1-1.02,2.653L57.706,75.867a5.526,5.526,0,0,1-2.23.914h-.4s-24.571-.169-24.88.069L19.868,84.756a.263.263,0,0,1-.359-.031L9.188,72.712A.252.252,0,0,1,9.208,72.356Z" transform="translate(0 -5.925)"/><path class="b" d="M59.588,20.223A8.411,8.411,0,1,0,68,28.634,8.421,8.421,0,0,0,59.588,20.223Zm0,14.113a5.7,5.7,0,1,1,5.7-5.7A5.7,5.7,0,0,1,59.588,34.336Z" transform="translate(-6.263 -2.12)"/><path class="b" d="M76.852,16.807,75.7,14.814a4.864,4.864,0,0,0-6.644-1.781l-.719.414A16.753,16.753,0,0,0,63.751,10.8V9.971a4.87,4.87,0,0,0-4.865-4.865h-2.3A4.87,4.87,0,0,0,51.72,9.971V10.8a16.767,16.767,0,0,0-4.593,2.654l-.712-.42a4.864,4.864,0,0,0-6.645,1.781l-1.15,1.993A4.87,4.87,0,0,0,40.4,23.453l.709.409a16.615,16.615,0,0,0,0,5.307l-.709.409a4.871,4.871,0,0,0-1.781,6.644l1.15,1.993A4.864,4.864,0,0,0,46.415,40l.719-.414a16.775,16.775,0,0,0,4.587,2.649v.828a4.87,4.87,0,0,0,4.865,4.865h2.3a4.87,4.87,0,0,0,4.865-4.865v-.828a16.768,16.768,0,0,0,4.593-2.654l.712.42A4.864,4.864,0,0,0,75.7,38.215l1.15-1.993a4.869,4.869,0,0,0-1.781-6.644l-.709-.409a16.615,16.615,0,0,0,0-5.307l.709-.409A4.87,4.87,0,0,0,76.852,16.807Zm-3.135,4.3-.751.434a2.617,2.617,0,0,0-1.288,2.69,13.9,13.9,0,0,1,0,4.571,2.617,2.617,0,0,0,1.288,2.69l.751.434a2.155,2.155,0,0,1,.789,2.944l-1.15,1.993a2.155,2.155,0,0,1-2.945.789l-.76-.438a2.658,2.658,0,0,0-1.328-.357,2.587,2.587,0,0,0-1.643.585,14.075,14.075,0,0,1-3.962,2.287,2.616,2.616,0,0,0-1.676,2.457v.875a2.156,2.156,0,0,1-2.155,2.155h-2.3A2.156,2.156,0,0,1,54.43,43.06v-.877a2.616,2.616,0,0,0-1.676-2.457,14.076,14.076,0,0,1-3.962-2.287,2.587,2.587,0,0,0-1.643-.585,2.657,2.657,0,0,0-1.328.357l-.76.438a2.154,2.154,0,0,1-2.944-.789l-1.15-1.993a2.155,2.155,0,0,1,.789-2.944l.751-.434a2.617,2.617,0,0,0,1.288-2.69,13.9,13.9,0,0,1,0-4.571,2.617,2.617,0,0,0-1.288-2.69l-.751-.434a2.155,2.155,0,0,1-.789-2.944l1.15-1.993a2.155,2.155,0,0,1,2.945-.789l.76.438a2.658,2.658,0,0,0,1.328.357,2.586,2.586,0,0,0,1.643-.585A14.1,14.1,0,0,1,52.755,13.3a2.616,2.616,0,0,0,1.676-2.457V9.969a2.156,2.156,0,0,1,2.155-2.155h2.3a2.156,2.156,0,0,1,2.155,2.155v.875A2.616,2.616,0,0,0,62.719,13.3a14.076,14.076,0,0,1,3.962,2.287,2.587,2.587,0,0,0,1.643.585,2.658,2.658,0,0,0,1.328-.357l.76-.438a2.154,2.154,0,0,1,2.944.789l1.15,1.993A2.158,2.158,0,0,1,73.717,21.106Z" transform="translate(-4.411 0)"/></g></g></svg>