<svg xmlns="http://www.w3.org/2000/svg" xmlns:xlink="http://www.w3.org/1999/xlink" width="138" height="138" viewBox="0 0 138 138"><defs><style>.a{fill:#fa7e3e;}.b{fill:#fff;}.c{filter:url(#a);}</style><filter id="a" x="0" y="0" width="138" height="138" filterUnits="userSpaceOnUse"><feOffset dy="3" input="SourceAlpha"/><feGaussianBlur stdDeviation="3" result="b"/><feFlood flood-opacity="0.161"/><feComposite operator="in" in2="b"/><feComposite in="SourceGraphic"/></filter></defs><g transform="translate(-41 -2410)"><g class="c" transform="matrix(1, 0, 0, 1, 41, 2410)"><rect class="a" width="120" height="120" rx="10" transform="translate(9 6)"/></g><path class="b" d="M40.955,1.883l8.032,5.536a.365.365,0,0,1,0,.624l-8.032,5.536a.408.408,0,0,1-.624-.312V10.3A29.085,29.085,0,0,0,11.246,39.389H6.1A34.277,34.277,0,0,1,40.332,5.158V2.195A.408.408,0,0,1,40.955,1.883ZM74.563,39.389H69.495A29.085,29.085,0,0,1,40.41,68.475V65.512c0-.312-.39-.546-.624-.312l-8.032,5.536a.365.365,0,0,0,0,.624L39.786,76.9a.408.408,0,0,0,.624-.312V73.621A34.261,34.261,0,0,0,74.563,39.389ZM37.6,17.244a2.513,2.513,0,0,0-2.5,2.5v7.252h2.885V20.129H57.72v26.2H48.129v2.885h9.9a2.463,2.463,0,0,0,2.5-2.5v-26.9a2.513,2.513,0,0,0-2.5-2.5H37.6Zm0,0,16.453,23H48.129v2.885h5.926a1.466,1.466,0,0,0,1.482-1.4,1.532,1.532,0,0,0-1.482-1.482Zm0,0-5.926-2.729h6.16a1.466,1.466,0,0,0,1.482-1.4,1.417,1.417,0,0,0-1.482-1.4H46.648l1.482,1.482v1.326Zm0,0,6.16-8.421H41.5a.584.584,0,0,0-.39.078L44,31.982H54.289a1.466,1.466,0,0,0,1.482-1.4A1.593,1.593,0,0,0,54.289,29.1Zm0,0,0-5.536H41.5a1.466,1.466,0,0,0-1.482,1.4,1.417,1.417,0,0,0,1.482,1.4H54.289a1.4,1.4,0,1,0,0-2.807Zm0,0M23.1,29.33a2.463,2.463,0,0,0-2.5,2.5V58.884a2.513,2.513,0,0,0,2.5,2.5h20.43a2.463,2.463,0,0,0,2.5-2.5V39.545A4.6,4.6,0,0,0,44.7,36.27l-5.536-5.536a4.853,4.853,0,0,0-3.353-1.4H23.1Zm.312,29.241v-26.2H35.653V37.83A1.864,1.864,0,0,0,37.525,39.7h5.614V58.65H23.411Zm17.7-21.755h-2.5v-2.5l2.5,2.5Zm0,0M26.92,38.532h4.055a1.466,1.466,0,0,0,1.482-1.4,1.417,1.417,0,0,0-1.482-1.4H27a1.466,1.466,0,0,0-1.482,1.4,1.45,1.45,0,0,0,1.4,1.4Zm0,0,12.788,2.651H26.92a1.466,1.466,0,0,0-1.482,1.4,1.417,1.417,0,0,0,1.482,1.4H39.63a1.466,1.466,0,0,0,1.482-1.4,1.4,1.4,0,0,0-1.4-1.4Zm0,0,0,5.38H26.92a1.562,1.562,0,0,0,0,3.119H39.63a1.55,1.55,0,0,0,1.482-1.56,1.487,1.487,0,0,0-1.4-1.56Zm0,0,0,5.536H26.92a1.466,1.466,0,0,0-1.482,1.4,1.417,1.417,0,0,0,1.482,1.4H39.63a1.466,1.466,0,0,0,1.482-1.4,1.4,1.4,0,0,0-1.4-1.4Zm0,0" transform="translate(69.738 2436.611)"/></g></svg>