<svg xmlns="http://www.w3.org/2000/svg" width="66.754" height="66.754" viewBox="0 0 66.754 66.754"><defs><style>.a{fill:#fa7e3e;}</style></defs><g transform="translate(-1 -1)"><path class="a" d="M59,50.527a8.613,8.613,0,0,0-7.448,4.307H44.993A27.993,27.993,0,1,0,6.261,27.917h-3.4l7.682,9.219,7.682-9.219H14.883A19.381,19.381,0,1,1,34.234,48.374H22.391v12.92H50.668A8.609,8.609,0,1,0,59,50.527Zm-24.764,0A21.534,21.534,0,1,0,12.7,28.994V30.07h.931l-3.085,3.7-3.085-3.7h.931V28.994a25.84,25.84,0,1,1,25.84,25.84h-9.69V50.527Zm-9.69,8.613V56.988H50.668a8.562,8.562,0,0,0-.283,2.153ZM59,65.6a6.46,6.46,0,1,1,6.46-6.46A6.467,6.467,0,0,1,59,65.6Z" transform="translate(0.143)"/><path class="a" d="M58.83,52.293l-4.622,4.622-1.392-1.392-1.522,1.522,2.915,2.915,6.145-6.145Z" transform="translate(3.857 3.933)"/><path class="a" d="M17.15,37H4.23A3.234,3.234,0,0,0,1,40.23V61.764a3.234,3.234,0,0,0,3.23,3.23H17.15a3.234,3.234,0,0,0,3.23-3.23V40.23A3.234,3.234,0,0,0,17.15,37Zm1.077,24.764A1.078,1.078,0,0,1,17.15,62.84H4.23a1.078,1.078,0,0,1-1.077-1.077V40.23A1.078,1.078,0,0,1,4.23,39.153H17.15a1.078,1.078,0,0,1,1.077,1.077Z" transform="translate(0 2.761)"/><path class="a" d="M33.537,35.074A7.537,7.537,0,1,0,26,27.537,7.545,7.545,0,0,0,33.537,35.074Zm0-12.92a5.383,5.383,0,1,1-5.383,5.383A5.39,5.39,0,0,1,33.537,22.153Z" transform="translate(1.917 1.457)"/><path class="a" d="M20,32.068l2.6.649-1.379,2.3,5.757,5.756,2.3-1.379.649,2.6h8.142l.649-2.6,2.3,1.379,5.757-5.756-1.379-2.3,2.6-.649V23.926l-2.6-.649,1.379-2.3-5.757-5.757-2.3,1.379L38.068,14H29.926l-.649,2.6-2.3-1.379-5.757,5.757,1.379,2.3-2.6.649Zm2.153-6.46,2.634-.658.54-1.316-1.4-2.323,3.379-3.379,2.323,1.4,1.316-.54.658-2.634h4.778l.658,2.634,1.316.54,2.323-1.4,3.379,3.379-1.4,2.323.54,1.316,2.634.658v4.778l-2.1.524-.575.222-.5,1.225,1.4,2.326-3.379,3.38-2.323-1.4-1.314.534-.659,2.639H31.608l-.524-2.1-.219-.576-1.23-.5-2.323,1.4-3.379-3.38,1.4-2.326-.542-1.314-2.634-.657Z" transform="translate(1.457 0.997)"/><path class="a" d="M33.23,30.46A3.23,3.23,0,1,0,30,27.23,3.234,3.234,0,0,0,33.23,30.46Zm0-4.307a1.077,1.077,0,1,1-1.077,1.077A1.078,1.078,0,0,1,33.23,26.153Z" transform="translate(2.224 1.764)"/><path class="a" d="M5,41H15.767v2.153H5Z" transform="translate(0.307 3.067)"/><path class="a" d="M5,45H15.767v2.153H5Z" transform="translate(0.307 3.374)"/><path class="a" d="M5,49H15.767v2.153H5Z" transform="translate(0.307 3.681)"/><path class="a" d="M5,53H15.767v2.153H5Z" transform="translate(0.307 3.988)"/><path class="a" d="M13,57h2.153v2.153H13Z" transform="translate(0.92 4.294)"/><path class="a" d="M9,57h2.153v2.153H9Z" transform="translate(0.613 4.294)"/><path class="a" d="M5,57H7.153v2.153H5Z" transform="translate(0.307 4.294)"/></g></svg>