<svg xmlns="http://www.w3.org/2000/svg" width="66.878" height="69.823" viewBox="0 0 66.878 69.823"><defs><style>.a{fill:#fa7e3e;}</style></defs><g transform="translate(0.002 0)"><path class="a" d="M369.23,165.819h3.491a1.164,1.164,0,0,0,1.164-1.164v-3.491a1.164,1.164,0,0,0-2.327,0v2.327H369.23a1.164,1.164,0,1,0,0,2.327Zm0,0" transform="translate(-314.527 -136.725)"/><path class="a" d="M160.514,113.31a4.655,4.655,0,1,0-4.655-4.655A4.655,4.655,0,0,0,160.514,113.31Zm0-6.982a2.327,2.327,0,1,1-2.327,2.327A2.328,2.328,0,0,1,160.514,106.327Zm0,0" transform="translate(-133.189 -88.871)"/><path class="a" d="M1.9,24.052A3.473,3.473,0,0,0,6.781,22.1l9.152-.141-1.6,1.319a1.163,1.163,0,0,0-.269,1.48l2.175,3.756.048,5.237H10.481a1.025,1.025,0,0,0-.2.041,3.491,3.491,0,1,0,0,2.246,1.025,1.025,0,0,0,.2.041h6.982A1.164,1.164,0,0,0,18.627,34.9L18.574,29l3.724-1.4q.379.245.769.449l.785,4.718A1.164,1.164,0,0,0,25,33.746h.609v5.819H22.119a1.164,1.164,0,0,0-1.164,1.164V57.7L10.822,67.837a1.164,1.164,0,0,0,.823,1.986H48.884a1.164,1.164,0,0,0,.823-1.986L41.9,60.032V53.853l2.605-4.339c4.4,2.652,7.053,4.017,7.868,4.017h6.982a1.164,1.164,0,0,0,1.164-1.164v-6.5l1.985-1.985a1.175,1.175,0,0,0,.342-.824V39.567h1.7a2.328,2.328,0,0,0,2.127-3.272l-3.618-8.146a9.044,9.044,0,0,0,2.118-5.838A20.2,20.2,0,0,0,53.946,4.14L50.571,2.45a1.163,1.163,0,0,0-1.466.365l-.488.676h-7.88V1.164A1.164,1.164,0,0,0,39.574,0H27.937a1.164,1.164,0,0,0-1.164,1.164V5.819H25a1.164,1.164,0,0,0-1.149.973l-.785,4.717c-.26.136-.517.285-.769.449l-4.482-1.679a1.163,1.163,0,0,0-1.416.507l-1.173,2.033c-.03,0-.055-.018-.085-.018H8.154V9.1a3.491,3.491,0,1,0-2.327,0v4.869A1.164,1.164,0,0,0,6.99,15.129h6.965a1.152,1.152,0,0,0,.381,1.164l3.691,3.039c0,.085,0,.172-.007.259l-11.244.173A3.491,3.491,0,1,0,1.9,24.052ZM6.99,36.075a1.164,1.164,0,1,1,1.164-1.164A1.164,1.164,0,0,1,6.99,36.075Zm0-31.42A1.164,1.164,0,1,1,5.827,5.819,1.164,1.164,0,0,1,6.99,4.655ZM27.937,33.748h1.715a1.163,1.163,0,0,0,1.147-.972l.786-4.718c.259-.135.516-.285.768-.449l4.484,1.679a1.163,1.163,0,0,0,1.416-.507l.493-.852h5.482a1.064,1.064,0,0,0,.252-.051l2.075,2.766v1.94H41.9v2.327h2.685L41.47,36.158a1.164,1.164,0,0,0-.732,1.081v2.327h-12.8ZM40.582,14.817l-.491-.852h2.975V18.62H37.492l2.822-2.327a1.163,1.163,0,0,0,.268-1.476Zm2.484,6.131V25.6H40.091l.491-.852a1.163,1.163,0,0,0-.268-1.476l-2.822-2.327ZM35.26,49.7l4.314,4.314v.682H32.592v-12.8h2.327v6.982a1.164,1.164,0,0,0,.341.823ZM27.884,65.168h.053v-.06L32.3,60.117a1.165,1.165,0,0,0,.288-.767V57.022h2.327V67.5H25.842ZM14.454,67.5l8.487-8.487a1.164,1.164,0,0,0,.341-.823V41.894h6.982V58.912l-2.327,2.66V55.858H25.61v8.379L22.754,67.5Zm31.62,0H37.247V57.022h2.327v3.491a1.164,1.164,0,0,0,.341.823Zm-5.57-15.84L37.247,48.4v-6.5h3.491v4.655a1.165,1.165,0,0,0,.547.987c.434.272.826.512,1.236.764ZM50.417,4.976,52.9,6.222A17.889,17.889,0,0,1,62.849,22.31a6.739,6.739,0,0,1-1.987,4.8,1.163,1.163,0,0,0-.241,1.295l3.928,8.838H61.685A1.164,1.164,0,0,0,60.521,38.4v3.491h-.2a6.735,6.735,0,0,1-4.8-1.987,1.164,1.164,0,0,0-1.646,1.646,9.021,9.021,0,0,0,5.1,2.56l-.449.449a1.164,1.164,0,0,0-.341.823V51.2l-5.708.007a61.869,61.869,0,0,1-7.768-4.294l-.006-.006H44.7c-.548-.333-1.1-.67-1.639-1.007V38.027l5.087-2.034a1.164,1.164,0,0,0,.732-1.081V30.257a1.165,1.165,0,0,0-.233-.7l-3.258-4.344V12.01ZM29.1,2.328h9.31V4.655a1.164,1.164,0,0,0,1.164,1.164h7.381l-3.672,5.142a1.152,1.152,0,0,0-.218.676H38.747l-.493-.852a1.163,1.163,0,0,0-1.416-.507l-4.479,1.679c-.252-.164-.51-.314-.768-.449L30.8,6.791a1.163,1.163,0,0,0-1.147-.972H29.1Zm-12.525,12.8L17.917,12.8,22.05,14.35a1.164,1.164,0,0,0,1.1-.157,6.982,6.982,0,0,1,1.417-.826,1.163,1.163,0,0,0,.689-.878l.724-4.342h2.684l.724,4.343a1.163,1.163,0,0,0,.689.878,7.051,7.051,0,0,1,1.417.826,1.162,1.162,0,0,0,1.1.157l4.134-1.55,1.34,2.327-3.4,2.8a1.164,1.164,0,0,0-.415,1.036,6.261,6.261,0,0,1,0,1.636,1.165,1.165,0,0,0,.415,1.037l3.4,2.8-1.34,2.327L32.6,25.217a1.162,1.162,0,0,0-1.1.157,7.051,7.051,0,0,1-1.417.826,1.163,1.163,0,0,0-.689.878l-.724,4.342H25.982l-.722-4.343a1.163,1.163,0,0,0-.689-.878,6.962,6.962,0,0,1-1.416-.826,1.163,1.163,0,0,0-1.1-.157l-4.134,1.55-1.342-2.327,3.4-2.8c.02-.02.04-.041.059-.064a.9.9,0,0,0,.064-.068,1.133,1.133,0,0,0,.209-.321l.007-.013a1.151,1.151,0,0,0,.074-.4.385.385,0,0,0,.009-.05c0-.014-.007-.026-.008-.04s0-.053,0-.08a6.261,6.261,0,0,1,0-1.636,1.166,1.166,0,0,0-.417-1.037ZM2.464,20.415a1.15,1.15,0,0,1,.68-.582,1.164,1.164,0,0,1,.713,2.211,1.159,1.159,0,0,1-1.392-1.629Zm0,0"/><path class="a" d="M176.066,320h2.327v2.327h-2.327Zm0,0" transform="translate(-150.456 -273.451)"/><path class="a" d="M176.066,352h2.327v2.327h-2.327Zm0,0" transform="translate(-150.456 -300.796)"/><path class="a" d="M224.066,224h2.327v2.327h-2.327Zm0,0" transform="translate(-191.474 -191.416)"/><path class="a" d="M256.066,224h2.327v2.327h-2.327Zm0,0" transform="translate(-218.819 -191.416)"/><path class="a" d="M328.066,80h2.327v4.655h-2.327Zm0,0" transform="translate(-280.346 -68.363)"/><path class="a" d="M328.066,128h2.327v2.327h-2.327Zm0,0" transform="translate(-280.346 -109.38)"/><path class="a" d="M328.066,160h2.327v2.327h-2.327Zm0,0" transform="translate(-280.346 -136.725)"/></g></svg>