<svg xmlns="http://www.w3.org/2000/svg" width="69.588" height="69.604" viewBox="0 0 69.588 69.604"><defs><style>.a{fill:none;stroke:#fa7e3e;stroke-miterlimit:10;stroke-width:2px;}</style></defs><g transform="translate(1 1.017)"><g transform="translate(0 0.003)"><path class="a" d="M57.691,31.886q-.159.178-.329.348a9.342,9.342,0,0,1-2.982,2.024,1.207,1.207,0,0,1-.945-2.222,7.043,7.043,0,0,0-1.2-13.335,1.205,1.205,0,0,1-.906-1.457c.037-.154.07-.31.1-.469s.055-.331.074-.5.035-.333.046-.5.015-.338.015-.51a9.1,9.1,0,0,0-2.641-6.429,8.942,8.942,0,0,0-7.308-2.61,8.8,8.8,0,0,0-2.633.7,1.208,1.208,0,0,1-1.526-.486A13.446,13.446,0,0,0,35.4,3.807a13.121,13.121,0,0,0-2.632-2.034,12.88,12.88,0,0,0-3.1-1.31,13.148,13.148,0,0,0-8.55.572,13,13,0,0,0-4.157,2.826A13.21,13.21,0,0,0,13.132,13.2q0,.512.036,1.014c.025.334.061.666.111.992s.109.651.179.967.153.626.247.934a1.206,1.206,0,0,1-.942,1.541,6.932,6.932,0,0,0-2.278.839A7.045,7.045,0,0,0,9.043,30.534a6.919,6.919,0,0,0,4.921,2.052h.713a1.981,1.981,0,0,0,1.979-1.979A16.265,16.265,0,0,1,21.21,19.282a15.339,15.339,0,0,1,11.136-4.8h.006A15.711,15.711,0,0,1,48.036,30.165a15.34,15.34,0,0,1-4.8,11.143,16.267,16.267,0,0,1-11.322,4.554H30.432l1.561,1.561a1.207,1.207,0,1,1-1.707,1.707l-3.621-3.621c-.011-.011-.014-.026-.024-.037a1.185,1.185,0,0,1-.237-.354v0c0-.01,0-.021-.008-.032a1.19,1.19,0,0,1-.074-.381,1.139,1.139,0,0,1,.006-.122,1.176,1.176,0,0,1,.058-.3,1.139,1.139,0,0,1,.042-.118,1.192,1.192,0,0,1,.238-.358l3.621-3.621a1.207,1.207,0,0,1,1.707,1.707l-1.56,1.561h1.483a13.862,13.862,0,0,0,9.649-3.881,12.946,12.946,0,0,0,4.058-9.4A13.294,13.294,0,0,0,32.352,16.9h-.006a12.946,12.946,0,0,0-9.395,4.058A13.858,13.858,0,0,0,19.07,30.6,4.4,4.4,0,0,1,14.677,35h-.713a9.328,9.328,0,0,1-6.635-2.766c-.113-.114-.223-.23-.329-.349V51.9H57.691Z" transform="translate(1.448 -0.003)"/><path class="a" d="M59.539,45H7.616L1.045,53.448H66.11Zm-50.1,6.035H8.232a1.207,1.207,0,1,1,0-2.414H9.439a1.207,1.207,0,1,1,0,2.414Zm43.449,0H14.267a1.207,1.207,0,1,1,0-2.414H52.888a1.207,1.207,0,0,1,0,2.414Zm6.035,0H57.716a1.207,1.207,0,1,1,0-2.414h1.207a1.207,1.207,0,0,1,0,2.414Z" transform="translate(0.216 9.308)"/><path class="a" d="M0,54v1.207a1.208,1.208,0,0,0,1.207,1.207H66.381a1.208,1.208,0,0,0,1.207-1.207V54Z" transform="translate(0 11.17)"/></g></g></svg>