<svg xmlns="http://www.w3.org/2000/svg" width="144" height="91.104" viewBox="0 0 144 91.104"><defs><style>.a,.b{fill:none;stroke-linecap:round;stroke-linejoin:round;stroke-miterlimit:10;}.a,.b,.c{stroke:#fa7e3e;}.a{stroke-width:0.75px;}.b{stroke-width:1.25px;}.c,.d{fill:#fa7e3e;}.c{font-size:12px;font-family:Raleway-Light, Raleway;font-weight:300;}</style></defs><g transform="translate(-205 -1633.375)"><g transform="translate(216.64 1634)"><path class="a" d="M60,28.931a9.779,9.779,0,0,0,7.048-2.994A9.779,9.779,0,0,1,60,28.931Z" transform="translate(-31.819 -16.955)"/><path class="a" d="M60,48.75a9.614,9.614,0,0,1,6.684,16.533A9.614,9.614,0,0,0,60,48.75Z" transform="translate(-31.819 -26.91)"/><rect class="b" width="28.181" height="8.455" transform="translate(0 9.862)"/><rect class="a" width="7.045" height="1.69" transform="translate(2.114 11.977)"/><rect class="a" width="2.113" height="1.127" transform="translate(2.114 15.076)"/><circle class="a" cx="0.564" cy="0.564" r="0.564" transform="translate(24.939 15.076)"/><circle class="a" cx="0.564" cy="0.564" r="0.564" transform="translate(22.685 15.076)"/><circle class="a" cx="0.564" cy="0.564" r="0.564" transform="translate(20.43 15.076)"/><rect class="a" width="1.691" height="1.69" transform="translate(10.568 11.977)"/><rect class="a" width="6.764" height="1.69" transform="translate(12.259 11.977)"/><rect class="a" width="1.691" height="1.69" transform="translate(24.376 11.977)"/><rect class="a" width="8.454" height="1.127" transform="translate(10.568 15.076)"/><rect class="a" width="7.045" height="1.691" transform="translate(2.114 22.543)"/><rect class="a" width="2.113" height="1.127" transform="translate(2.114 25.644)"/><rect class="a" width="1.691" height="1.691" transform="translate(10.568 22.543)"/><rect class="a" width="6.764" height="1.691" transform="translate(12.259 22.543)"/><rect class="a" width="1.691" height="1.691" transform="translate(24.376 22.543)"/><rect class="a" width="8.454" height="1.127" transform="translate(10.568 25.644)"/><rect class="b" width="25.363" height="2.113" transform="translate(1.41 18.318)"/><rect class="a" width="7.045" height="1.69" transform="translate(2.114 33.111)"/><rect class="a" width="2.113" height="1.128" transform="translate(2.114 36.211)"/><rect class="a" width="1.691" height="1.69" transform="translate(10.568 33.111)"/><path class="b" d="M65,17.988a5.616,5.616,0,0,1,.636-2.6A5.618,5.618,0,0,0,65,17.988Z" transform="translate(-34.001 -12.353)"/><path class="b" d="M83.469,22.571a5.975,5.975,0,0,1-.282.821,5.64,5.64,0,0,1-1.243,1.779,5.646,5.646,0,0,0,1.243-1.779A5.827,5.827,0,0,0,83.469,22.571Z" transform="translate(-41.396 -15.486)"/><path class="b" d="M38.931,74.726a4.929,4.929,0,0,1-.709-9.807,7.765,7.765,0,0,1-.277-2.028,7.888,7.888,0,0,1,14.889-3.636,5.906,5.906,0,0,1,7.8,5.607,4.932,4.932,0,1,1,0,9.864Z" transform="translate(-20.473 -29.638)"/><path class="b" d="M68.31,66.186a7.843,7.843,0,0,0-.893-3.636A7.843,7.843,0,0,1,68.31,66.186Z" transform="translate(-35.057 -32.933)"/><path class="b" d="M41.491,72.6a7.673,7.673,0,0,0,.395,1.149,7.878,7.878,0,0,0,1.738,2.491,7.878,7.878,0,0,1-1.738-2.491A7.694,7.694,0,0,1,41.491,72.6Z" transform="translate(-23.743 -37.318)"/><path class="b" d="M69.583,17.085a5.572,5.572,0,0,0,.2-1.45,5.636,5.636,0,0,0-10.637-2.6,4.218,4.218,0,0,0-5.567,4.006,3.525,3.525,0,0,0-3.452,2.817h5.566V24.09H69.076a3.52,3.52,0,0,0,.507-7Z" transform="translate(-27.51 -10)"/><path class="b" d="M38.931,74.726a4.929,4.929,0,0,1-.709-9.807,7.765,7.765,0,0,1-.277-2.028,7.888,7.888,0,0,1,14.889-3.636,5.906,5.906,0,0,1,7.8,5.607,4.932,4.932,0,1,1,0,9.864Z" transform="translate(-20.473 -29.638)"/><path class="a" d="M33.71,74.249H28.752v1.128h3.865A4.9,4.9,0,0,1,33.71,74.249Z" transform="translate(-18.183 -38.038)"/><path class="a" d="M36.964,68.891c0-.048.006-.095.008-.142H31.753v1.69h5.39A7.5,7.5,0,0,1,36.964,68.891Z" transform="translate(-19.493 -35.638)"/><path class="b" d="M24.617,80.7a4.959,4.959,0,0,1,.064-.7H12.5v5.635h1.407l1.41-2.817H25.11A4.895,4.895,0,0,1,24.617,80.7Z" transform="translate(-11.091 -40.548)"/><path class="b" d="M27.748,69.282a7.765,7.765,0,0,1-.277-2.028A7.859,7.859,0,0,1,27.8,65H10v8.454H23.59A4.923,4.923,0,0,1,27.748,69.282Z" transform="translate(-10 -34.001)"/><path class="b" d="M29.883,61.25H12.5v2.114H28.894A7.87,7.87,0,0,1,29.883,61.25Z" transform="translate(-11.091 -32.365)"/><path class="b" d="M35.362,51.182a7.811,7.811,0,0,1,2.819.538V46.25H10V54.7H28.792A7.886,7.886,0,0,1,35.362,51.182Z" transform="translate(-10 -25.819)"/><path class="a" d="M72.682,25.146l1.243-2.74-2.737,1.246Z" transform="translate(-36.702 -15.414)"/><path class="a" d="M69.571,76.757,68.327,79.5l2.738-1.246Z" transform="translate(-35.454 -39.133)"/></g><text class="c" transform="translate(206 1680)"><tspan x="6.534" y="11">IaaS</tspan></text><text class="c" transform="translate(312 1673)"><tspan x="4.296" y="11">SaaS</tspan></text><g transform="translate(271.147 1638.477)"><g transform="translate(0 0)"><path class="d" d="M49.914,21.209a9.984,9.984,0,0,0-3.6.658,7.853,7.853,0,0,0-8.7-2.148A14.43,14.43,0,0,0,9.671,21.936,10.17,10.17,0,0,0,13.43,41.559h4.226v1.853a.672.672,0,0,0,.56.662l2.951.5a10.957,10.957,0,0,0,.477,1.147L19.9,48.162a.671.671,0,0,0,.073.865l3.572,3.564a.67.67,0,0,0,.865.071l2.436-1.742A11.462,11.462,0,0,0,28,51.4l.489,2.949a.671.671,0,0,0,.662.562H34.2a.672.672,0,0,0,.662-.56l.5-2.951a11.4,11.4,0,0,0,1.145-.478l2.435,1.742a.67.67,0,0,0,.865-.071l3.573-3.564a.671.671,0,0,0,.073-.865l-1.742-2.443a11.154,11.154,0,0,0,.477-1.147l2.959-.5a.672.672,0,0,0,.56-.662V41.559h4.208a10.175,10.175,0,1,0,0-20.351ZM44.363,42.844l-2.8.47a.671.671,0,0,0-.529.461,9.672,9.672,0,0,1-.7,1.683.672.672,0,0,0,.044.709l1.649,2.312-2.767,2.76-2.3-1.648a.668.668,0,0,0-.706-.047,10,10,0,0,1-1.686.7.671.671,0,0,0-.461.529l-.47,2.788H29.721l-.462-2.787a.67.67,0,0,0-.461-.531,10.042,10.042,0,0,1-1.695-.7.669.669,0,0,0-.706.047l-2.3,1.648-2.767-2.76,1.649-2.312a.672.672,0,0,0,.044-.709,9.627,9.627,0,0,1-.7-1.682.672.672,0,0,0-.529-.461L19,42.845v-3.9l2.789-.47a.671.671,0,0,0,.529-.461,10.031,10.031,0,0,1,.7-1.694.671.671,0,0,0-.047-.706l-1.647-2.3,2.766-2.759,2.3,1.648a.667.667,0,0,0,.713.043,8.729,8.729,0,0,1,1.679-.7.67.67,0,0,0,.47-.534l.462-2.8h3.912l.47,2.8a.671.671,0,0,0,.47.532,8.7,8.7,0,0,1,1.67.7.671.671,0,0,0,.713-.043l2.3-1.648,2.766,2.759-1.647,2.3a.671.671,0,0,0-.047.706,10.066,10.066,0,0,1,.7,1.694.672.672,0,0,0,.529.461l2.8.47C44.363,39.029,44.363,42.977,44.363,42.844Zm5.551-2.628H45.706V38.372a.672.672,0,0,0-.56-.662l-2.96-.5a11.413,11.413,0,0,0-.479-1.153l1.742-2.436a.671.671,0,0,0-.072-.866l-3.573-3.563a.672.672,0,0,0-.865-.07l-2.432,1.739a10.05,10.05,0,0,0-1.149-.48l-.5-2.955a.672.672,0,0,0-.662-.56h-5.05a.671.671,0,0,0-.662.562L28,30.382a10.084,10.084,0,0,0-1.157.48l-2.432-1.739a.671.671,0,0,0-.865.071l-3.572,3.563a.671.671,0,0,0-.072.866l1.742,2.436a11.343,11.343,0,0,0-.479,1.153l-2.951.5a.672.672,0,0,0-.56.662v1.844H13.43A8.827,8.827,0,0,1,10.5,23.06a.671.671,0,0,0,.445-.546,13.086,13.086,0,0,1,25.6-1.694.672.672,0,0,0,.957.421,6.5,6.5,0,0,1,8.077,1.846.671.671,0,0,0,.806.2,8.6,8.6,0,0,1,3.531-.738,8.832,8.832,0,1,1,0,17.665Z" transform="translate(-3.25 -9.82)"/><path class="d" d="M34.188,36.73A6.977,6.977,0,1,0,41.168,43.7,6.985,6.985,0,0,0,34.188,36.73Zm0,12.612A5.634,5.634,0,1,1,39.825,43.7,5.644,5.644,0,0,1,34.188,49.342Z" transform="translate(-5.758 -12.637)"/></g></g><text class="c" transform="translate(290 1703)"><tspan x="2.73" y="11">PaaS</tspan></text><g transform="translate(247.024 1678.766)"><path class="b" d="M40,25.978a11.21,11.21,0,0,1,1.274-5.194A11.21,11.21,0,0,0,40,25.978Z" transform="translate(-23.091 -14.706)"/><path class="b" d="M76.934,35.142a11.65,11.65,0,0,1-.563,1.642,11.313,11.313,0,0,1-2.483,3.558,11.3,11.3,0,0,0,2.483-3.558A11.625,11.625,0,0,0,76.934,35.142Z" transform="translate(-37.881 -20.972)"/><path class="b" d="M22.5,35a7,7,0,0,1,2.837.6A7,7,0,0,0,22.5,35Z" transform="translate(-15.455 -20.91)"/><path class="b" d="M40.79,57.091l-1.229-.526a2.119,2.119,0,0,1-.9-3.366l.8-1.068c.5-.659.229-1.118-.588-1.02l-1.326.16a2.111,2.111,0,0,1-2.46-2.459l.161-1.328c.1-.817-.361-1.083-1.022-.59l-1.069.8a2.116,2.116,0,0,1-3.364-.9l-.526-1.228c-.324-.757-.854-.757-1.178,0L27.561,46.8a2.117,2.117,0,0,1-3.364.9l-1.068-.8c-.66-.494-1.12-.228-1.022.59l.161,1.328a2.113,2.113,0,0,1-2.46,2.46l-1.328-.16c-.817-.1-1.083.36-.588,1.02l.8,1.069a2.117,2.117,0,0,1-.9,3.365l-1.227.525c-.757.324-.757.857,0,1.181l1.227.524a2.117,2.117,0,0,1,.9,3.365l-.8,1.068c-.495.66-.229,1.119.588,1.021l1.328-.16a2.112,2.112,0,0,1,2.46,2.46l-.161,1.328c-.1.818.362,1.084,1.02.59l1.07-.8a2.116,2.116,0,0,1,3.364.9l.526,1.227c.324.757.854.757,1.178,0l.526-1.227a2.116,2.116,0,0,1,3.364-.9l1.069.8c.661.494,1.118.228,1.02-.59l-.159-1.328a2.111,2.111,0,0,1,2.458-2.46l1.328.161c.819.1,1.084-.362.591-1.022l-.8-1.068a2.115,2.115,0,0,1,.9-3.363l1.229-.526C41.547,57.948,41.547,57.415,40.79,57.091ZM28.677,61.908A4.227,4.227,0,1,1,32.9,57.681,4.226,4.226,0,0,1,28.677,61.908Z" transform="translate(-12.617 -25.274)"/><path class="a" d="M33.044,55a7.044,7.044,0,1,0,7.044,7.044A7.044,7.044,0,0,0,33.044,55Z" transform="translate(-16.982 -29.639)"/><path class="b" d="M36.044,37.925a2.648,2.648,0,0,0-.152.254H48.039a7.041,7.041,0,0,0,1.014-14.01A11.259,11.259,0,0,0,28.18,16.078a8.439,8.439,0,0,0-11.136,8.011A7.042,7.042,0,0,0,16.2,38.123c-.041-.065-.07-.132-.118-.2l-.8-1.069c-.495-.66-.229-1.119.588-1.02l1.328.16a2.113,2.113,0,0,0,2.46-2.46l-.161-1.328c-.1-.817.362-1.083,1.022-.59l1.068.8a2.117,2.117,0,0,0,3.364-.9l.526-1.227c.324-.757.854-.757,1.178,0l.526,1.227a2.116,2.116,0,0,0,3.363.9l1.069-.8c.661-.494,1.12-.228,1.022.59l-.161,1.328A2.111,2.111,0,0,0,34.931,36l1.326-.16c.817-.1,1.084.36.588,1.02Z" transform="translate(-10 -10)"/><path class="a" d="M75.576,69.483a1.45,1.45,0,0,1-.741-.706l-.11-.268a1.438,1.438,0,0,1,.027-1.022L75.462,66l-.575-.573-1.491.709a1.448,1.448,0,0,1-1.023.026l-.268-.112a1.435,1.435,0,0,1-.705-.742l-.552-1.553h-.811l-.555,1.556a1.43,1.43,0,0,1-.7.741l-.27.113a1.446,1.446,0,0,1-1.021-.027L66,65.425l0,0L65.421,66l.709,1.493a1.426,1.426,0,0,1,.025,1.022l-.11.269a1.443,1.443,0,0,1-.742.706l-1.553.552v0l0,.81v0l1.556.555a1.431,1.431,0,0,1,.742.7l.11.27A1.426,1.426,0,0,1,66.13,73.4l-.709,1.491.573.573h0l1.492-.708a1.444,1.444,0,0,1,1.022-.028l.27.11a1.45,1.45,0,0,1,.7.744l.553,1.554h.811l.555-1.556a1.435,1.435,0,0,1,.7-.743l.27-.111a1.437,1.437,0,0,1,1.021.027l1.49.71h0l.575-.573L74.751,73.4a1.443,1.443,0,0,1-.025-1.023l.11-.269a1.452,1.452,0,0,1,.742-.7l1.556-.552v-.815Zm-5.135,2.724A1.763,1.763,0,1,1,72.2,70.445,1.761,1.761,0,0,1,70.441,72.208Z" transform="translate(-33.456 -33.458)"/><path class="a" d="M76.339,73.171A3.17,3.17,0,1,1,73.169,70,3.17,3.17,0,0,1,76.339,73.171Z" transform="translate(-36.184 -36.184)"/></g></g></svg>