<svg xmlns="http://www.w3.org/2000/svg" width="64" height="64" viewBox="0 0 64 64"><defs><style>.a{fill:#fa7e3e;}</style></defs><g transform="translate(-1 -1)"><rect class="a" width="2.065" height="2.065" transform="translate(15.503 49.036) rotate(-45)"/><rect class="a" width="1.96" height="2.065" transform="translate(12.657 51.883) rotate(-45)"/><rect class="a" width="2.065" height="2.065" transform="translate(18.423 46.117) rotate(-45)"/><path class="a" d="M31.177,45.466l.94,3.825H42.141l.94-3.825a17.708,17.708,0,0,0,1.726-.723l3.377,2.044L55.271,39.7l-2.044-3.377A18.1,18.1,0,0,0,53.95,34.6l3.825-.94V23.633l-3.825-.94a17.839,17.839,0,0,0-.723-1.725l2.044-3.377L48.183,10.5l-3.377,2.044a17.456,17.456,0,0,0-1.726-.723L42.141,8H32.117l-.94,3.825a17.707,17.707,0,0,0-1.726.723L26.075,10.5l-7.087,7.089,2.044,3.377a18.1,18.1,0,0,0-.723,1.725l-3.825.94V33.658l3.825.94a17.84,17.84,0,0,0,.723,1.725L19.86,38.257l-4.587,4.077c-.164-.262-.34-.518-.493-.785a25.679,25.679,0,0,1-.943-23.993,4.124,4.124,0,0,0,.519.2,4.168,4.168,0,0,0,1.076.142,4.13,4.13,0,1,0-3.583-2.067,4.159,4.159,0,0,0,.319.446,27.731,27.731,0,0,0,.825,26.307c.224.387.475.763.718,1.142L3.259,53.012a6.732,6.732,0,1,0,9.5,9.5l14.758-16.6,1.931-1.17A17.584,17.584,0,0,0,31.177,45.466ZM13.43,13.226a2.066,2.066,0,1,1,.206,1.565A2.048,2.048,0,0,1,13.43,13.226ZM11.219,61.144a4.667,4.667,0,1,1-6.588-6.59L20.1,40.807l4.87,4.87ZM26.39,44.183l-4.8-4.8,1.8-2.974-.266-.514a15.893,15.893,0,0,1-1.035-2.477l-.175-.551-3.366-.83V25.252l3.365-.829.175-.551a15.851,15.851,0,0,1,1.035-2.477l.266-.514-1.8-2.974,4.8-4.8,2.975,1.8.514-.267a15.693,15.693,0,0,1,2.476-1.036l.552-.175.828-3.365h6.787l.828,3.365.552.175a15.693,15.693,0,0,1,2.476,1.036l.514.267,2.975-1.8,4.8,4.8-1.8,2.974.266.514a15.893,15.893,0,0,1,1.035,2.477l.175.551,3.366.829v6.786l-3.365.829-.175.551A15.852,15.852,0,0,1,51.134,35.9l-.266.514,1.8,2.974-4.8,4.8-2.975-1.8-.514.267A15.693,15.693,0,0,1,41.9,43.685l-.552.175-.828,3.365H33.736l-.828-3.365-.552-.175a15.693,15.693,0,0,1-2.476-1.036l-.514-.267Z" transform="translate(0 0.226)"/><path class="a" d="M37.161,37.581V35.516h3.1V31.387a4.133,4.133,0,0,0-4.129-4.129,2.067,2.067,0,0,1-2.065-2.065V23.129h2.065a2.067,2.067,0,0,1,2.065,2.065h2.065a4.125,4.125,0,0,0-3.1-3.982V19H35.1v2.065H32v4.129a4.133,4.133,0,0,0,4.129,4.129,2.067,2.067,0,0,1,2.065,2.065v2.065H36.129a2.067,2.067,0,0,1-2.065-2.065H32a4.125,4.125,0,0,0,3.1,3.982v2.211Z" transform="translate(1 0.581)"/><path class="a" d="M49.839,28.419A13.419,13.419,0,1,0,36.419,41.839,13.435,13.435,0,0,0,49.839,28.419Zm-24.774,0A11.355,11.355,0,1,1,36.419,39.774,11.368,11.368,0,0,1,25.065,28.419Z" transform="translate(0.71 0.452)"/><path class="a" d="M59.809,13.387a4.1,4.1,0,0,0-.543.055A27.74,27.74,0,0,0,36.067,1c-.717,0-1.439.027-2.144.082l.158,2.058c.652-.051,1.32-.075,1.986-.075a25.678,25.678,0,0,1,21.25,11.18,4.108,4.108,0,1,0,2.492-.858Zm0,6.194a2.065,2.065,0,1,1,2.065-2.065A2.067,2.067,0,0,1,59.809,19.581Z" transform="translate(1.062)"/><path class="a" d="M58.541,40.555A25.677,25.677,0,0,1,38.233,53.368a4.1,4.1,0,1,0-.5,2.587,4.05,4.05,0,0,0,.224-.5A27.738,27.738,0,0,0,60.329,41.587c.358-.622.7-1.259,1-1.9L59.469,38.8C59.186,39.387,58.875,39.978,58.541,40.555Zm-22.6,14.368a2.065,2.065,0,1,1-1.784-3.1,2.043,2.043,0,0,1,1.028.277A2.069,2.069,0,0,1,35.944,54.923Z" transform="translate(0.936 1.219)"/></g></svg>