<svg xmlns="http://www.w3.org/2000/svg" xmlns:xlink="http://www.w3.org/1999/xlink" width="1254.833" height="238.222" viewBox="0 0 1254.833 238.222"><defs><style>.a{fill:#fff;}.b{fill:url(#a);}.c{fill:url(#b);}.d{fill:url(#c);}</style><linearGradient id="a" x1="0.812" y1="0.5" x2="0.176" y2="0.5" gradientUnits="objectBoundingBox"><stop offset="0" stop-color="#f6642b"/><stop offset="1" stop-color="#cc4b5e"/></linearGradient><linearGradient id="b" x1="0.042" y1="0.5" x2="0.635" y2="0.5" xlink:href="#a"/><linearGradient id="c" x1="0.644" y1="0.5" x2="0.087" y2="0.5" xlink:href="#a"/></defs><g transform="translate(-56 -903.911)"><path class="a" d="M729.094,230.7H607.3l-60.9,105.476,60.9,105.475H729.094l60.9-105.475Z" transform="translate(258 685.456)"/><path class="b" d="M725.764,427.949a13.288,13.288,0,0,1-11.508,6.644H622.774a13.29,13.29,0,0,1-11.508-6.644l-32.325-55.994a13.29,13.29,0,0,0-23.035.03L555.9,372a13.291,13.291,0,0,0,.018,13.259l39.994,69.281a13.3,13.3,0,0,0,11.509,6.643H729.61a13.29,13.29,0,0,0,11.508-6.643c75.24-130.3,55.44-96.115,114.49-198.339a13.286,13.286,0,0,1,11.506-6.642H958.6a13.288,13.288,0,0,1,11.508,6.644l45.748,79.232a13.286,13.286,0,0,1,0,13.289l-45.748,79.232a13.29,13.29,0,0,1-11.508,6.642H867.116a13.285,13.285,0,0,1-11.506-6.644l-32.228-55.827a13.288,13.288,0,0,0-23.033.03l-.006.01a13.291,13.291,0,0,0,.017,13.258l39.9,69.114a13.291,13.291,0,0,0,11.508,6.645H973.952a13.288,13.288,0,0,0,11.506-6.643l61.088-105.818a13.291,13.291,0,0,0,0-13.287L985.458,229.614a13.282,13.282,0,0,0-11.506-6.644H851.763a13.284,13.284,0,0,0-11.508,6.644C575.577,688.1,873.382,172.248,725.764,427.949Z" transform="translate(262.507 680.948)"/><path class="a" d="M573.442,230.7H451.65l-60.9,105.476,60.9,105.475H573.442l60.9-105.475Z" transform="translate(167.268 685.456)"/><path class="c" d="M584.029,454.54a13.305,13.305,0,0,1-11.508,6.648h-122.2a13.332,13.332,0,0,1-11.508-6.648l-39.966-69.248a13.3,13.3,0,0,1,0-13.282V372a13.285,13.285,0,0,1,23.014,0l32.3,55.953a13.3,13.3,0,0,0,11.508,6.648H557.17a13.3,13.3,0,0,0,11.508-6.648c.3-.594,114.107-197.761,114.439-198.337a13.3,13.3,0,0,1,11.508-6.647H816.793a13.269,13.269,0,0,1,11.508,6.647l40.3,69.8a13.3,13.3,0,0,1-5.076,18.281h0a13.294,13.294,0,0,1-17.95-4.988L812.964,256.2a13.271,13.271,0,0,0-11.508-6.647H709.977A13.269,13.269,0,0,0,698.47,256.2S632.029,371.4,584.029,454.54Z" transform="translate(170.951 680.945)"/><path class="a" d="M419.233,230.7H297.44l-60.9,105.476,60.9,105.475H419.233l60.9-105.475Z" transform="translate(77.374 685.456)"/><path class="d" d="M428.264,454.54a13.3,13.3,0,0,1-11.508,6.648h-122.2a13.329,13.329,0,0,1-11.506-6.648l-39.966-69.248a13.3,13.3,0,0,1,0-13.282V372a13.286,13.286,0,0,1,23.016,0l32.3,55.953a13.3,13.3,0,0,0,11.508,6.648h91.493a13.3,13.3,0,0,0,11.508-6.648c46.5-80.666,64.354-111.558,114.441-198.337a13.3,13.3,0,0,1,11.506-6.647H661.03a13.271,13.271,0,0,1,11.508,6.647l40.3,69.8a13.294,13.294,0,0,1-5.076,18.281h0a13.3,13.3,0,0,1-17.95-4.988L657.2,256.2a13.271,13.271,0,0,0-11.508-6.647H554.213A13.271,13.271,0,0,0,542.7,256.2S473.625,375.978,428.264,454.54Z" transform="translate(80.152 680.945)"/><path class="a" d="M265.312,230.7H143.52L82.623,336.18l60.9,105.475H265.312l60.9-105.475Z" transform="translate(-12.35 685.456)"/><path class="c" d="M396.168,256.2a13.288,13.288,0,0,1,11.508-6.645h91.482a13.286,13.286,0,0,1,11.508,6.645l32.326,55.993a13.289,13.289,0,0,0,23.035-.03l0-.009a13.287,13.287,0,0,0-.016-13.259l-40-69.281a13.286,13.286,0,0,0-11.508-6.644H392.323a13.288,13.288,0,0,0-11.508,6.642c-.016.029-87.37,151.38-114.491,198.339a13.281,13.281,0,0,1-11.506,6.642H163.334a13.29,13.29,0,0,1-11.508-6.642l-45.748-79.232a13.286,13.286,0,0,1,0-13.289L151.826,256.2a13.288,13.288,0,0,1,11.508-6.644h91.482a13.288,13.288,0,0,1,11.508,6.645l32.227,55.825A13.289,13.289,0,0,0,321.585,312l.006-.011a13.292,13.292,0,0,0-.017-13.257l-39.9-69.115a13.292,13.292,0,0,0-11.509-6.644H147.981a13.284,13.284,0,0,0-11.508,6.644L75.387,335.43a13.283,13.283,0,0,0,0,13.287l61.087,105.818a13.291,13.291,0,0,0,11.508,6.643H270.169a13.3,13.3,0,0,0,11.509-6.643C294.152,432.934,304.569,414.888,396.168,256.2Z" transform="translate(-17.606 680.948)"/></g></svg>