<svg xmlns="http://www.w3.org/2000/svg" width="83.935" height="66.754" viewBox="0 0 83.935 66.754"><defs><style>.a{fill:#fa7e3e;}</style></defs><g transform="translate(-3.721 -7.966)"><g transform="translate(3.721 7.966)"><path class="a" d="M25.141,66.385h4.168v6.252a2.084,2.084,0,0,0,2.084,2.084H60.566a2.084,2.084,0,0,0,2.084-2.084V66.385H68.9a18.755,18.755,0,0,0,0-37.509h0a22.922,22.922,0,0,0-44.907-4.168,20.846,20.846,0,1,0,1.146,41.677Zm33.342,4.168H33.476V51.8H58.482ZM54.315,47.63H37.644V45.546a8.335,8.335,0,1,1,16.671,0ZM25.141,28.876h.417a2.084,2.084,0,0,0,2.084-1.667,18.755,18.755,0,0,1,37.093,3.751,2.084,2.084,0,0,0,2.084,2.084H68.9a14.587,14.587,0,0,1,0,29.174H62.65v-12.5a2.084,2.084,0,0,0-2.084-2.084H58.482V45.546a12.5,12.5,0,1,0-25.006,0V47.63H31.392a2.084,2.084,0,0,0-2.084,2.084v12.5H25.141a16.671,16.671,0,1,1,0-33.342Z" transform="translate(-3.721 -7.966)"/><path class="a" d="M26.148,30a4.168,4.168,0,0,0-1.98,7.814,2.084,2.084,0,0,0-.1.521v2.084a2.084,2.084,0,0,0,4.168,0V38.335a2.084,2.084,0,0,0-.1-.521A4.168,4.168,0,0,0,26.148,30Z" transform="translate(16.11 15.916)"/></g></g></svg>