<svg xmlns="http://www.w3.org/2000/svg" xmlns:xlink="http://www.w3.org/1999/xlink" width="200.226" height="200.235" viewBox="0 0 200.226 200.235"><defs><style>.a{fill:#fff;}.b{fill:#0096db;}.c,.e{fill:none;}.c{stroke:#fff;stroke-width:1.5px;}.d{stroke:none;}.f{filter:url(#a);}</style><filter id="a" x="0" y="0" width="200.226" height="200.235" filterUnits="userSpaceOnUse"><feOffset dy="3" input="SourceAlpha"/><feGaussianBlur stdDeviation="3" result="b"/><feFlood flood-opacity="0.161"/><feComposite operator="in" in2="b"/><feComposite in="SourceGraphic"/></filter></defs><g transform="translate(-43.223 -1022)"><g class="f" transform="matrix(1, 0, 0, 1, 43.22, 1022)"><rect class="a" width="182.226" height="182.235" rx="10" transform="translate(9 6)"/></g><rect class="b" width="136.683" height="136.684" rx="10" transform="translate(75 1051)"/><g transform="translate(-7377 27)"><path class="a" d="M42.57,9a35.736,35.736,0,0,0,0,71.471.882.882,0,1,0,0-1.765A33.883,33.883,0,1,1,72.294,60.893L70.833,52.4a.88.88,0,1,0-1.737.276l1.875,11.112a.882.882,0,0,0,1.3.607l10.147-5.6a.882.882,0,1,0-.827-1.544L74,61.417A35.773,35.773,0,0,0,42.57,9Z" transform="translate(7475 1046)"/><path class="a" d="M39.26,18.969A1.588,1.588,0,0,0,37.7,20.25L36.849,24.7a19.084,19.084,0,0,0-5.726,2.386L27.38,24.545a1.6,1.6,0,0,0-2.009.2l-2.863,2.838a1.585,1.585,0,0,0-.176,1.984v.025h-.025l2.512,3.767a19.175,19.175,0,0,0-2.336,5.726l-4.42.879a1.586,1.586,0,0,0-1.281,1.557v4.019A1.592,1.592,0,0,0,18.062,47.1l4.446.854A19.087,19.087,0,0,0,24.894,53.7l-2.537,3.742a1.6,1.6,0,0,0,.2,2.009L25.4,62.294a1.631,1.631,0,0,0,2.034.2l3.742-2.512a19.169,19.169,0,0,0,5.752,2.361l.854,4.4q0,.013,0,.025a1.594,1.594,0,0,0,1.557,1.281h4.019a1.612,1.612,0,0,0,1.557-1.306l.879-4.446a19.1,19.1,0,0,0,5.726-2.361l3.742,2.512a1.59,1.59,0,0,0,2.009-.2l2.838-2.838a1.6,1.6,0,0,0,.2-2.009L57.77,53.654A19.067,19.067,0,0,0,60.156,47.9l4.42-.854a1.619,1.619,0,0,0,1.281-1.582V41.447a1.593,1.593,0,0,0-1.281-1.557l-4.445-.854a19.106,19.106,0,0,0-2.386-5.751l2.512-3.717a1.631,1.631,0,0,0-.2-2.034L57.218,24.7a1.6,1.6,0,0,0-2.009-.2l-3.767,2.537a19.025,19.025,0,0,0-5.726-2.361l-.854-4.42A1.589,1.589,0,0,0,43.3,18.969Zm.025,1.607h3.993l.954,4.872a.8.8,0,0,0,.628.628,17.531,17.531,0,0,1,6.2,2.562.8.8,0,0,0,.879-.025l4.169-2.763,2.813,2.813v.025l-2.788,4.119a.8.8,0,0,0,0,.879,17.6,17.6,0,0,1,2.587,6.2.8.8,0,0,0,.628.628l4.9.954v3.993l-4.872.954a.8.8,0,0,0-.653.628,17.5,17.5,0,0,1-2.537,6.2.8.8,0,0,0,0,.879l2.788,4.144-2.838,2.838c-.005,0-.021-.008-.025,0l-4.094-2.788a.8.8,0,0,0-.9,0,17.472,17.472,0,0,1-6.178,2.587.8.8,0,0,0-.628.628l-.98,4.9H39.36l-.979-4.872a.8.8,0,0,0-.628-.653,17.481,17.481,0,0,1-6.2-2.537.8.8,0,0,0-.879,0l-4.119,2.788-2.863-2.838,2.788-4.119a.8.8,0,0,0,0-.9,17.467,17.467,0,0,1-2.587-6.178.8.8,0,0,0-.628-.628l-4.872-.98V41.523l4.872-.954a.8.8,0,0,0,.628-.628,17.543,17.543,0,0,1,2.562-6.2.8.8,0,0,0,0-.879l-2.788-4.144L26.5,25.876l4.119,2.788a.8.8,0,0,0,.879,0,17.589,17.589,0,0,1,6.2-2.587.8.8,0,0,0,.628-.628Zm2.034,11.453A11.478,11.478,0,1,0,52.8,43.507,11.5,11.5,0,0,0,41.319,32.029Zm0,1.607a9.871,9.871,0,1,1-9.87,9.87A9.871,9.871,0,0,1,41.319,33.636Z" transform="translate(7476.25 1043.699)"/><g transform="translate(7522.588 1108.823)"><path class="a" d="M95.279,299.844a1.441,1.441,0,0,1,1.442,1.442.961.961,0,1,0,1.922,0,3.363,3.363,0,0,0-2.4-3.21v-1.115a.961.961,0,0,0-1.922,0v1.115a3.354,3.354,0,0,0,.961,6.574,1.442,1.442,0,1,1-1.442,1.442.961.961,0,1,0-1.922,0,3.363,3.363,0,0,0,2.4,3.21v1.115a.961.961,0,1,0,1.922,0V309.3a3.354,3.354,0,0,0-.961-6.574,1.442,1.442,0,1,1,0-2.883Zm0,0" transform="translate(-84.845 -293.353)"/><g class="c" transform="translate(0.412 0.177)"><circle class="d" cx="10.5" cy="10.5" r="10.5"/><circle class="e" cx="10.5" cy="10.5" r="9.75"/></g></g></g></g></svg>