<svg xmlns="http://www.w3.org/2000/svg" width="96" height="76.514" viewBox="0 0 96 76.514"><defs><style>.a{fill:#fa7e3e;}.b,.c{fill:none;}.b{stroke:#fa7e3e;stroke-width:2px;}.d{stroke:none;}</style></defs><g transform="translate(-206.49 -2163.155)"><rect class="a" width="12.123" height="2.425" transform="translate(286.009 2220.428)"/><rect class="a" width="12" height="2" transform="translate(286.49 2229.67)"/><rect class="a" width="12.123" height="2.425" transform="translate(210.849 2220.428)"/><rect class="a" width="12" height="2" transform="translate(210.49 2229.67)"/><path class="a" d="M71.772,51.928a12.625,12.625,0,0,0-.92-3.057,11.834,11.834,0,0,0-15.886-6.065A16.238,16.238,0,0,0,45.542,33.1a15.855,15.855,0,0,0-20.55,9.712,11.72,11.72,0,0,0-2.966-.948A12.019,12.019,0,0,0,8.186,51.928,12.331,12.331,0,0,0,0,63.66,12.176,12.176,0,0,0,12,76h2.664a1.373,1.373,0,0,0,0-2.746H12a9.382,9.382,0,0,1-9.069-7.279A9.633,9.633,0,0,1,9.72,54.323a1.361,1.361,0,0,0,1-1.2A9.381,9.381,0,0,1,20,44.426a8.979,8.979,0,0,1,5.05,1.546,1.313,1.313,0,0,0,.407.184,1.33,1.33,0,0,0,1.617-1,13.531,13.531,0,0,1,9.618-9.911,13.3,13.3,0,0,1,16.2,9.911,1.39,1.39,0,0,0,.179.419,1.309,1.309,0,0,0,1.845.394,8.98,8.98,0,0,1,5.05-1.546,9.381,9.381,0,0,1,9.277,8.694,1.361,1.361,0,0,0,1,1.2,9.645,9.645,0,0,1-2.283,18.933H65.292a1.373,1.373,0,0,0,0,2.746h2.664a12.026,12.026,0,0,0,11.382-8.436A12.444,12.444,0,0,0,71.772,51.928Z" transform="translate(215.746 2131.094)"/><g class="b" transform="translate(206.49 2211.67)"><rect class="d" width="23" height="28"/><rect class="c" x="1" y="1" width="21" height="26"/></g><g class="b" transform="translate(279.49 2211.67)"><rect class="d" width="23" height="28"/><rect class="c" x="1" y="1" width="21" height="26"/></g><g transform="translate(229.033 2183.575)"><g transform="translate(0 0)"><rect class="c" width="51.66" height="51.66" transform="translate(0 0)"/><path class="a" d="M18.575,291.447a.96.96,0,0,0-.1,0l-.032.015L1.91,294.211a1.033,1.033,0,0,0-.852,1.021v6.9c.088,11.518,7.155,21.512,17.282,24.405a1.035,1.035,0,0,0,.565,0c10.127-2.893,17.194-12.887,17.282-24.405v-6.9a1.033,1.033,0,0,0-.872-1.021l-16.535-2.744a1.04,1.04,0,0,0-.206-.023Zm.04,2.079,15.5,2.591v6c-.081,10.553-6.513,19.5-15.5,22.237-8.974-2.741-15.411-11.684-15.5-22.228v-6.009Zm6.219,8.233-.044,0a1.035,1.035,0,0,0-.7.319l-7.535,7.535-3.4-3.4a1.036,1.036,0,1,0-1.465,1.465l4.133,4.133a1.034,1.034,0,0,0,1.465,0l8.266-8.268a1.033,1.033,0,0,0-.718-1.788Z" transform="translate(7.211 -283.176)"/></g></g><line class="b" x2="52.127" transform="translate(228.427 2226.611)"/></g></svg>