<svg xmlns="http://www.w3.org/2000/svg" xmlns:xlink="http://www.w3.org/1999/xlink" width="1366" height="351" viewBox="0 0 1366 351"><defs><style>.a{fill:none;}.b{fill:url(#a);}.c{clip-path:url(#b);}.aj,.ao,.ap,.aq,.d,.l,.o,.q,.x{isolation:isolate;}.e{fill:url(#c);}.f{fill:url(#d);}.g{fill:url(#e);}.h{fill:url(#f);}.i{fill:url(#j);}.j{fill:url(#k);}.k{fill:url(#n);}.ao,.ap,.l,.o,.u,.x{opacity:0.561;}.ao,.ap,.l,.o,.q,.x{mix-blend-mode:overlay;}.l{fill:url(#s);}.m{fill:#ff65eb;}.n{fill:#ff20ce;}.o{fill:url(#w);}.p,.u{fill:#a5ffff;}.q,.r,.z{fill:#00edf9;}.at,.q,.r{opacity:0.6;}.s{fill:url(#aa);}.t{fill:url(#ab);}.v{fill:#b4ffff;}.w{fill:#b8ffff;opacity:0.808;}.x{fill:url(#aj);}.y{fill:#102465;}.aa{fill:#1a6cbe;}.ab{fill:#fdf7fb;}.ac{fill:url(#ak);}.ad{fill:url(#al);}.ae{fill:url(#am);}.af{fill:url(#ar);}.ag{fill:#162a56;}.ah{fill:url(#bd);}.ai{fill:#165da4;}.aj{opacity:0.3;}.aj,.aq{mix-blend-mode:multiply;}.ak,.aq{fill:#1a9bdb;}.al{fill:#103450;}.am{fill:#ffc6a0;}.an,.aw{fill:#fff;}.ao{fill:url(#be);}.ap{fill:url(#bf);}.aq{opacity:0.4;}.ar{fill:#011c63;}.as{fill:#fcfefb;}.au{fill:url(#bn);}.av,.aw,.ax{fill-rule:evenodd;}.av{fill:url(#bo);}.ax,.ay{fill:#035bda;}</style><radialGradient id="a" cx="0.516" cy="0.48" r="0.907" gradientTransform="translate(0.25) scale(0.5 1)" gradientUnits="objectBoundingBox"><stop offset="0.124" stop-color="#0240af"/><stop offset="0.482" stop-color="#022782"/><stop offset="0.82" stop-color="#02135e"/><stop offset="1" stop-color="#020c51"/></radialGradient><clipPath id="b"><rect class="a" width="588" height="350" transform="translate(8.352 47.191)"/></clipPath><linearGradient id="c" x1="0.58" y1="0.111" x2="0.421" y2="0.887" gradientUnits="objectBoundingBox"><stop offset="0" stop-color="#89daf4"/><stop offset="1" stop-color="#008dd7"/></linearGradient><linearGradient id="d" y1="0.5" x2="1" y2="0.5" gradientUnits="objectBoundingBox"><stop offset="0" stop-color="#144188"/><stop offset="0.997" stop-color="#1a7cde"/></linearGradient><linearGradient id="e" y1="0.5" x2="1" y2="0.5" gradientUnits="objectBoundingBox"><stop offset="0" stop-color="#144188"/><stop offset="0.998" stop-color="#102465"/></linearGradient><linearGradient id="f" x1="0.521" y1="0.177" x2="0.485" y2="0.729" gradientUnits="objectBoundingBox"><stop offset="0" stop-color="#0276ce" stop-opacity="0"/><stop offset="0.061" stop-color="#0276ce" stop-opacity="0.165"/><stop offset="0.154" stop-color="#0276ce" stop-opacity="0.384"/><stop offset="0.251" stop-color="#0276ce" stop-opacity="0.573"/><stop offset="0.351" stop-color="#0276ce" stop-opacity="0.729"/><stop offset="0.453" stop-color="#0276ce" stop-opacity="0.847"/><stop offset="0.561" stop-color="#0276ce" stop-opacity="0.933"/><stop offset="0.676" stop-color="#0276ce" stop-opacity="0.984"/><stop offset="0.812" stop-color="#0276ce"/></linearGradient><linearGradient id="j" x1="0.521" y1="0.177" x2="0.485" y2="0.729" gradientUnits="objectBoundingBox"><stop offset="0" stop-color="#006ac6" stop-opacity="0"/><stop offset="0.05" stop-color="#006ac6" stop-opacity="0.133"/><stop offset="0.145" stop-color="#006ac6" stop-opacity="0.361"/><stop offset="0.244" stop-color="#006bc6" stop-opacity="0.561"/><stop offset="0.345" stop-color="#006bc6" stop-opacity="0.718"/><stop offset="0.45" stop-color="#006bc6" stop-opacity="0.843"/><stop offset="0.56" stop-color="#006bc6" stop-opacity="0.929"/><stop offset="0.678" stop-color="#006bc6" stop-opacity="0.984"/><stop offset="0.817" stop-color="#006cc7"/></linearGradient><linearGradient id="k" x1="0.58" y1="0.111" x2="0.421" y2="0.887" xlink:href="#c"/><linearGradient id="n" x1="0.516" y1="0.177" x2="0.489" y2="0.729" gradientUnits="objectBoundingBox"><stop offset="0" stop-color="#0044ae" stop-opacity="0"/><stop offset="0.004" stop-color="#0044ae" stop-opacity="0.012"/><stop offset="0.104" stop-color="#0044ae" stop-opacity="0.271"/><stop offset="0.208" stop-color="#0044ae" stop-opacity="0.494"/><stop offset="0.316" stop-color="#0044ae" stop-opacity="0.678"/><stop offset="0.426" stop-color="#0044ae" stop-opacity="0.82"/><stop offset="0.542" stop-color="#0044ae" stop-opacity="0.922"/><stop offset="0.666" stop-color="#0044ae" stop-opacity="0.98"/><stop offset="0.812" stop-color="#0044ae"/></linearGradient><linearGradient id="s" x1="0.503" y1="0.08" x2="0.496" y2="0.805" gradientUnits="objectBoundingBox"><stop offset="0.037" stop-color="#93fffd" stop-opacity="0"/><stop offset="0.135" stop-color="#95fefd" stop-opacity="0.071"/><stop offset="0.332" stop-color="#9afdfd" stop-opacity="0.251"/><stop offset="0.608" stop-color="#a3fcfe" stop-opacity="0.545"/><stop offset="0.951" stop-color="#b0fbfe" stop-opacity="0.941"/><stop offset="1" stop-color="#b2fbff"/></linearGradient><linearGradient id="w" x1="0.498" y1="0.128" x2="0.484" y2="0.887" xlink:href="#s"/><linearGradient id="aa" x1="0.66" y1="0.289" x2="0.276" y2="0.794" xlink:href="#d"/><linearGradient id="ab" x1="1.004" y1="0.352" x2="-0.907" y2="0.634" gradientUnits="objectBoundingBox"><stop offset="0.153" stop-color="#144188"/><stop offset="0.997" stop-color="#1a7cde"/></linearGradient><linearGradient id="aj" x1="0.647" y1="-0.012" x2="0.186" y2="0.855" xlink:href="#s"/><linearGradient id="ak" x1="0.986" y1="0.501" x2="-0.233" y2="0.499" xlink:href="#d"/><linearGradient id="al" x1="1.343" y1="0.506" x2="0.34" y2="0.489" xlink:href="#d"/><linearGradient id="am" x1="0.49" y1="0.926" x2="0.503" y2="0.327" gradientUnits="objectBoundingBox"><stop offset="0" stop-color="#0044ae"/><stop offset="0.183" stop-color="#0044ae" stop-opacity="0.765"/><stop offset="0.461" stop-color="#0044ae" stop-opacity="0.435"/><stop offset="0.7" stop-color="#0044ae" stop-opacity="0.2"/><stop offset="0.887" stop-color="#0044ae" stop-opacity="0.055"/><stop offset="1" stop-color="#0044ae" stop-opacity="0"/></linearGradient><linearGradient id="ar" x1="0.476" y1="0.85" x2="0.524" y2="0.308" gradientUnits="objectBoundingBox"><stop offset="0" stop-color="#0091de"/><stop offset="0.094" stop-color="#0091de" stop-opacity="0.965"/><stop offset="0.242" stop-color="#0093df" stop-opacity="0.863"/><stop offset="0.424" stop-color="#0095e1" stop-opacity="0.698"/><stop offset="0.634" stop-color="#0098e3" stop-opacity="0.475"/><stop offset="0.863" stop-color="#009de6" stop-opacity="0.184"/><stop offset="1" stop-color="#00a0e8" stop-opacity="0"/></linearGradient><linearGradient id="bd" x1="0.642" y1="0.005" x2="0.238" y2="1.418" gradientUnits="objectBoundingBox"><stop offset="0" stop-color="#cdeffb"/><stop offset="1" stop-color="#89daf4"/></linearGradient><linearGradient id="be" x1="0.493" y1="0.181" x2="0.467" y2="0.901" xlink:href="#s"/><linearGradient id="bf" x1="0.499" y1="0.097" x2="0.501" y2="0.818" xlink:href="#s"/><radialGradient id="bn" cx="0.5" cy="0.5" r="0.706" gradientTransform="translate(0.211) scale(0.578 1)" gradientUnits="objectBoundingBox"><stop offset="0" stop-color="#00b3f4"/><stop offset="0.154" stop-color="#0ae"/><stop offset="0.393" stop-color="#0094e0"/><stop offset="0.689" stop-color="#0070ca"/><stop offset="0.994" stop-color="#0044ae"/></radialGradient><linearGradient id="bo" x1="0.5" x2="0.5" y2="1" gradientUnits="objectBoundingBox"><stop offset="0" stop-color="#00aeef"/><stop offset="0.212" stop-color="#0097dc"/><stop offset="0.519" stop-color="#007cc5"/><stop offset="0.792" stop-color="#006cb8"/><stop offset="1" stop-color="#0066b3"/></linearGradient></defs><g transform="translate(0 -102)"><rect class="b" width="1366" height="351" transform="translate(0 102)"/><g transform="translate(613.917 55.809)"><g class="c" transform="translate(155.73 0)"><g transform="translate(173.025 125.341)"><g class="d"><path class="e" d="M395.416,164.119,384.5,170.454l-10.961-6.335,10.961-6.335Z" transform="translate(-373.541 -157.784)"/><path class="f" d="M398.253,165.759V379.7l-10.913,6.335V172.094Z" transform="translate(-376.378 -159.424)"/><path class="g" d="M384.5,172.094V386.038L373.541,379.7V165.759Z" transform="translate(-373.541 -159.424)"/></g><path class="h" d="M384.5,157.784l-10.961,6.335V378.063L384.5,384.4l10.913-6.335V164.119Z" transform="translate(-373.541 -157.784)"/></g><g transform="translate(162.426 171.123)"><g class="d"><path class="e" d="M374.831,219.655l-7.3,4.238-7.332-4.238,7.332-4.238Z" transform="translate(-360.199 -215.417)"/><path class="f" d="M376.729,220.752V363.866l-7.3,4.238V224.99Z" transform="translate(-362.097 -216.514)"/><path class="g" d="M367.531,224.99V368.1l-7.332-4.238V220.752Z" transform="translate(-360.199 -216.514)"/></g><path class="i" d="M367.531,215.417l-7.332,4.238V362.769l7.332,4.238,7.3-4.238V219.655Z" transform="translate(-360.199 -215.417)"/></g><g transform="translate(39.392 286.626)"><g class="d"><path class="j" d="M227.193,367.152l-10.913,6.335-10.961-6.335,10.961-6.335Z" transform="translate(-205.319 -360.816)"/><path class="f" d="M230.03,368.792V524.044l-10.913,6.335V375.127Z" transform="translate(-208.156 -362.456)"/><path class="g" d="M216.28,375.127V530.379l-10.961-6.335V368.792Z" transform="translate(-205.319 -362.456)"/></g><path class="k" d="M216.28,360.816l-10.961,6.335V522.4l10.961,6.335,10.913-6.335V367.152Z" transform="translate(-205.319 -360.816)"/></g><g transform="translate(202.999 164.61)"><g class="d"><path class="e" d="M425.008,211.2l-6.852,3.978-6.882-3.978,6.882-3.978Z" transform="translate(-411.274 -207.218)"/><path class="f" d="M426.79,212.225V346.554l-6.852,3.978V216.2Z" transform="translate(-413.056 -208.248)"/><path class="g" d="M418.156,216.2V350.532l-6.882-3.978V212.225Z" transform="translate(-411.274 -208.248)"/></g><path class="h" d="M418.156,207.218l-6.882,3.978V345.525l6.882,3.978,6.852-3.978V211.2Z" transform="translate(-411.274 -207.218)"/></g><g transform="translate(220.025 33.105)"><path class="l" d="M432.706,61.675V355.957l143.583,82.987,142.96-82.989V61.674Z" transform="translate(-432.706 -41.674)"/><g transform="translate(0 93.989)"><g class="d"><path class="e" d="M719.249,242.979l-142.96,82.989L432.706,242.98l143.583-82.989Z" transform="translate(-432.706 -159.991)"/><path class="f" d="M756.414,264.46V472.241L613.454,555.23V347.448Z" transform="translate(-469.871 -181.472)"/><path class="g" d="M576.289,347.449V555.231L432.706,472.243V264.461Z" transform="translate(-432.706 -181.472)"/></g></g><path class="m" d="M613.454,366.856l142.96-82.989v-1.418l-142.96,82.989Z" transform="translate(-469.871 -91.181)"/><path class="n" d="M432.706,283.869l143.583,82.987v-1.418L432.706,282.45Z" transform="translate(-432.706 -91.182)"/><g transform="translate(9.048 66.117)"><path class="o" d="M599.017,124.9l5.674,40.37,6.041,3.488,6-3.488,4.98-40.37Z" transform="translate(-475.951 -124.905)"/><path class="p" d="M606.16,174.821l6-3.488,6.041,3.488-6,3.488Z" transform="translate(-477.419 -134.451)"/><path class="o" d="M444.1,214.191l5.674,40.37,6.041,3.488,6-3.488,4.98-40.37Z" transform="translate(-444.096 -143.264)"/><path class="p" d="M451.239,264.107l6-3.488,6.041,3.488-6,3.488Z" transform="translate(-445.565 -152.81)"/><path class="o" d="M756.6,214.191l5.674,40.37,6.041,3.488,6-3.488,4.98-40.37Z" transform="translate(-508.352 -143.264)"/><path class="p" d="M763.74,264.107l6-3.488,6.041,3.488-6,3.488Z" transform="translate(-509.821 -152.81)"/><path class="o" d="M599.017,301.691l5.674,40.37,6.041,3.488,6-3.488,4.98-40.37Z" transform="translate(-475.951 -161.255)"/><path class="p" d="M606.16,351.607l6-3.488,6.041,3.488-6,3.488Z" transform="translate(-477.419 -170.802)"/></g><g transform="translate(48.366 40.262)"><g class="d"><path class="q" d="M525,109.75l3.841-4.38a3.024,3.024,0,0,1-.023-.328,4.9,4.9,0,0,1,2.22-3.846c1.229-.709,2.231-.138,2.235,1.274a4.9,4.9,0,0,1-2.22,3.846,1.564,1.564,0,0,1-1.594.146l-3.841,4.377a2.646,2.646,0,0,1,.023.327,4.9,4.9,0,0,1-2.221,3.846,2.265,2.265,0,0,1-.7.276l-5.1,10.848a1.766,1.766,0,0,1,.408,1.233,4.9,4.9,0,0,1-2.221,3.846c-1.229.709-2.231.138-2.235-1.274a4.006,4.006,0,0,1,.254-1.341l-4.729-2.889a3.978,3.978,0,0,1-.963.811,2.087,2.087,0,0,1-.964.3l-4.695,8.33a1.969,1.969,0,0,1,.261,1.044,4.9,4.9,0,0,1-2.221,3.846c-1.229.709-2.231.138-2.235-1.273a4.9,4.9,0,0,1,2.221-3.846,2.033,2.033,0,0,1,.964-.3l4.695-8.333a1.945,1.945,0,0,1-.261-1.041,4.9,4.9,0,0,1,2.22-3.846c1.229-.709,2.231-.138,2.235,1.274a3.989,3.989,0,0,1-.254,1.338l4.729,2.892a3.954,3.954,0,0,1,.963-.81,2.365,2.365,0,0,1,.7-.276l5.1-10.844a1.766,1.766,0,0,1-.408-1.236A4.9,4.9,0,0,1,523.4,109.9,1.557,1.557,0,0,1,525,109.75M536.836,92.5l-42.21,24.37a2.287,2.287,0,0,0-1.034,1.795l.083,29.481c0,.659.469.924,1.041.593l42.209-24.369a2.289,2.289,0,0,0,1.037-1.794l-.084-29.481c0-.658-.471-.925-1.044-.595" transform="translate(-493.592 -92.357)"/><path class="p" d="M532.25,103.4a4.9,4.9,0,0,0-2.22,3.846,3.055,3.055,0,0,0,.023.328l-3.841,4.38a1.557,1.557,0,0,0-1.594.146,4.9,4.9,0,0,0-2.221,3.843,1.765,1.765,0,0,0,.408,1.236l-5.1,10.844a2.366,2.366,0,0,0-.7.276,3.95,3.95,0,0,0-.963.81l-4.729-2.892a3.99,3.99,0,0,0,.254-1.338c0-1.412-1.007-1.984-2.235-1.274a4.9,4.9,0,0,0-2.22,3.846,1.945,1.945,0,0,0,.261,1.041l-4.695,8.333a2.033,2.033,0,0,0-.964.3,4.9,4.9,0,0,0-2.221,3.846c0,1.412,1.006,1.983,2.235,1.273a4.9,4.9,0,0,0,2.221-3.846,1.968,1.968,0,0,0-.261-1.044l4.695-8.33a2.087,2.087,0,0,0,.964-.3,3.978,3.978,0,0,0,.963-.811l4.729,2.889a4,4,0,0,0-.254,1.341c0,1.412,1.006,1.984,2.235,1.274a4.9,4.9,0,0,0,2.221-3.846,1.766,1.766,0,0,0-.408-1.233l5.1-10.848a2.264,2.264,0,0,0,.7-.276,4.9,4.9,0,0,0,2.221-3.846,2.67,2.67,0,0,0-.023-.327l3.841-4.377a1.564,1.564,0,0,0,1.594-.146,4.9,4.9,0,0,0,2.22-3.846c0-1.412-1.006-1.984-2.235-1.274" transform="translate(-494.806 -94.566)"/></g></g><g transform="translate(26.668 101.736)"><g class="d"><path class="r" d="M473.8,191.662c-.184.106-.334.021-.334-.191a.731.731,0,0,1,.332-.575l1.4-.811c.184-.106.334-.021.334.191a.731.731,0,0,1-.332.575l-1.4.811m2.817-1.627c-.184.106-.334.021-.334-.19a.732.732,0,0,1,.332-.575l1.408-.813c.184-.106.334-.021.334.191a.731.731,0,0,1-.332.575l-1.407.812m-2.825-1.05c-.183.106-.334.021-.334-.191a.73.73,0,0,1,.332-.575l12.2-7.045c.184-.106.334-.024.334.191a.733.733,0,0,1-.332.575l-12.2,7.045m-.007-2.68c-.184.106-.334.021-.334-.19a.731.731,0,0,1,.332-.576l6.85-3.954c.187-.107.336-.022.337.189a.737.737,0,0,1-.335.577l-6.85,3.954m8.277-4.778c-.183.106-.334.021-.334-.191a.735.735,0,0,1,.332-.575l.856-.494c.184-.106.334-.021.334.191a.733.733,0,0,1-.332.575l-.856.494m2.35-1.357c-.184.106-.334.021-.334-.191a.733.733,0,0,1,.332-.575L490,176.177c.184-.106.334-.021.334.191a.731.731,0,0,1-.332.575l-5.589,3.227m-10.634,3.458c-.184.106-.334.021-.334-.19a.73.73,0,0,1,.332-.576l11.638-6.719c.184-.106.334-.024.334.19a.731.731,0,0,1-.332.576l-11.638,6.719m13.093-7.559c-.184.106-.334.021-.334-.19a.728.728,0,0,1,.333-.575l3.123-1.8c.184-.106.334-.024.334.191a.731.731,0,0,1-.332.575l-3.123,1.8m-17.406,11.066c-.537.311-.976.06-.978-.557a2.146,2.146,0,0,1,.972-1.686c.539-.311.979-.061.98.558a2.147,2.147,0,0,1-.974,1.684m22.5-17.287-24.933,14.4a1.659,1.659,0,0,0-.755,1.309l.034,12.131c0,.48.341.676.761.434l24.933-14.4a1.665,1.665,0,0,0,.755-1.31l-.034-12.13c0-.483-.341-.677-.761-.434" transform="translate(-466.277 -169.743)"/><path class="p" d="M487.269,177.788l-11.639,6.719a.73.73,0,0,0-.332.576c0,.211.15.3.334.19l11.638-6.719a.731.731,0,0,0,.332-.576c0-.214-.15-.3-.334-.19" transform="translate(-468.132 -171.388)"/><path class="p" d="M482.49,184.638l-6.85,3.954a.731.731,0,0,0-.332.576c0,.211.15.3.334.19l6.85-3.954a.737.737,0,0,0,.334-.577c0-.211-.15-.3-.337-.189" transform="translate(-468.134 -172.796)"/><path class="p" d="M487.852,184.121l-12.2,7.045a.73.73,0,0,0-.332.575c0,.211.151.3.335.191l12.2-7.045a.733.733,0,0,0,.332-.575c0-.214-.15-.3-.334-.191" transform="translate(-468.136 -172.69)"/><path class="p" d="M477.064,195.339l-1.4.811a.731.731,0,0,0-.332.575c0,.211.15.3.334.191l1.4-.811a.731.731,0,0,0,.332-.575c0-.211-.15-.3-.334-.191" transform="translate(-468.138 -174.997)"/><path class="p" d="M486.915,182.979l-.856.494a.735.735,0,0,0-.332.575c0,.211.151.3.334.191l.856-.494a.733.733,0,0,0,.332-.575c0-.211-.15-.3-.334-.191" transform="translate(-470.276 -172.455)"/><path class="p" d="M494.606,177.831l-5.589,3.227a.733.733,0,0,0-.332.575c0,.211.15.3.334.191l5.589-3.227a.731.731,0,0,0,.332-.575c0-.212-.15-.3-.334-.191" transform="translate(-470.885 -171.397)"/><path class="p" d="M495.236,174.461l-3.123,1.8a.728.728,0,0,0-.333.575c0,.211.151.3.334.19l3.123-1.8a.731.731,0,0,0,.332-.575c0-.214-.15-.3-.334-.191" transform="translate(-471.521 -170.704)"/><path class="p" d="M470.03,188.778a2.146,2.146,0,0,0-.971,1.686c0,.617.441.867.978.557a2.147,2.147,0,0,0,.974-1.684c0-.62-.441-.87-.98-.558" transform="translate(-466.849 -173.629)"/><path class="p" d="M480.613,193.29l-1.408.813a.732.732,0,0,0-.332.575c0,.211.15.3.334.19l1.407-.812a.731.731,0,0,0,.332-.575c0-.212-.15-.3-.334-.191" transform="translate(-468.867 -174.575)"/></g></g><g transform="translate(69.711 256.42)"><path class="s" d="M576.617,426.6V396.922l-56.155-32.456v29.679Z" transform="translate(-520.461 -364.466)"/><path class="t" d="M520.6,364.566l-.138.08v29.519l25.674-14.839Z" transform="translate(-520.461 -364.486)"/><g transform="translate(0 44.202)"><path class="s" d="M576.617,482.244V452.565l-56.155-32.456v29.679Z" transform="translate(-520.461 -420.109)"/><path class="t" d="M520.6,420.209l-.138.08v29.519l25.674-14.839Z" transform="translate(-520.461 -420.129)"/></g><g transform="translate(0 88.404)"><path class="s" d="M576.617,537.887V508.208l-56.155-32.456v29.679Z" transform="translate(-520.461 -475.752)"/><path class="t" d="M520.6,475.852l-.138.08v29.519l25.674-14.839Z" transform="translate(-520.461 -475.773)"/></g></g><g transform="translate(179.934 29.901)"><g class="d"><path class="u" d="M741.394,156.343,700.91,132.969l-.068,23.932,40.485,23.374.068-23.932" transform="translate(-667.774 -90.347)"/><path class="u" d="M745.979,192.551l-25.118-14.5-.025,8.891,25.118,14.5.025-8.891" transform="translate(-671.885 -99.617)"/><path class="u" d="M742.1,135l-7.738-4.467-.025,8.891,7.737,4.467L742.1,135" transform="translate(-674.661 -89.846)"/><path class="u" d="M673.247,101.516s2.858-10.951,6.952-8.586,4.907,11.678,8.125,13.536,3.394-3.661,5.384-2.513,2,7.2,4.078,8.394,3.551-3.75,6.929-1.8c4.175,2.41,6.6,12.944,6.6,12.944l-38.064-21.976m40.868,2.946L670.56,79.315l-.073,25.97,43.554,25.146.074-25.969" transform="translate(-661.533 -79.315)"/><path class="v" d="M680.914,96.367c-4.094-2.364-6.952,8.586-6.952,8.586l38.063,21.976s-2.42-10.533-6.595-12.944c-3.379-1.951-4.856,3-6.929,1.8s-2.092-7.248-4.078-8.394-2.165,4.371-5.384,2.513-4.03-11.172-8.125-13.536" transform="translate(-662.247 -82.753)"/><path class="u" d="M679.428,145.974l.012-4.172.012-4.171,3.14,3.9,3.14,3.905-3.152.272-3.152.267m2.554-14.139c-5.472-3.159-9.925-.626-9.943,5.666s4.407,13.956,9.879,17.116,9.93.624,9.947-5.669-4.406-13.952-9.883-17.113" transform="translate(-661.852 -89.835)"/><path class="w" d="M681.365,139.483l-.012,4.172-.012,4.172,3.152-.267,3.152-.272-3.14-3.9-3.14-3.9" transform="translate(-663.765 -91.687)"/><path class="u" d="M668.579,165.932a4.891,4.891,0,0,1-2.214-3.836c0-1.412,1-1.982,2.229-1.274a4.889,4.889,0,0,1,2.218,3.842c0,1.407-1,1.977-2.233,1.268m15.5-1.41-24.818-14.329-.051,18.054,24.817,14.328-24.817-14.328.008-2.774,4.606-2.62,4.665,8.078,9.417-5.362,6.14,10.636.033-11.683" transform="translate(-659.215 -93.889)"/><path class="v" d="M677.91,168.846l-9.417,5.362-4.664-8.079-4.606,2.62-.008,2.774,24.818,14.328.018-6.37-6.14-10.635" transform="translate(-659.215 -97.166)"/><path class="v" d="M670.445,163.494c-1.225-.708-2.225-.137-2.229,1.274a4.891,4.891,0,0,0,2.214,3.836c1.229.709,2.229.139,2.233-1.268a4.889,4.889,0,0,0-2.218-3.842" transform="translate(-661.066 -96.561)"/></g></g></g><g transform="translate(73.937 117.563)"><g transform="translate(0 73.265)"><g class="d"><path class="e" d="M328.5,263.3l-39.763,23.083L248.8,263.3l39.937-23.083Z" transform="translate(-248.805 -240.222)"/><path class="f" d="M338.842,269.279V479.157L299.078,502.24V292.362Z" transform="translate(-259.142 -246.196)"/><path class="g" d="M288.741,292.362V502.24L248.8,479.158V269.279Z" transform="translate(-248.805 -246.197)"/></g></g><path class="m" d="M299.078,298.325l39.763-23.083v-.959l-39.763,23.083Z" transform="translate(-259.142 -173.96)"/><path class="n" d="M248.8,275.242l39.937,23.082v-.959L248.8,274.283Z" transform="translate(-248.805 -173.96)"/><path class="x" d="M253.042,147.993l13.625,96.347,22.908,13.24,22.809-13.241,13.625-96.347Z" transform="translate(-249.676 -147.993)"/><g transform="translate(16.991 83.107)"><path class="p" d="M315.911,265.852,293.1,279.092l-22.908-13.241L293.1,252.611Z" transform="translate(-270.194 -252.611)"/></g><g transform="translate(13.533 10.453)"><path class="y" d="M318.288,187.371c-.152.092-.305.183-.458.274q-.522.312-1.058.618c-.164.095-.33.189-.5.282q-.61.342-1.235.674c-.106.056-.211.114-.317.17q-.784.411-1.59.807c-.137.068-.278.133-.416.2-.408.2-.821.392-1.238.583q-.273.126-.548.249-.608.273-1.226.535c-.165.071-.328.141-.494.21q-.856.357-1.729.7c-.062.025-.126.047-.189.071q-.784.3-1.584.586c-.187.067-.377.131-.565.2q-.639.223-1.286.435l-.569.185c-.672.214-1.349.422-2.034.618-.071.021-.142.039-.214.059q-.934.266-1.886.507l-.559.141c-.67.165-1.343.324-2.023.472l-.111.025c-.712.153-1.43.293-2.151.426l-.531.1c-.823.145-1.65.28-2.484.4-.064.009-.129.016-.194.025-.8.11-1.6.2-2.41.288-.164.017-.326.036-.491.051-.675.065-1.353.124-2.034.17l-.063,0c-.66.044-1.323.076-1.989.1-.24.009-.48.014-.72.021-.391.011-.782.02-1.173.023-.258,0-.516,0-.775,0q-.578,0-1.157-.011c-.268,0-.535-.01-.8-.019-.337-.01-.674-.024-1.011-.039-.28-.013-.56-.026-.84-.042-.338-.02-.678-.044-1.018-.069-.28-.021-.56-.041-.841-.065-.338-.029-.677-.064-1.015-.1-.279-.029-.558-.056-.836-.088-.346-.04-.691-.086-1.037-.131-.272-.036-.544-.07-.817-.11-.408-.059-.818-.126-1.227-.193-.226-.037-.451-.071-.676-.11-.522-.091-1.043-.192-1.565-.3-.122-.025-.244-.044-.366-.07a14.511,14.511,0,0,1-2.375-7.818l-.018,6.415a14.508,14.508,0,0,0,2.375,7.817l.048.01c.106.021.212.039.318.06.522.1,1.043.206,1.565.3.226.04.451.073.677.11.409.068.818.134,1.227.194l.18.029c.213.029.424.052.637.08.346.045.691.091,1.036.131.28.033.558.06.837.088.338.035.678.069,1.015.1.091.008.182.019.272.026.19.016.379.025.569.039.339.025.679.049,1.018.069.28.017.56.029.84.042.338.015.674.029,1.011.04.121,0,.242.011.364.014.147,0,.293,0,.44,0q.579.011,1.157.012c.259,0,.517,0,.775,0,.392,0,.782-.013,1.173-.023.168,0,.336,0,.5-.01.072,0,.145-.008.217-.011.67-.025,1.337-.057,2-.1l.048,0c.682-.046,1.362-.1,2.038-.17.066-.006.133-.01.2-.016.1-.01.191-.025.288-.035.809-.083,1.613-.178,2.413-.288.064-.009.129-.016.194-.025.834-.118,1.662-.253,2.484-.4.091-.016.183-.028.274-.044s.172-.035.258-.051c.721-.133,1.439-.272,2.15-.426l.111-.025c.68-.148,1.353-.307,2.022-.472q.281-.069.56-.141.95-.242,1.885-.506c.071-.021.144-.039.214-.06.685-.2,1.362-.4,2.034-.618.072-.023.147-.044.219-.067.118-.037.232-.079.349-.118q.648-.212,1.288-.435c.188-.065.377-.13.564-.2q.8-.285,1.581-.585l.193-.072q.875-.338,1.728-.7c.166-.069.33-.14.494-.211q.617-.262,1.226-.535l.548-.249q.626-.287,1.238-.584c.138-.067.279-.133.416-.2q.805-.4,1.59-.806c.108-.056.213-.115.32-.172q.624-.331,1.233-.671l.5-.282q.535-.306,1.058-.618c.1-.06.2-.116.3-.176.054-.033.1-.067.158-.1.493-.3.98-.6,1.456-.912l.018-6.415C319.268,186.767,318.781,187.071,318.288,187.371Z" transform="translate(-265.841 -166.356)"/><g transform="translate(0.018)"><path class="z" d="M319.749,181.255c-12.843,8.328-32.151,13.786-51.509,9.766-7-11.2,2.353-22.4,16.688-29.87L307,168.5Z" transform="translate(-265.864 -161.152)"/></g><g transform="translate(3.155 2.251)"><path class="aa" d="M316.672,181.583a67.164,67.164,0,0,1-20.528,8.058,62.915,62.915,0,0,1-24.617.524c-2.533-4.611-2.259-9.4.821-14.262,2.706-4.264,7.469-8.362,13.844-11.917l19.319,6.429Z" transform="translate(-269.813 -163.986)"/></g><g transform="translate(15.304 13.099)"><path class="ab" d="M304.378,182.232l.013,2.734H285.148l-.041-7.326h4.718l.028,4.591Z" transform="translate(-285.107 -177.641)"/></g></g><g transform="translate(13.533 127.568)"><path class="ac" d="M277.016,315.04l-11.176-6.459V431.5l11.176,6.459Z" transform="translate(-265.841 -308.58)"/><path class="ad" d="M265.841,461.64l11.175,6.459V455.18Z" transform="translate(-265.841 -338.724)"/></g><path class="ae" d="M288.741,292.362,248.8,269.279V479.157l39.937,23.082L328.5,479.157V269.279Z" transform="translate(-248.805 -172.931)"/></g><g transform="translate(515.19 66.715)"><g transform="translate(0 38.757)"><g class="d"><path class="e" d="M846.433,144.983,825.4,157.194l-21.126-12.21L825.4,132.773Z" transform="translate(-804.272 -132.773)"/><path class="f" d="M851.9,148.144V334.181l-21.035,12.211V160.354Z" transform="translate(-809.741 -135.933)"/><path class="g" d="M825.4,160.354V346.391l-21.126-12.21V148.144Z" transform="translate(-804.272 -135.933)"/></g></g><path class="m" d="M830.867,163.509,851.9,151.3v-.508L830.867,163Z" transform="translate(-809.741 -97.721)"/><path class="n" d="M804.272,151.3l21.126,12.21V163l-21.126-12.21Z" transform="translate(-804.272 -97.721)"/><path class="x" d="M806.514,83.984l7.208,50.967,12.118,7,12.066-7,7.208-50.967Z" transform="translate(-804.733 -83.984)"/><g transform="translate(8.988 43.963)"><path class="p" d="M839.772,146.331l-12.066,7-12.118-7,12.118-7Z" transform="translate(-815.587 -139.327)"/></g><g transform="translate(7.159 5.53)"><path class="y" d="M841.029,104.815l-.242.145q-.277.166-.56.327l-.263.149c-.215.12-.433.239-.653.356-.056.03-.111.06-.168.09-.276.145-.557.288-.841.427l-.221.106c-.216.1-.434.207-.655.309l-.29.131q-.322.144-.648.284l-.261.111c-.3.126-.606.249-.914.369l-.1.037q-.415.16-.838.31c-.1.036-.2.07-.3.1-.225.079-.452.155-.68.23l-.3.1c-.356.114-.713.223-1.076.327l-.112.031q-.5.141-1,.268l-.3.075c-.354.087-.711.172-1.07.249l-.059.013c-.377.081-.756.155-1.138.226l-.281.05c-.435.076-.872.149-1.314.211l-.1.014c-.423.058-.848.108-1.275.153l-.26.027c-.358.034-.716.065-1.076.09l-.033,0q-.524.035-1.053.053c-.127,0-.254.008-.381.011-.206.006-.413.01-.62.013h-.41q-.306,0-.612-.006c-.141,0-.283,0-.425-.01-.178-.006-.357-.013-.535-.021-.148-.007-.3-.013-.445-.022-.179-.01-.359-.024-.539-.037-.148-.011-.3-.022-.445-.035-.179-.015-.357-.033-.537-.052-.148-.015-.295-.029-.442-.047-.183-.021-.366-.045-.549-.069-.144-.019-.288-.037-.431-.058-.216-.031-.433-.067-.649-.1-.12-.019-.239-.037-.358-.058-.276-.048-.551-.1-.828-.157-.064-.014-.129-.024-.194-.037a7.68,7.68,0,0,1-1.256-4.136l-.01,3.394a7.68,7.68,0,0,0,1.257,4.136l.026.006.168.032c.276.056.552.109.828.157.119.021.239.039.358.058.216.036.433.071.649.1.032,0,.064.011.1.015.112.016.224.029.337.043.183.024.365.048.548.07.148.017.295.031.442.046.179.018.358.037.537.052l.144.014c.1.009.2.014.3.021.18.014.359.026.539.037.149.009.3.016.445.022.178.008.357.015.535.021.064,0,.128.006.192.008l.233,0q.306.006.612.006c.137,0,.274,0,.411,0q.311,0,.62-.013c.089,0,.178,0,.266,0l.115-.006q.532-.019,1.059-.053l.025,0c.361-.024.72-.055,1.079-.09l.1-.009c.052,0,.1-.013.153-.018.428-.044.854-.095,1.277-.153l.1-.014c.442-.062.879-.133,1.314-.211.048-.009.1-.014.145-.023s.091-.018.136-.027q.573-.1,1.138-.226l.06-.014c.359-.078.716-.162,1.07-.249l.3-.074q.5-.129,1-.268l.114-.032c.362-.1.72-.214,1.076-.326l.116-.036.184-.062q.343-.112.681-.23l.3-.1q.422-.151.836-.31l.1-.038c.308-.119.612-.243.914-.369l.261-.111q.326-.139.648-.284c.1-.043.194-.087.29-.131q.331-.151.655-.309c.073-.035.148-.07.22-.106.284-.14.565-.281.841-.427l.169-.091q.33-.175.652-.355l.263-.149c.189-.107.375-.217.56-.326l.158-.093.084-.052c.26-.159.518-.319.77-.482l.01-3.394C841.547,104.5,841.289,104.656,841.029,104.815Z" transform="translate(-813.284 -93.698)"/><g transform="translate(0.01)"><path class="z" d="M841.8,101.58a37.529,37.529,0,0,1-27.248,5.166c-3.705-5.926,1.246-11.851,8.829-15.8l11.676,3.885Z" transform="translate(-813.297 -90.945)"/></g><g transform="translate(1.67 1.191)"><path class="aa" d="M840.174,101.753a35.536,35.536,0,0,1-10.859,4.263,33.292,33.292,0,0,1-13.022.276,6.988,6.988,0,0,1,.435-7.544,20.179,20.179,0,0,1,7.324-6.3l10.22,3.4Z" transform="translate(-815.386 -92.444)"/></g><g transform="translate(8.096 6.929)"><path class="ab" d="M833.67,102.1l.007,1.446H823.5l-.022-3.875h2.5l.015,2.429Z" transform="translate(-823.476 -99.668)"/></g></g><path class="af" d="M838.127,130.129l6.526-46.145h-38.6l6.529,46.165-8.309,4.8V320.989L825.4,333.2l21.035-12.211V134.951Z" transform="translate(-804.272 -83.984)"/></g><g transform="translate(526.431 14.906)"><g transform="translate(0 109.222)"><g class="d"><path class="e" d="M992.471,206.665l-86.835,50.408-87.213-50.407,87.213-50.408Z" transform="translate(-818.423 -156.258)"/><path class="f" d="M1015.046,219.713V455.848l-86.835,50.408V270.121Z" transform="translate(-840.997 -169.306)"/><path class="g" d="M905.636,270.121V506.256l-87.213-50.407V219.714Z" transform="translate(-818.423 -169.306)"/></g></g><path class="m" d="M928.211,282.348l86.835-50.408v-1.3l-86.835,50.408Z" transform="translate(-840.997 -62.33)"/><path class="n" d="M818.423,231.941l87.213,50.407v-1.3L818.423,230.64Z" transform="translate(-818.423 -62.33)"/><g transform="translate(19.007 195.099)"><path class="ac" d="M853.525,270.823l-11.176-6.459V387.279l11.176,6.459Z" transform="translate(-842.35 -264.364)"/><path class="ad" d="M842.35,417.423l11.175,6.459V410.964Z" transform="translate(-842.35 -294.507)"/></g><g transform="translate(38.185 206.048)"><path class="ac" d="M877.667,284.605l-11.176-6.459V401.061l11.176,6.459Z" transform="translate(-866.491 -278.146)"/><path class="ad" d="M866.491,431.205l11.175,6.459V424.746Z" transform="translate(-866.491 -308.289)"/></g><path class="x" d="M851.931,18.765,874.49,145.141l37.929,17.367,37.764-17.367L972.743,18.765Z" transform="translate(-825.313 18.935)"/><g transform="translate(49.178 137.598)"><path class="p" d="M956.023,213.9l-37.764,21.922L880.33,213.9l37.929-21.922Z" transform="translate(-880.33 -191.979)"/></g></g><g transform="translate(403.376 209.619)"><g transform="translate(0 57.231)"><g class="d"><path class="e" d="M837.565,386.328l-86.835,50.408-87.213-50.407,87.213-50.408Z" transform="translate(-663.516 -335.921)"/><path class="f" d="M860.139,399.376V524.04L773.3,574.448V449.784Z" transform="translate(-686.09 -348.969)"/><path class="g" d="M750.729,449.784V574.448l-87.213-50.407V399.377Z" transform="translate(-663.516 -348.969)"/></g><path class="m" d="M773.3,462.012,860.139,411.6v-1.3L773.3,460.711Z" transform="translate(-686.09 -351.215)"/><path class="n" d="M663.516,411.6l87.213,50.407v-1.3L663.516,410.3Z" transform="translate(-663.516 -351.216)"/></g><g transform="translate(39.304 76.547)"><g class="d"><path class="ag" d="M802.955,382.767c-.006.066-.01.133-.023.2s-.025.106-.04.16-.032.125-.054.188-.042.1-.064.152-.057.132-.092.2c-.025.047-.056.093-.084.139-.045.074-.094.147-.148.219-.032.043-.066.084-.1.126a3.521,3.521,0,0,1-.266.286c-.034.034-.066.068-.1.1-.06.054-.126.106-.191.158s-.114.094-.176.139-.147.1-.223.149-.154.1-.239.154l-53,30.8a9.778,9.778,0,0,1-8.867,0l-24.427-14.1A3.138,3.138,0,0,1,713,399.248l-.009,3.238a3.137,3.137,0,0,0,1.85,2.586l24.426,14.1a9.778,9.778,0,0,0,8.867,0l53-30.8.076-.045c.058-.035.108-.073.163-.109.076-.049.153-.1.224-.149s.118-.093.176-.139.131-.1.191-.158c.012-.011.026-.021.038-.032s.041-.048.065-.07a3.655,3.655,0,0,0,.265-.286c.018-.021.041-.041.058-.062s.028-.044.044-.064c.054-.072.1-.145.147-.218.019-.031.044-.061.062-.092.009-.016.014-.033.022-.049.035-.064.064-.129.091-.195.017-.038.039-.075.053-.114.006-.013.007-.026.012-.04.021-.062.037-.125.053-.187.011-.042.028-.083.037-.126,0-.011,0-.022,0-.034.012-.066.017-.132.023-.2,0-.043.013-.085.014-.128,0-.018,0-.037,0-.056l.01-3.237C802.971,382.644,802.961,382.706,802.955,382.767Z" transform="translate(-712.994 -364.832)"/><g transform="translate(0.01)"><path class="ah" d="M801.124,375.4c2.455,1.417,2.468,3.719.029,5.136l-53,30.8a9.778,9.778,0,0,1-8.867,0l-24.427-14.1c-2.455-1.417-2.467-3.719-.029-5.136l53-30.8a9.779,9.779,0,0,1,8.868,0Zm-54.248,35.2,53-30.8c1.739-1.01,1.729-2.656-.021-3.667l-2.2-1.27-3.32.091-16.849-9.728.146-1.923-2.2-1.271a6.987,6.987,0,0,0-6.33,0l-53,30.8c-1.738,1.01-1.729,2.656.021,3.666l24.426,14.1a6.986,6.986,0,0,0,6.329,0" transform="translate(-713.006 -360.237)"/></g><g transform="translate(1.805 1.041)"><path class="ai" d="M800.324,376.407c1.75,1.01,1.759,2.656.021,3.667l-53,30.8a6.986,6.986,0,0,1-6.329,0l-24.426-14.1c-1.749-1.01-1.759-2.656-.021-3.666l53-30.8a6.987,6.987,0,0,1,6.33,0l2.2,1.271-.146,1.923,16.849,9.728,3.321-.091Z" transform="translate(-715.267 -361.547)"/></g><g transform="translate(1.805 1.041)"><path class="ai" d="M800.324,376.407c1.75,1.01,1.759,2.656.021,3.667l-53,30.8a6.986,6.986,0,0,1-6.329,0l-24.426-14.1c-1.749-1.01-1.759-2.656-.021-3.666l53-30.8a6.987,6.987,0,0,1,6.33,0l2.2,1.271-.146,1.923,16.849,9.728,3.321-.091Z" transform="translate(-715.267 -361.547)"/></g></g></g><g transform="translate(46.165 41.182)"><g class="aj" transform="translate(0 46.205)"><path class="ak" d="M734.984,375.215c3.066,1.771,3.083,4.635.036,6.406a12.18,12.18,0,0,1-11.073.008c-3.067-1.771-3.1-4.643-.037-6.422A12.207,12.207,0,0,1,734.984,375.215Z" transform="translate(-721.631 -373.883)"/></g><g transform="translate(0.573)"><path class="al" d="M725.527,377.275s-.442.055-.525.226a12.073,12.073,0,0,0-.119,1.831,11.359,11.359,0,0,0,2.254,1.7c1.089.559,2.03.8,2.451.435s.161-.79-.736-1.518a9.289,9.289,0,0,1-1.761-2.676Z" transform="translate(-722.872 -328.376)"/><path class="al" d="M732.736,374.375s-.442.056-.524.226a12.16,12.16,0,0,0-.12,1.831,11.357,11.357,0,0,0,2.254,1.7c1.089.559,2.03.8,2.451.435s.16-.79-.736-1.519a9.271,9.271,0,0,1-1.761-2.676Z" transform="translate(-724.354 -327.78)"/><path class="am" d="M736.73,344.724s-.033.582-.056.692a7.015,7.015,0,0,0-.531,1.092.646.646,0,0,0,.254.446,3.4,3.4,0,0,0,.063.653c.053.11.55.04.605.068s.373.23.585.141a7.883,7.883,0,0,0,.873-.349,11.371,11.371,0,0,0-.136-3.267c-.089-.464-.5-11.187-.749-11.107C737.148,333.253,736.73,344.724,736.73,344.724Z" transform="translate(-725.188 -319.291)"/><path class="an" d="M738.085,333.059c-.22-1.061-.49-2.292-.722-3.141-.489-1.787-.843-3.174-1.886-3.2l-.356,6.059s.111.914.3,1.95A19.4,19.4,0,0,0,738.085,333.059Z" transform="translate(-724.978 -317.98)"/><path class="al" d="M724.832,348.7l-.081,22.819a2.8,2.8,0,0,0,2.726-.06s2.583-19.713,2.626-20.181c.04-.431.365,18,.365,18a2.4,2.4,0,0,0,2.819-.329l1.437-21.832Z" transform="translate(-722.845 -322.174)"/><path class="an" d="M726.882,327.414a12.669,12.669,0,0,0-3.213,1.865l.941,15.186s1.964,1.437,5.979.387c3.271-.856,4.131-2.234,4.131-2.234s.3-7.462-.009-10.619a14.084,14.084,0,0,0-1.589-5.323,9.345,9.345,0,0,0-2.288-.125Z" transform="translate(-722.623 -317.942)"/><path class="al" d="M731.749,315.935a4.256,4.256,0,0,0-2.048-.168,2.9,2.9,0,0,0-2.882,2.388,6.269,6.269,0,0,0,.71,3.387c.608,1.385,1.029.882,1.029.882l3.517-1.418a3.926,3.926,0,0,0,1.082-.464c.43-.377.289-1.021.367-1.525a2.552,2.552,0,0,0-.163-1.874,2.811,2.811,0,0,0-1.313-1.088C731.946,316.01,731.847,315.97,731.749,315.935Z" transform="translate(-723.262 -315.719)"/><path class="am" d="M728.355,324.845l-.091-3.041a.711.711,0,0,1-.634-.9c.132-.837.915-.287,1.053-.04,0,0,.176-2.884,1.7-3.162s3.01.051,3.049.8.088,3.345,0,4.312-.845,1.362-2.242,1.323l.1,1.564s-.7.514-2.656.036Z" transform="translate(-723.434 -316.107)"/><path class="an" d="M731.235,326.232a1.051,1.051,0,0,1,.372.055,1.863,1.863,0,0,1,.677,1.235,4.406,4.406,0,0,1-.236,1.322l-1.267-1.142-.8,1.538a3.245,3.245,0,0,1-1.179-.611,4.447,4.447,0,0,1-1.092-1.277c.219-.556.368-.887.368-.887.052-.127.293-.187.293-.187a5.273,5.273,0,0,0,2.406,1.283S731.158,327.385,731.235,326.232Z" transform="translate(-723.455 -317.881)"/><path class="am" d="M724.393,347.5s.15.562.195.666.681.726.74.963a.646.646,0,0,1-.159.489,3.365,3.365,0,0,1,.07.651c-.029.118-.531.15-.578.188s-.319.3-.544.257a7.758,7.758,0,0,1-.926-.165,11.381,11.381,0,0,1-.526-3.227c-.006-.528.176-11.063.176-11.063.146.035,2.3.859,2.3.859Z" transform="translate(-722.416 -319.943)"/><path class="an" d="M725.2,336.54c.029-1.335.082-2.785.065-3.137-.059-1.194-.057-4.554-1.868-3.468-.731.438-.9,3.695-1.046,5.89A5.532,5.532,0,0,0,725.2,336.54Z" transform="translate(-722.352 -318.598)"/></g><path class="al" d="M733.977,318.655a1.077,1.077,0,0,0-.083-1.066,2.036,2.036,0,0,0-.857-.7c-.836-.4-3.176-.846-3.241.606-.032.724.593,1.928,1.458,1.778.371-.065.59-.412,1-.3.2.058.759.579.783.022A.762.762,0,0,0,733.977,318.655Z" transform="translate(-723.309 -315.878)"/><path class="al" d="M728.34,320.275a2.223,2.223,0,0,1,.781,1.446l.291.007c-.014-.385.014-.728,0-1.113a2.659,2.659,0,0,0,.62-2.28c-.071-.327-.266-.689-.6-.719s-.592.3-.735.6A3.837,3.837,0,0,0,728.34,320.275Z" transform="translate(-723.005 -316.109)"/></g><path class="ao" d="M695.439,263.877c.238,14.767,15.78,111.286,15.78,111.286l.022,0a2.4,2.4,0,0,0,1.267,1.532l24.426,14.1a6.986,6.986,0,0,0,6.329,0l53-30.8a2.221,2.221,0,0,0,1.295-1.815h0s8.993-59.2,13.38-94.3Z" transform="translate(-670.08 -263.877)"/><g transform="translate(77.215 37.544)"><g class="d"><path class="r" d="M781.677,370.7c-.345.2-.62.041-.622-.354a1.356,1.356,0,0,1,.617-1.07l3.029-1.748c.344-.2.62-.041.621.354a1.352,1.352,0,0,1-.617,1.069l-3.028,1.748m-15.251,5.8c-.344.2-.62.041-.622-.354a1.353,1.353,0,0,1,.618-1.061l5.048-2.915c.336-.194.612-.037.613.35a1.35,1.35,0,0,1-.609,1.065l-5.047,2.915m-.009-2.988c-.344.2-.62.041-.621-.354a1.354,1.354,0,0,1,.617-1.07l12.137-7.007c.337-.194.613-.037.614.359a1.352,1.352,0,0,1-.609,1.065l-12.137,7.007m14.539-8.394c-.345.2-.62.041-.622-.354a1.353,1.353,0,0,1,.618-1.069l3.731-2.154c.345-.2.62-.041.622.354a1.355,1.355,0,0,1-.617,1.069l-3.732,2.154m6.838,2.046-.029-10.379,7.312-4.221.029,10.379-7.312,4.221m-21.385,3.351c-.344.2-.62.041-.621-.346a1.355,1.355,0,0,1,.617-1.069l3.733-2.154c.344-.2.62-.041.621.354a1.353,1.353,0,0,1-.617,1.06l-3.733,2.154m6.134-3.541c-.345.2-.62.041-.622-.345a1.356,1.356,0,0,1,.617-1.07l12.137-7.007c.344-.2.62-.041.621.354a1.352,1.352,0,0,1-.617,1.061l-12.137,7.006m-6.151-2.443c-.344.2-.62.041-.621-.346a1.352,1.352,0,0,1,.617-1.069l5.789-3.343c.344-.2.62-.041.621.354a1.35,1.35,0,0,1-.617,1.061l-5.789,3.343m-.009-2.988c-.344.2-.62.041-.621-.354a1.354,1.354,0,0,1,.617-1.061L789,347.071c.344-.2.62-.041.621.346a1.354,1.354,0,0,1-.617,1.069l-22.622,13.06M791.407,347.1c-.337.194-.621.041-.622-.354a1.364,1.364,0,0,1,.618-1.06l3.028-1.748c.344-.2.62-.041.621.346a1.353,1.353,0,0,1-.617,1.069l-3.028,1.748m-25.032,11.459c-.344.2-.62.033-.622-.354a1.354,1.354,0,0,1,.618-1.069L784.1,346.9c.344-.2.62-.041.621.354a1.367,1.367,0,0,1-.617,1.069l-17.727,10.235M786.8,346.765c-.336.195-.612.028-.614-.358a1.353,1.353,0,0,1,.61-1.065l7.625-4.4c.345-.2.62-.041.622.354a1.368,1.368,0,0,1-.618,1.07l-7.625,4.4m-20.435,8.8c-.344.2-.62.041-.621-.354a1.35,1.35,0,0,1,.617-1.06l28.052-16.2c.344-.2.62-.041.621.346a1.354,1.354,0,0,1-.617,1.069l-28.052,16.2m-.38-4.349-.044-15.4,29.038-16.765.044,15.4-29.038,16.765m32.435-39.833L762.47,332.136a3.864,3.864,0,0,0-1.753,3.037l.143,50.353c0,1.116.793,1.567,1.764,1.006l35.952-20.756a3.867,3.867,0,0,0,1.753-3.037l-.143-50.354c0-1.116-.794-1.567-1.764-1.006" transform="translate(-760.717 -311.138)"/><path class="p" d="M796.334,321.1,767.3,337.866l.044,15.4L796.378,336.5l-.044-15.4" transform="translate(-762.07 -313.187)"/><path class="p" d="M795.716,344.87l-28.052,16.2a1.349,1.349,0,0,0-.617,1.06c0,.4.277.553.621.354l28.052-16.2a1.354,1.354,0,0,0,.617-1.069c0-.387-.277-.544-.621-.346" transform="translate(-762.019 -318.056)"/><path class="p" d="M785.4,356.135,767.675,366.37a1.354,1.354,0,0,0-.618,1.069c0,.387.278.553.622.354l17.727-10.235a1.368,1.368,0,0,0,.617-1.069c0-.4-.277-.553-.621-.354" transform="translate(-762.021 -320.373)"/><path class="p" d="M801.016,348.631l-7.625,4.4a1.353,1.353,0,0,0-.61,1.065c0,.386.278.553.614.358l7.624-4.4a1.368,1.368,0,0,0,.618-1.07c0-.395-.277-.553-.622-.354" transform="translate(-767.31 -318.83)"/><path class="p" d="M790.308,356.35l-22.622,13.06a1.355,1.355,0,0,0-.617,1.061c0,.395.277.553.621.353l22.622-13.06a1.354,1.354,0,0,0,.617-1.069c0-.387-.277-.544-.621-.346" transform="translate(-762.023 -320.417)"/><path class="p" d="M802.214,352.4l-3.028,1.748a1.364,1.364,0,0,0-.618,1.06c0,.4.285.548.622.354l3.028-1.748a1.353,1.353,0,0,0,.617-1.069c0-.387-.277-.544-.621-.346" transform="translate(-768.5 -319.606)"/><path class="p" d="M773.486,372.345l-5.789,3.343a1.352,1.352,0,0,0-.617,1.069c0,.387.277.544.621.346l5.789-3.343a1.35,1.35,0,0,0,.617-1.06c0-.4-.277-.553-.621-.354" transform="translate(-762.025 -323.706)"/><path class="p" d="M789.761,374.569l-3.731,2.154a1.353,1.353,0,0,0-.618,1.069c0,.4.277.553.622.354l3.732-2.154a1.355,1.355,0,0,0,.617-1.069c0-.4-.277-.553-.622-.354" transform="translate(-765.795 -324.163)"/><path class="p" d="M779.865,379.027l-12.137,7.007a1.355,1.355,0,0,0-.617,1.07c0,.395.277.553.621.354l12.137-7.007a1.352,1.352,0,0,0,.609-1.065c0-.4-.277-.553-.614-.359" transform="translate(-762.032 -325.08)"/><path class="p" d="M789.965,382.1l-3.029,1.748a1.356,1.356,0,0,0-.617,1.07c0,.395.277.553.622.353l3.028-1.748a1.352,1.352,0,0,0,.617-1.069c0-.4-.277-.553-.621-.354" transform="translate(-765.981 -325.712)"/><path class="p" d="M772.787,387.951l-5.048,2.915a1.353,1.353,0,0,0-.618,1.06c0,.4.278.553.622.354l5.048-2.915a1.35,1.35,0,0,0,.609-1.064c0-.387-.277-.544-.613-.35" transform="translate(-762.034 -326.915)"/><path class="p" d="M771.45,381.374l-3.733,2.154a1.356,1.356,0,0,0-.617,1.069c0,.387.277.544.621.346l3.733-2.154a1.353,1.353,0,0,0,.617-1.06c0-.4-.277-.553-.621-.354" transform="translate(-762.029 -325.562)"/><path class="p" d="M787.576,370.807l-12.137,7.007a1.356,1.356,0,0,0-.617,1.07c0,.386.277.544.622.345l12.137-7.006a1.352,1.352,0,0,0,.617-1.061c0-.395-.277-.553-.621-.354" transform="translate(-763.617 -323.39)"/><path class="p" d="M802.077,363.292l-7.311,4.221.029,10.378,7.311-4.221-.029-10.378" transform="translate(-767.718 -321.862)"/></g></g></g><g transform="translate(136.645 205.372)"><path class="ap" d="M327.745,258.531V381.447L383.9,413.9l55.912-32.457V258.531Z" transform="translate(-327.745 -258.531)"/><g transform="translate(0 62.374)"><g class="d"><path class="e" d="M439.812,369.506,383.9,401.963l-56.155-32.456L383.9,337.05Z" transform="translate(-327.745 -337.05)"/><path class="f" d="M454.347,377.907V500.823L398.435,533.28V410.364Z" transform="translate(-342.28 -345.451)"/><path class="g" d="M383.9,410.364V533.28l-56.155-32.456V377.908Z" transform="translate(-327.745 -345.451)"/></g><path class="m" d="M398.435,418.749l55.912-32.457v-1.349L398.435,417.4Z" transform="translate(-342.28 -346.897)"/><path class="n" d="M327.745,386.292,383.9,418.749V417.4l-56.155-32.456Z" transform="translate(-327.745 -346.897)"/></g><g transform="translate(65.138 82.602)"><path class="aq" d="M424.423,392.925a12.94,12.94,0,0,0-11.742-.008c-3.245,1.886-3.214,4.932.038,6.809a12.918,12.918,0,0,0,11.742-.009C427.692,397.84,427.675,394.8,424.423,392.925Z" transform="translate(-409.85 -368.476)"/><path class="al" d="M428.158,419.28s-.425.053-.5.217a11.632,11.632,0,0,0-.115,1.758,10.946,10.946,0,0,0,2.164,1.636c1.045.536,1.949.77,2.354.417s.154-.759-.706-1.458a8.883,8.883,0,0,1-1.691-2.57Z" transform="translate(-413.402 -374.185)"/><path class="al" d="M430.684,413.875s-.424-.056-.543.082a11.664,11.664,0,0,0-.558,1.671,10.914,10.914,0,0,0,1.678,2.132c.875.785,1.69,1.24,2.17,1s.342-.7-.313-1.59a8.913,8.913,0,0,1-.983-2.915Z" transform="translate(-413.823 -373.072)"/><path class="al" d="M413.48,391.8c-.033,1.988.224,5.147,1.25,5.851,1.563,1.074,7.987,6.007,7.987,6.007l1.748,10.149a2.19,2.19,0,0,0,2.783,0s-1.139-11.412-1.385-12.414-6.179-7.453-6.179-7.453Z" transform="translate(-410.511 -368.536)"/><path class="al" d="M420.107,390.488c-.537,1.914-.91,4.182-.041,5.072.941.964,10.684,3.869,10.684,3.869l-2.885,9.7a2.192,2.192,0,0,0,2.692.707s5.2-11.087,5.212-12.118-9.807-5.789-9.807-5.789Z" transform="translate(-411.759 -368.265)"/><g transform="translate(7.346 20.384)"><g class="d"><g transform="translate(7.128 5.885)"><path class="ar" d="M437.5,395.683l-9.534,5.541a.11.11,0,0,0,.047-.1l9.534-5.541A.11.11,0,0,1,437.5,395.683Z" transform="translate(-427.964 -395.582)"/></g><g transform="translate(7.175 5.679)"><path class="ar" d="M428.024,400.863l9.534-5.541v.206l-9.534,5.541Z" transform="translate(-428.023 -395.323)"/></g><g transform="translate(0 1.46)"><path class="as" d="M418.992,395.552l9.534-5.541,7.115,4.108-9.534,5.541Z" transform="translate(-418.992 -390.012)"/></g><g transform="translate(4.043 3.673)"><path class="al" d="M434.588,394.424c.144.083.152.22,0,.307l-7.163,4.163a.592.592,0,0,1-.53,0l-2.71-1.564c-.144-.083-.137-.22.006-.3l7.163-4.163a.57.57,0,0,1,.523,0Z" transform="translate(-424.081 -392.798)"/></g><path class="as" d="M428.467,399.772l2.957-5.221,9.534-5.541L438,394.232a.076.076,0,0,1-.03.034l-9.534,5.541A.074.074,0,0,0,428.467,399.772Z" transform="translate(-420.933 -388.346)"/><g transform="translate(0 5.541)"><path class="as" d="M429.257,395.149l.08.084a.574.574,0,0,1,.145.581l-2.957,5.221c-.111.241-.433.14-.519.091l-6.69-3.863a.718.718,0,0,1-.325-.562v-.092l7.115,4.109Z" transform="translate(-418.991 -395.149)"/></g><path class="as" d="M431.914,393.715l9.534-5.541.08.084a.574.574,0,0,1,.145.581l-9.534,5.541a.574.574,0,0,0-.145-.581Z" transform="translate(-421.648 -388.174)"/></g><g transform="translate(5.565 3.184)"><path class="al" d="M429.827,392.894c.063.037.067.1,0,.134L427.46,394.4a.259.259,0,0,1-.232,0l-1.186-.685c-.064-.037-.06-.1,0-.133l2.367-1.375a.248.248,0,0,1,.229,0Z" transform="translate(-425.996 -392.182)"/></g></g><path class="am" d="M425.611,379.955s1.048,2.662,1.265,3.387,2.685,5.079,2.83,5.3,1.959,1.671,1.959,1.888a.728.728,0,0,1-.725.7c-.581.067-2.141-1.065-2.141-1.065s-.4,1-.562-.2.306-1.016-.093-1.633c0,0-2.611-1.75-3.228-4a8.371,8.371,0,0,1-.072-4.137Z" transform="translate(-412.802 -366.1)"/><path class="as" d="M426.221,379.105c-.481-2.235-1.49-5.156-2.45-5.272l.883,6.378A3.805,3.805,0,0,0,426.221,379.105Z" transform="translate(-412.627 -364.841)"/><path class="as" d="M415.43,374.5a12.155,12.155,0,0,0-3.085,1.791l.9,12.711s1.887,1.381,5.742.372c3.141-.822,3.966-2.145,3.966-2.145a92.016,92.016,0,0,0-.008-9.26c-.295-3.03-1.526-4.176-1.526-4.176a8.979,8.979,0,0,0-2.2-.121Z" transform="translate(-410.278 -364.805)"/><path class="al" d="M420.269,363.8a7.608,7.608,0,0,0-4.013.245c-1.981.742-.825,3.564-.241,4.893s.988.846.988.846l4.317-1.74s.128-.134.044-1.936A2.582,2.582,0,0,0,420.269,363.8Z" transform="translate(-410.854 -362.745)"/><path class="am" d="M416.843,372.037l-.087-2.919a.682.682,0,0,1-.608-.86c.126-.8.879-.276,1.012-.039,0,0,.169-2.77,1.636-3.036s2.89.048,2.927.763.085,3.212,0,4.14-.812,1.308-2.153,1.271l.092,1.5s-.673.493-2.55.035Z" transform="translate(-411.057 -363.043)"/><path class="al" d="M419.61,373.37a1.01,1.01,0,0,1,.357.052,1.79,1.79,0,0,1,.65,1.185,4.232,4.232,0,0,1-.227,1.269l-1.216-1.1-.764,1.477a3.117,3.117,0,0,1-1.132-.586,4.26,4.26,0,0,1-1.049-1.226c.21-.534.353-.852.353-.852.05-.122.281-.18.281-.18a5.071,5.071,0,0,0,2.311,1.233S419.536,374.477,419.61,373.37Z" transform="translate(-411.077 -364.746)"/><path class="as" d="M412.549,383.568c.388-.989,1.247-3.375,1.011-4.628a2.514,2.514,0,0,0-1.75-1.962,18.6,18.6,0,0,0-2.067,4.883C410.686,382.416,411.609,383.006,412.549,383.568Z" transform="translate(-409.743 -365.488)"/><path class="al" d="M423.307,364.222a2.3,2.3,0,0,0-.409-.775c-.984-1.205-2.415-.5-3.682-.719a6.287,6.287,0,0,0-.888-.213,2.067,2.067,0,0,0-1.957,1.126c-.056.13-.113.271-.163.416a2.312,2.312,0,0,0-.138.686,12.515,12.515,0,0,0,.265,1.413,5.7,5.7,0,0,0,.842,2.077c.114-.035.227-.062.341-.091a1.833,1.833,0,0,1,.2-.923,1.54,1.54,0,0,0,.151-1.443,1.986,1.986,0,0,0,1.771.272,2.941,2.941,0,0,1,1.6.384,1.752,1.752,0,0,0,1.606.057,1.5,1.5,0,0,0,.562-1.115A2.878,2.878,0,0,0,423.307,364.222Z" transform="translate(-411.044 -362.513)"/><path class="am" d="M410.757,383.784s-.659,3.37-.078,4.047,6.1,3.966,6.554,4.437,1.98,1.778,3.005,1.755,1.547.944,2.061,1.041.435-1.225.283-1.73c-.182-.6-1.416-.713-1.416-.713s1.33-.653-.755-.381l-1.2-.2-6.1-5.843.122-1Z" transform="translate(-409.886 -366.887)"/></g><g class="at" transform="translate(31.489 25.385)"><path class="z" d="M375.679,349.613l-.016-5.84,3.971-2.293.017,5.839-3.972,2.293m15.119-8.729-.025-8.788,3.971-2.293.025,8.788-3.971,2.293m-15.135,2.89-.01-3.614,3.971-2.293.01,3.614-3.971,2.293m7.578,1.474-.029-10.234,3.966-2.29.029,10.234-3.966,2.29m15.114-8.726-.039-13.848,3.971-2.293.039,13.848-3.971,2.293m-7.582-4.425-.016-5.443,3.971-2.293.016,5.443-3.971,2.293m-7.562,2.918-.017-6.341,3.966-2.29.018,6.341-3.966,2.29m15.1-12.34-.025-8.572,3.971-2.293.025,8.573-3.971,2.293m-25.578,32.4c-.177.1-.32.021-.321-.176l-.078-27.59a.7.7,0,0,1,.319-.552c.172-.1.315-.018.315.186l.077,27.223,34.742-20.059c.178-.1.32-.021.321.183a.7.7,0,0,1-.319.546l-35.057,20.24M379.571,319c-.35.2-.635.04-.636-.363a1.392,1.392,0,0,1,.632-1.094l10.139-5.854c.35-.2.636-.04.636.362a1.4,1.4,0,0,1-.631,1.095L379.571,319m12.284-7.092c-.35.2-.635.04-.636-.362a1.393,1.393,0,0,1,.632-1.095l2.338-1.35c.35-.2.635-.04.636.363a1.392,1.392,0,0,1-.632,1.094l-2.338,1.35m-19.207,11.217,0-1.713,3.8-2.2,0,1.714-3.8,2.2m13.688-11.686a.461.461,0,0,1-.452.045.446.446,0,0,1-.184-.408l.014-.154.03-.152.06-.164.076-.155a1.3,1.3,0,0,1,.45-.462.477.477,0,0,1,.452-.06l.076.067.056.1.041.11.01.14a1.282,1.282,0,0,1-.181.619,1.332,1.332,0,0,1-.451.476m-6.775,3.912c-.35.2-.636.04-.636-.362a1.393,1.393,0,0,1,.632-1.095l4.91-2.834c.349-.2.635-.04.635.362a1.393,1.393,0,0,1-.632,1.095l-4.909,2.834m8.738-5.045c-.35.2-.635.04-.636-.362a1.392,1.392,0,0,1,.632-1.095l5.883-3.4c.35-.2.635-.04.636.362a1.4,1.4,0,0,1-.632,1.095l-5.883,3.4m-15.661,9.17,0-1.714,3.8-2.2,0,1.713-3.8,2.2m37.872-28.73-41.224,23.8a4.194,4.194,0,0,0-1.9,3.293l.124,43.727c0,1.207.858,1.694,1.913,1.085l41.224-23.8a4.182,4.182,0,0,0,1.9-3.286l-.124-43.727c0-1.207-.859-1.7-1.914-1.091" transform="translate(-367.385 -290.487)"/><path class="p" d="M373.941,336.135a.7.7,0,0,0-.319.552l.078,27.59c0,.2.144.279.321.176l35.057-20.24a.7.7,0,0,0,.319-.546c0-.2-.143-.285-.321-.183l-34.742,20.059-.077-27.223c0-.2-.143-.285-.315-.186" transform="translate(-368.667 -299.864)"/><path class="ab" d="M381.777,354.68l-3.971,2.293.017,5.84,3.971-2.293-.017-5.84" transform="translate(-369.528 -303.686)"/><path class="ab" d="M391.276,343.655l-3.966,2.29.029,10.234,3.966-2.29-.029-10.234" transform="translate(-371.482 -301.419)"/><path class="ab" d="M400.8,339.979l-3.971,2.293.025,8.789,3.971-2.293-.025-8.789" transform="translate(-373.439 -300.663)"/><path class="ab" d="M410.294,328.118l-3.971,2.293.039,13.847,3.971-2.293-.039-13.847" transform="translate(-375.391 -298.225)"/><path class="p" d="M381.764,350.131l-3.971,2.293.01,3.613,3.971-2.293-.01-3.613" transform="translate(-369.525 -302.751)"/><path class="p" d="M391.253,335.673l-3.966,2.29.018,6.341,3.966-2.29-.018-6.341" transform="translate(-371.477 -299.778)"/><path class="p" d="M400.78,333.127l-3.971,2.293.015,5.443,3.971-2.293-.015-5.443" transform="translate(-373.435 -299.254)"/><path class="p" d="M410.263,317.326l-3.971,2.293.024,8.573,3.971-2.293-.024-8.573" transform="translate(-375.385 -296.006)"/><path class="ab" d="M377.795,322.062l-3.8,2.2,0,1.713,3.8-2.2,0-1.714" transform="translate(-368.743 -296.979)"/><path class="ab" d="M377.808,326.654l-3.8,2.2,0,1.713,3.8-2.2,0-1.713" transform="translate(-368.746 -297.924)"/><path class="p" d="M387.453,316.365l-4.91,2.834a1.393,1.393,0,0,0-.632,1.095c0,.4.286.565.636.362l4.909-2.834a1.393,1.393,0,0,0,.632-1.095c0-.4-.286-.565-.636-.362" transform="translate(-370.372 -295.79)"/><path class="p" d="M391.073,315.018a1.3,1.3,0,0,0-.45.462l-.076.155-.06.164-.03.152-.014.154a.446.446,0,0,0,.184.408.461.461,0,0,0,.452-.045,1.333,1.333,0,0,0,.451-.476,1.281,1.281,0,0,0,.181-.619l-.01-.14-.041-.11-.056-.1-.076-.067a.477.477,0,0,0-.452.06" transform="translate(-372.126 -295.511)"/><path class="p" d="M399.427,309.306l-5.883,3.4a1.392,1.392,0,0,0-.632,1.095c0,.4.286.564.636.362l5.883-3.4a1.4,1.4,0,0,0,.632-1.095c0-.4-.286-.565-.636-.362" transform="translate(-372.634 -294.339)"/><path class="p" d="M392.694,317.158l-10.139,5.854a1.391,1.391,0,0,0-.632,1.094c0,.4.286.565.636.363l10.139-5.854a1.4,1.4,0,0,0,.632-1.095c0-.4-.286-.564-.636-.362" transform="translate(-370.375 -295.953)"/><path class="p" d="M400.357,313.9l-2.338,1.35a1.393,1.393,0,0,0-.632,1.095c0,.4.287.564.636.362l2.338-1.35a1.392,1.392,0,0,0,.632-1.094c0-.4-.286-.565-.636-.363" transform="translate(-373.554 -295.283)"/></g></g><g transform="translate(65.471 342.479)"><g class="d"><path class="j" d="M255.635,436.19l-8.725,5.065-8.763-5.065,8.763-5.065Z" transform="translate(-238.148 -431.126)"/><path class="f" d="M257.9,437.5V561.616l-8.725,5.065V442.566Z" transform="translate(-240.416 -432.437)"/><path class="g" d="M246.911,442.566V566.681l-8.763-5.065V437.5Z" transform="translate(-238.148 -432.437)"/></g><path class="k" d="M246.911,431.126l-8.762,5.065V560.305l8.762,5.065,8.725-5.065V436.19Z" transform="translate(-238.148 -431.126)"/></g></g></g><g transform="translate(1031.707 161.342)"><path class="au" d="M686.99,224.373c.036-.606.06-1.215.06-1.831a30.452,30.452,0,0,0-39.589-29.032c0-.106.007-.211.007-.318a37.666,37.666,0,0,0-73.346-12.072A29.151,29.151,0,0,0,530.5,211.557a29.159,29.159,0,0,0,4.222,58.012H679.584a23.2,23.2,0,0,0,7.406-45.2Z" transform="translate(-496.556 -147.41)"/><path class="an" d="M677.048,215.417c.036-.606.06-1.216.06-1.831a30.452,30.452,0,0,0-39.59-29.032c0-.107.008-.212.008-.318a37.666,37.666,0,0,0-73.346-12.072A29.151,29.151,0,0,0,520.559,202.6a29.159,29.159,0,0,0,4.222,58.012H669.642a23.2,23.2,0,0,0,7.406-45.2Z" transform="translate(-495.621 -146.568)"/></g><g transform="translate(1048.069 231.974)"><path class="av" d="M0,27.027H27.611L54.633,0H0V27.027" transform="translate(0)"/><path class="aw" d="M32.929,8.748h-5.4l.018,12.69-4.7-12.695H18.195l-4.011,10.6c-.426-2.7-3.216-3.629-5.41-4.326-1.449-.465-2.987-1.15-2.972-1.907.012-.621.823-1.2,2.434-1.111a8.8,8.8,0,0,1,3.936,1.063L14.04,9.81A14.527,14.527,0,0,0,7.949,8.37H7.937a7.4,7.4,0,0,0-5.379,1.964,4.532,4.532,0,0,0-1.286,3.137,4.213,4.213,0,0,0,1.846,3.755A12.577,12.577,0,0,0,6.774,18.9c1.492.462,2.712.865,2.7,1.721a1.268,1.268,0,0,1-.354.84A2.365,2.365,0,0,1,7.384,22a7.429,7.429,0,0,1-4.452-1.271L1.27,24.03a11.549,11.549,0,0,0,5.874,1.535l.488,0A7.33,7.33,0,0,0,12.267,24.1c.07-.056.132-.112.2-.169l-.2,1.052,4.552-.014.817-2.091a8.933,8.933,0,0,0,2.872.455,9.027,9.027,0,0,0,2.8-.43l.569,2.066,8.168.008.02-4.767H33.8c4.2,0,6.685-2.138,6.685-5.724C40.482,10.488,38.068,8.748,32.929,8.748ZM20.5,19.6a4.881,4.881,0,0,1-1.722-.3l1.7-5.378h.033L22.19,19.31a5.044,5.044,0,0,1-1.69.286Zm12.744-3.09H32.06V12.172h1.186c1.58,0,2.841.526,2.841,2.139,0,1.67-1.261,2.2-2.841,2.2" transform="translate(-0.507 -3.343)"/><path class="a" d="M0,0H55.254V27.027H0Z" transform="translate(0)"/></g><g transform="translate(1111.291 229.008)"><path class="ax" d="M40.7,12.347,34.937,23.957,45.085,35.719,26.249,37.858l29.228.306L40.7,12.347Z" transform="translate(-16.507 -7.765)"/><path class="ax" d="M23.057,0,9.824,11.075,0,27.649l8.362-.84Z" transform="translate(0)"/><path class="ay" d="M124.039,31.581,117.709,47.1h2.152l1.646-4.351h7l1.749,4.351h2.14l-6.353-15.521Zm.944,1.883h.046a6.023,6.023,0,0,0,.253,1.039l2.589,6.613h-5.72l2.566-6.613a5.516,5.516,0,0,0,.265-1.039Zm48.941,2.295a5.153,5.153,0,0,0-3.878,1.634,5.839,5.839,0,0,0-1.553,4.211,5.962,5.962,0,0,0,1.427,4.254,5.149,5.149,0,0,0,3.924,1.5,7.161,7.161,0,0,0,4.108-1.061V44.635a6.019,6.019,0,0,1-3.659,1.234,3.776,3.776,0,0,1-2.785-1.007A4,4,0,0,1,170.448,42h8.32v-.931a5.634,5.634,0,0,0-1.266-3.907,4.567,4.567,0,0,0-3.579-1.407Zm-8.432.065a2.9,2.9,0,0,0-1.853.66,3.818,3.818,0,0,0-1.231,1.818h-.046V36.019h-1.887V47.1h1.887v-5.65a4.759,4.759,0,0,1,.806-2.922,2.462,2.462,0,0,1,2.025-1.072,2.417,2.417,0,0,1,1.427.357v-1.84a3.262,3.262,0,0,0-1.128-.151Zm-31.18.195v1.515h6.318l-6.974,9.016V47.1h9.678V45.587h-6.9l6.974-9.059v-.509Zm11.93,0v6.624q0,4.719,4.212,4.719a3.918,3.918,0,0,0,3.636-2.013h.046V47.1h1.888V36.019h-1.888V42.4a3.536,3.536,0,0,1-.9,2.511,2.959,2.959,0,0,1-2.267.952q-2.854,0-2.854-3.507V36.019Zm27.647,1.234a2.75,2.75,0,0,1,2.152.855,3.453,3.453,0,0,1,.794,2.392h-6.364a3.977,3.977,0,0,1,1.151-2.349A3.146,3.146,0,0,1,173.889,37.253Z" transform="translate(-74.021 -19.86)"/></g></g></svg>