<svg xmlns="http://www.w3.org/2000/svg" xmlns:xlink="http://www.w3.org/1999/xlink" width="200.226" height="200.245" viewBox="0 0 200.226 200.245"><defs><style>.a{fill:#fff;}.b{fill:#cc4b5e;}.c{fill:none;stroke:#fff;stroke-width:1.5px;}.d{filter:url(#a);}</style><filter id="a" x="0" y="0" width="200.226" height="200.245" filterUnits="userSpaceOnUse"><feOffset dy="3" input="SourceAlpha"/><feGaussianBlur stdDeviation="3" result="b"/><feFlood flood-opacity="0.161"/><feComposite operator="in" in2="b"/><feComposite in="SourceGraphic"/></filter></defs><g transform="translate(-46.003 -1721)"><g class="d" transform="matrix(1, 0, 0, 1, 46, 1721)"><rect class="a" width="182.226" height="182.245" rx="10" transform="translate(9 6)"/></g><rect class="b" width="136.674" height="136.683" rx="10" transform="translate(78 1750)"/><path class="c" d="M73,71.1l-1.8,4.4A4.7,4.7,0,0,1,68.7,78a4.271,4.271,0,0,1-3.5,0l-2.8-1.2a28.978,28.978,0,0,1-5.8,5.8l1.2,2.8a4.271,4.271,0,0,1,0,3.5,4.7,4.7,0,0,1-2.5,2.5l-4.4,1.8a5.079,5.079,0,0,1-1.7.3A4.4,4.4,0,0,1,45,90.7L43.8,88a28.852,28.852,0,0,1-8.3,0l-1.2,2.8a4.61,4.61,0,0,1-5.9,2.5L24,91.5A4.7,4.7,0,0,1,21.5,89a4.271,4.271,0,0,1,0-3.5l1.2-2.8a28.977,28.977,0,0,1-5.8-5.8L14.2,78a4.412,4.412,0,0,1-5.9-2.5L6.5,71.1A4.412,4.412,0,0,1,9,65.2L11.8,64a28.852,28.852,0,0,1,0-8.3L9,54.5a4.61,4.61,0,0,1-2.5-5.9l1.8-4.4a4.7,4.7,0,0,1,2.5-2.5,4.271,4.271,0,0,1,3.5,0l2.8,1.2a28.977,28.977,0,0,1,5.8-5.8l-1.2-2.8a4.271,4.271,0,0,1,0-3.5,4.7,4.7,0,0,1,2.5-2.5l4.4-1.8a4.271,4.271,0,0,1,3.5,0A4.7,4.7,0,0,1,34.6,29l1.7,4a1.681,1.681,0,1,1-3.1,1.3l-1.7-4a.9.9,0,0,0-.6-.6,1.387,1.387,0,0,0-.9,0l-4.4,1.8a.9.9,0,0,0-.6.6,1.387,1.387,0,0,0,0,.9l1.7,4a1.855,1.855,0,0,1-.6,2.1A25.173,25.173,0,0,0,19.2,46a1.719,1.719,0,0,1-2.1.6l-4-1.7a1.179,1.179,0,0,0-1.5.6L9.6,50a1.179,1.179,0,0,0,.6,1.5l4,1.7a1.584,1.584,0,0,1,1,1.9,26.361,26.361,0,0,0,0,9.7,1.686,1.686,0,0,1-1,1.9l-4,1.7a1.068,1.068,0,0,0-.6,1.5l1.8,4.4a1.142,1.142,0,0,0,1.5.6l4-1.7a1.855,1.855,0,0,1,2.1.6,25.173,25.173,0,0,0,6.9,6.9,1.719,1.719,0,0,1,.6,2.1l-1.7,4a1.387,1.387,0,0,0,0,.9.9.9,0,0,0,.6.6l4.4,1.8a1.179,1.179,0,0,0,1.5-.6l1.7-4a1.584,1.584,0,0,1,1.9-1,26.361,26.361,0,0,0,9.7,0,1.686,1.686,0,0,1,1.9,1l1.7,4a.9.9,0,0,0,.6.6,1.388,1.388,0,0,0,.9,0l4.4-1.8a.9.9,0,0,0,.6-.6,1.388,1.388,0,0,0,0-.9l-1.7-4a1.855,1.855,0,0,1,.6-2.1,25.173,25.173,0,0,0,6.9-6.9,1.719,1.719,0,0,1,2.1-.6l4,1.7a1.179,1.179,0,0,0,1.5-.6l1.8-4.4a1.179,1.179,0,0,0-.6-1.5l-4-1.7a1.681,1.681,0,1,1,1.3-3.1l4,1.7A4.336,4.336,0,0,1,73,71.1ZM25.3,60A14.447,14.447,0,0,0,39.7,74.3h.1A14.534,14.534,0,0,0,54.1,59.8a1.7,1.7,0,1,0-3.4,0A11.1,11.1,0,0,1,39.8,70.9h-.1a11,11,0,0,1-.1-22,1.7,1.7,0,1,0,0-3.4h0A14.534,14.534,0,0,0,25.3,60ZM78.5,32.4A10.5,10.5,0,1,1,68,21.9,10.5,10.5,0,0,1,78.5,32.4Zm-3.4,0A7.1,7.1,0,1,0,68,39.5,7.127,7.127,0,0,0,75.1,32.4Zm18.8-1.7v3.5A3.8,3.8,0,0,1,90.1,38H88.3a22.052,22.052,0,0,1-2.1,5l1.3,1.3A3.864,3.864,0,0,1,88.6,47a4.049,4.049,0,0,1-1.1,2.7L85.1,52a3.864,3.864,0,0,1-5.4,0l-1.3-1.3a24.131,24.131,0,0,1-5,2.1v1.8a3.8,3.8,0,0,1-3.8,3.8H66.1a3.8,3.8,0,0,1-3.8-3.8V52.8a22.052,22.052,0,0,1-5-2.1L56.2,52a3.864,3.864,0,0,1-2.7,1.1A4.049,4.049,0,0,1,50.8,52l-2.4-2.4a3.683,3.683,0,0,1,0-5.3L49.7,43a24.131,24.131,0,0,1-2.1-5H45.8A3.8,3.8,0,0,1,42,34.2V30.7a3.8,3.8,0,0,1,3.8-3.8h1.8a22.052,22.052,0,0,1,2.1-5l-1.3-1.3a3.683,3.683,0,0,1,0-5.3l2.4-2.4a3.864,3.864,0,0,1,2.7-1.1,4.049,4.049,0,0,1,2.7,1.1l1.3,1.3a24.131,24.131,0,0,1,5-2.1V10.3a3.8,3.8,0,0,1,3.8-3.8h3.5a3.8,3.8,0,0,1,3.8,3.8V12a22.052,22.052,0,0,1,5,2.1l1.3-1.3a3.864,3.864,0,0,1,2.7-1.1,4.049,4.049,0,0,1,2.7,1.1l2.4,2.4a3.864,3.864,0,0,1,1.1,2.7,4.049,4.049,0,0,1-1.1,2.7l-1.3,1.3a24.131,24.131,0,0,1,2.1,5h1.8A3.7,3.7,0,0,1,93.9,30.7Z" transform="translate(96.369 1768)"/></g></svg>