<svg xmlns="http://www.w3.org/2000/svg" xmlns:xlink="http://www.w3.org/1999/xlink" width="454.955" height="454.955" viewBox="0 0 454.955 454.955"><defs><style>.a{fill:#2e50a2;}.ab,.b{fill:#fff;}.c{opacity:0.55;}.d,.e,.f,.g,.h,.j,.t,.u,.y,.z{fill:none;}.d,.e,.f,.g,.h,.y{stroke:#fff;}.d,.e,.f,.g,.h,.u,.x,.y,.z{stroke-miterlimit:10;}.d,.g,.t,.u,.x,.y{stroke-width:2.659px;}.e,.g,.h,.t,.u,.x,.y{stroke-linecap:round;}.e{stroke-width:2.474px;stroke-dasharray:7.091;}.f{stroke-width:1.773px;}.g{stroke-dasharray:0.177 7.091;}.h{stroke-width:2.825px;stroke-dasharray:8.864;}.i{fill:#4c6bb3;}.k{fill:#2a4997;}.l{fill:#aac6e9;}.m{fill:#bedef5;}.n{fill:#22417f;}.o{fill:#779dd2;}.p{fill:#183a4c;}.q{fill:#619ec0;}.r{fill:#c9e1f6;}.s{fill:#b2d4f0;}.t,.u,.x{stroke:#619ec0;}.t{stroke-linejoin:round;}.v{fill:#537b9b;}.w{fill:#1e4967;}.x{fill:#598dbf;}.z{stroke:#537b9b;stroke-width:3.546px;}.aa,.ab,.ac{fill-rule:evenodd;}.aa{fill:url(#a);}.ac,.ad{fill:#035bda;}.ae{fill:#545555;}.af{fill:#e50021;}.ag{fill:url(#b);}.ah{fill:url(#c);}.ai{fill:url(#d);}.aj{fill:url(#e);}</style><linearGradient id="a" x1="0.5" x2="0.5" y2="1" gradientUnits="objectBoundingBox"><stop offset="0" stop-color="#00aeef"/><stop offset="0.212" stop-color="#0097dc"/><stop offset="0.519" stop-color="#007cc5"/><stop offset="0.792" stop-color="#006cb8"/><stop offset="1" stop-color="#0066b3"/></linearGradient><linearGradient id="b" x1="2.018" x2="2.018" y2="1.221" gradientUnits="objectBoundingBox"><stop offset="0.077" stop-color="#f77e0b"/><stop offset="0.89" stop-color="#d20024"/></linearGradient><linearGradient id="c" x1="0.542" y1="-0.301" x2="0.542" y2="1" xlink:href="#b"/><linearGradient id="d" x1="-1.143" y1="-0.367" x2="-1.143" y2="1.303" xlink:href="#b"/><linearGradient id="e" x1="0.5" y1="1" x2="0.5" y2="0" xlink:href="#b"/></defs><g transform="translate(-909.063 -2000.25)"><g transform="translate(1001.94 2117.361)"><g transform="translate(0 5.668)"><path class="a" d="M370.034,236.814A55.172,55.172,0,0,0,346.522,221.7a53.174,53.174,0,0,0-52.6-45.94,54.938,54.938,0,0,0-6.8.429A69.935,69.935,0,0,0,167.5,206.257a62.147,62.147,0,0,0,11.659,123.194H329.408a55.217,55.217,0,0,0,40.626-92.638Zm0,0" transform="translate(-117.003 -153.274)"/></g><g transform="translate(1.009 0)"><path class="b" d="M371.033,231.2a55.182,55.182,0,0,0-23.512-15.111,53.173,53.173,0,0,0-52.6-45.939,55.14,55.14,0,0,0-6.8.428A69.935,69.935,0,0,0,168.5,200.644a62.147,62.147,0,0,0,11.659,123.194H330.408A55.218,55.218,0,0,0,371.033,231.2Zm0,0" transform="translate(-118.002 -147.661)"/></g></g><g class="c" transform="translate(910.813 2002)"><circle class="d" cx="171.542" cy="171.542" r="171.542" transform="translate(54.185 54.185)"/><circle class="e" cx="159.614" cy="159.614" r="159.614" transform="translate(0 225.728) rotate(-45)"/><circle class="f" cx="154.167" cy="154.167" r="154.167" transform="translate(71.561 71.561)"/><circle class="g" cx="146.137" cy="146.137" r="146.137" transform="translate(19.059 225.728) rotate(-45)"/><circle class="h" cx="182.21" cy="182.21" r="182.21" transform="translate(43.518 43.518)"/><circle class="i" cx="50.338" cy="50.338" r="50.338" transform="translate(55.178 134.126) rotate(-80.925)"/><circle class="i" cx="59.135" cy="59.135" r="59.135" transform="translate(43.293 292.114)"/><circle class="i" cx="58.48" cy="58.48" r="58.48" transform="translate(287.173 302.546)"/><circle class="i" cx="51.964" cy="51.964" r="51.964" transform="translate(292.513 50.794)"/><circle class="b" cx="44.983" cy="44.983" r="44.983" transform="translate(67.842 47.375)"/><circle class="b" cx="52.56" cy="52.56" r="52.56" transform="translate(28.097 351.249) rotate(-45)"/><circle class="b" cx="52.56" cy="52.56" r="52.56" transform="translate(293.094 308.466)"/><circle class="b" cx="45.597" cy="45.597" r="45.597" transform="translate(289.776 137.056) rotate(-76.974)"/><g transform="translate(384.312 204.737)"><g transform="translate(0 3.029)"><path class="i" d="M413.227,247.533l.363,15.617,13.763-.32-.363-15.617,6.272-.146-13.313-14.978-12.6,15.58Z" transform="translate(-407.346 -232.089)"/><path class="i" d="M413.227,247.533l.363,15.617,13.763-.32-.363-15.617,6.272-.146-13.313-14.978-12.6,15.58Z" transform="translate(-407.346 -232.089)"/><path class="i" d="M413.227,247.533l.363,15.617,13.763-.32-.363-15.617,6.272-.146-13.313-14.978-12.6,15.58Z" transform="translate(-407.346 -232.089)"/></g><path class="b" d="M413.227,244.533l.363,15.617,13.763-.32-.363-15.617,6.272-.146-13.313-14.978-12.6,15.58Z" transform="translate(-407.346 -229.089)"/><path class="b" d="M413.227,244.533l.363,15.617,13.763-.32-.363-15.617,6.272-.146-13.313-14.978-12.6,15.58Z" transform="translate(-407.346 -229.089)"/><path class="j" d="M413.227,244.533l.363,15.617,13.763-.32-.363-15.617,6.272-.146-13.313-14.978-12.6,15.58Z" transform="translate(-407.346 -229.089)"/></g><g transform="translate(224.95 43.907)"><g transform="translate(2.998 0.436)"><path class="i" d="M266.813,90.142l15.506,1.887,1.663-13.666-15.506-1.887.758-6.227L252.5,81.268,266.1,95.981Z" transform="translate(-252.497 -70.249)"/><path class="i" d="M266.813,90.142l15.506,1.887,1.663-13.666-15.506-1.887.758-6.227L252.5,81.268,266.1,95.981Z" transform="translate(-252.497 -70.249)"/><path class="i" d="M266.813,90.142l15.506,1.887,1.663-13.666-15.506-1.887.758-6.227L252.5,81.268,266.1,95.981Z" transform="translate(-252.497 -70.249)"/></g><path class="b" d="M263.844,89.71,279.351,91.6l1.663-13.666-15.507-1.887.758-6.227-16.738,11.02L263.134,95.55Z" transform="translate(-249.528 -69.817)"/><path class="b" d="M263.844,89.71,279.351,91.6l1.663-13.666-15.507-1.887.758-6.227-16.738,11.02L263.134,95.55Z" transform="translate(-249.528 -69.817)"/><path class="j" d="M263.844,89.71,279.351,91.6l1.663-13.666-15.507-1.887.758-6.227-16.738,11.02L263.134,95.55Z" transform="translate(-249.528 -69.817)"/></g><g transform="translate(41.156 203.009)"><g transform="translate(0.144 3.459)"><path class="i" d="M87.692,246.752l.378-15.616L74.307,230.8l-.378,15.616-6.271-.152L80.246,261.86l13.327-14.965Z" transform="translate(-67.658 -230.803)"/></g><path class="b" d="M87.55,243.327l.378-15.616-13.763-.333-.378,15.616-6.271-.152L80.1,258.435l13.327-14.965Z" transform="translate(-67.515 -227.378)"/><path class="b" d="M87.55,243.327l.378-15.616-13.763-.333-.378,15.616-6.271-.152L80.1,258.435l13.327-14.965Z" transform="translate(-67.515 -227.378)"/><path class="j" d="M87.55,243.327l.378-15.616-13.763-.333-.378,15.616-6.271-.152L80.1,258.435l13.327-14.965Z" transform="translate(-67.515 -227.378)"/></g><g transform="translate(178.473 380.231)"><g transform="translate(2.072 2.301)"><path class="i" d="M224.2,410.844l-15.09-4.038-3.559,13.3,15.09,4.038-1.621,6.06,18.114-8.57-11.414-16.472Z" transform="translate(-205.553 -405.161)"/></g><path class="b" d="M222.15,408.565l-15.09-4.038-3.559,13.3,15.09,4.038-1.622,6.06,18.114-8.57-11.414-16.471Z" transform="translate(-203.502 -402.882)"/><path class="b" d="M222.15,408.565l-15.09-4.038-3.559,13.3,15.09,4.038-1.622,6.06,18.114-8.57-11.414-16.471Z" transform="translate(-203.502 -402.882)"/><path class="j" d="M222.15,408.565l-15.09-4.038-3.559,13.3,15.09,4.038-1.622,6.06,18.114-8.57-11.414-16.471Z" transform="translate(-203.502 -402.882)"/></g><g transform="translate(307.417 333.884)"><rect class="k" width="65.157" height="44.851" transform="translate(5.659)"/><rect class="l" width="53.286" height="36.136" transform="translate(11.594 4.357)"/><path class="m" d="M407.67,408.126H331.2a7.171,7.171,0,0,1,7.171-7.172H400.5a7.171,7.171,0,0,1,7.171,7.172Z" transform="translate(-331.196 -356.554)"/><path class="n" d="M377.349,404.542H360.963l-1.65-3.749H379Z" transform="translate(-330.921 -356.556)"/></g><g transform="translate(77.735 320.665)"><rect class="k" width="49.245" height="61.169" rx="7.872"/><rect class="l" width="37.331" height="46.371" transform="translate(5.886 5.975)"/><path class="o" d="M146.865,396.131H113.222l33.643-41.193Z" transform="translate(-103.647 -343.785)"/><circle class="p" cx="2.667" cy="2.667" r="2.667" transform="translate(21.955 53.896)"/></g><g transform="translate(325.129 68.697)"><rect class="k" width="38.697" height="65.152" rx="2.837"/><rect class="p" width="28.178" height="46.112" transform="translate(5.26 5.389)"/><path class="p" d="M370.782,151.745a2.857,2.857,0,1,1-2.858-2.858A2.857,2.857,0,0,1,370.782,151.745Z" transform="translate(-348.576 -93.834)"/></g><g transform="translate(83.233 65.787)"><rect class="q" width="14.593" height="7.861" transform="translate(21.778 45.065)"/><rect class="k" width="58.084" height="40.882" transform="translate(58.084 40.882) rotate(180)"/><rect class="l" width="49.941" height="33.867" transform="translate(4.072 3.957)"/><path class="o" d="M116.815,129.236h46.307V99Z" transform="translate(-109.11 -91.412)"/><path class="r" d="M0,0H58.149a0,0,0,0,1,0,0V.4a7.265,7.265,0,0,1-7.265,7.265H7.265A7.265,7.265,0,0,1,0,.4V0A0,0,0,0,1,0,0Z" transform="translate(0 40.882)"/><path class="r" d="M149.576,146.525H126.6a4.1,4.1,0,0,1,4.1-4.1h14.774a4.1,4.1,0,0,1,4.1,4.1Z" transform="translate(-109.014 -90.987)"/></g><g transform="translate(123.415 301.758)"><g transform="translate(0 0)"><circle class="b" cx="26.926" cy="26.926" r="26.926" transform="translate(0 35.279) rotate(-40.928)"/><circle class="m" cx="19.929" cy="19.929" r="19.929" transform="matrix(0.758, -0.653, 0.653, 0.758, 9.877, 35.885)"/><path class="s" d="M186.786,347.523a19.93,19.93,0,0,1,19.8,17.693,20.228,20.228,0,0,0,.128-2.239,19.929,19.929,0,1,0-39.73,2.239A19.929,19.929,0,0,1,186.786,347.523Z" transform="translate(-148.803 -324.995)"/></g><g transform="translate(26.972 30.21)"><rect class="b" width="22.351" height="16.164" rx="1.158"/><path class="t" d="M184.243,363.425l-4.872,4.13" transform="translate(-175.652 -355.005)"/><path class="t" d="M194.187,367.555l-4.9-4.155" transform="translate(-175.555 -355.005)"/><rect class="u" width="22.351" height="16.164" rx="1.158"/><path class="t" d="M194.285,358.44l-7.457,6.321-7.457-6.321" transform="translate(-175.652 -355.054)"/></g></g><g transform="translate(371.536 139.682)"><g transform="translate(0 0)"><circle class="b" cx="22.354" cy="22.354" r="22.354" transform="translate(1.045 1.045)"/><circle class="m" cx="16.545" cy="16.545" r="16.545" transform="translate(0 23.399) rotate(-45)"/><path class="s" d="M418.026,175.166a16.545,16.545,0,0,1,16.438,14.688A16.544,16.544,0,1,0,401.481,188a16.867,16.867,0,0,0,.106,1.858A16.546,16.546,0,0,1,418.026,175.166Z" transform="translate(-394.628 -164.598)"/></g><path class="v" d="M429.385,182.152c.349-.556-.453-2.073-1.884-3.5s-2.947-2.233-3.5-1.884l-.02-.02-6.987,5.8a3.273,3.273,0,0,0-3.947.516l-.916.916h0c-.659.658.611,3.019,2.884,5.5a1.225,1.225,0,0,0-.2.18l-7.8,9.057a.3.3,0,0,0,.42.42l9.056-7.8a1.335,1.335,0,0,0,.125-.125c.02-.023.034-.049.053-.075,2.483,2.275,4.846,3.546,5.5,2.888l.917-.917a3.241,3.241,0,0,0,.516-3.946l5.8-6.987Z" transform="translate(-394.574 -164.546)"/></g><g transform="translate(152.295 21.281)"><circle class="b" cx="25.477" cy="25.477" r="25.477" transform="translate(0 36.03) rotate(-45)"/><circle class="m" cx="18.857" cy="18.857" r="18.857" transform="translate(17.173 17.173)"/><path class="s" d="M213.441,68.652a18.858,18.858,0,0,1,18.736,16.74,19.047,19.047,0,0,0,.121-2.118,18.857,18.857,0,0,0-37.714,0,19.047,19.047,0,0,0,.121,2.118A18.858,18.858,0,0,1,213.441,68.652Z" transform="translate(-177.411 -47.245)"/><path class="q" d="M223.565,74.19a13.618,13.618,0,0,0-17.378,0,10.018,10.018,0,0,0-.127,15.431,19.26,19.26,0,0,1-2.848,3.568,1.263,1.263,0,0,0,.875,2.173c.036,0,.073,0,.109,0a29.808,29.808,0,0,0,9.371-2.553c.435.04.874.062,1.309.062a13.223,13.223,0,0,0,8.689-3.133,10.025,10.025,0,0,0,0-15.543ZM208.559,83.21A1.911,1.911,0,1,1,210.47,81.3a1.913,1.913,0,0,1-1.912,1.912Zm6.317,0a1.911,1.911,0,1,1,1.911-1.912,1.913,1.913,0,0,1-1.911,1.912Zm6.317,0A1.911,1.911,0,1,1,223.1,81.3a1.913,1.913,0,0,1-1.911,1.912Zm0,0" transform="translate(-177.333 -47.18)"/></g><g transform="translate(32.761 133.984)"><g transform="translate(0 0)"><circle class="b" cx="22.354" cy="22.354" r="22.354" transform="translate(0.968 0.968)"/><circle class="m" cx="16.545" cy="16.545" r="16.545" transform="translate(0 25.217) rotate(-49.647)"/><path class="s" d="M82.458,169.447A16.545,16.545,0,0,1,98.9,184.134a16.545,16.545,0,1,0-32.877,0A16.545,16.545,0,0,1,82.458,169.447Z" transform="translate(-59.137 -158.955)"/></g><path class="v" d="M93.337,181.337l-18.273-7.6a1.094,1.094,0,0,0-1.192.235h0a1.088,1.088,0,0,0-.283.515,1.068,1.068,0,0,0-.027.38,1.094,1.094,0,0,0,.074.3l7.606,18.272a1.092,1.092,0,0,0,.738.638c.024.006.05,0,.075.007a1.052,1.052,0,0,0,.265.024,1.076,1.076,0,0,0,.359-.09,1.133,1.133,0,0,0,.1-.06,1.107,1.107,0,0,0,.2-.139c.012-.011.029-.016.041-.028a1.3,1.3,0,0,0,.091-.117c.02-.027.042-.051.061-.079a1.1,1.1,0,0,0,.126-.281l0-.007,2.127-7.775h0l7.775-2.127a1.092,1.092,0,0,0,.131-2.061Zm-8.452,2.2a2.063,2.063,0,0,0-.913.53l-7.527-7.527,13.491,5.615Z" transform="translate(-59.062 -158.878)"/></g><g transform="translate(256.687 68.199)"><circle class="b" cx="29.882" cy="29.882" r="29.882"/><circle class="m" cx="22.117" cy="22.117" r="22.117" transform="translate(7.765 7.765)"/><path class="s" d="M310.764,106.531a22.117,22.117,0,0,1,21.975,19.633,22.116,22.116,0,1,0-44.091-2.483,22.4,22.4,0,0,0,.141,2.483A22.118,22.118,0,0,1,310.764,106.531Z" transform="translate(-280.883 -93.799)"/><g transform="translate(17.241 16.854)"><path class="v" d="M322.551,117.127h-4.093l-.751-4.852a2.018,2.018,0,0,0-1.994-1.71h-5.242a2.017,2.017,0,0,0-1.994,1.71l-.751,4.852h-7.674a2.019,2.019,0,0,0-2.019,2.019v13.626a2.019,2.019,0,0,0,2.019,2.02h22.5a2.019,2.019,0,0,0,2.019-2.02V119.145A2.019,2.019,0,0,0,322.551,117.127Z" transform="translate(-298.032 -110.565)"/><path class="b" d="M311.837,116.32a.683.683,0,0,1-.674-.787l.241-1.556a.682.682,0,0,1,.674-.578h1.77a.682.682,0,0,1,.674.578l.241,1.556a.683.683,0,0,1-.674.787Z" transform="translate(-297.904 -110.537)"/><path class="w" d="M304.841,117.085H300.97v-1.372a.885.885,0,0,1,.886-.886h2.1a.885.885,0,0,1,.886.886Z" transform="translate(-298.003 -110.523)"/><circle class="b" cx="7.093" cy="7.093" r="7.093" transform="translate(6.175 8.3)"/><path class="w" d="M315.955,125.855a4.737,4.737,0,1,1-4.737-4.737A4.737,4.737,0,0,1,315.955,125.855Z" transform="translate(-297.949 -110.462)"/></g></g><g transform="translate(361.393 249.852)"><circle class="b" cx="31.141" cy="31.141" r="31.141"/><circle class="m" cx="23.049" cy="23.049" r="23.049" transform="translate(8.092 8.092)"/><path class="s" d="M415.711,286.956a23.05,23.05,0,0,1,22.9,20.461,23.3,23.3,0,0,0,.148-2.588,23.049,23.049,0,0,0-46.1,0,23.318,23.318,0,0,0,.148,2.588A23.049,23.049,0,0,1,415.711,286.956Z" transform="translate(-384.571 -273.689)"/><g transform="translate(17.715 18.784)"><rect class="x" width="26.852" height="22.601" rx="1.72" transform="translate(0 2.965)"/><rect class="b" width="19.436" height="13.584" rx="0.556" transform="translate(3.708 8.661)"/><g transform="translate(5.947 10.513)"><rect class="v" width="3.989" height="3.989" rx="0.657"/><rect class="v" width="3.989" height="3.989" rx="0.657" transform="translate(0 5.891)"/><rect class="v" width="3.989" height="3.989" rx="0.657" transform="translate(5.891)"/></g><line class="y" y2="4.14" transform="translate(6.266)"/><line class="y" y2="4.14" transform="translate(20.587)"/><line class="y" y2="4.14" transform="translate(13.426)"/></g></g><g transform="translate(16.025 237.999)"><g transform="translate(0 0)"><circle class="b" cx="26.926" cy="26.926" r="26.926" transform="translate(0 38.079) rotate(-45)"/><circle class="m" cx="19.929" cy="19.929" r="19.929" transform="matrix(0.692, -0.722, 0.722, 0.692, 9.902, 38.688)"/><path class="s" d="M80.531,284.477a19.93,19.93,0,0,1,19.8,17.691,20.191,20.191,0,0,0,.128-2.238,19.929,19.929,0,1,0-39.73,2.238A19.929,19.929,0,0,1,80.531,284.477Z" transform="translate(-42.452 -261.852)"/></g><g transform="translate(24.368 23.078)"><line class="z" x1="2.799" y2="2.799" transform="translate(10.865 13.689)"/><g transform="translate(10.975 1.343)"><path class="b" d="M90.462,299.046a7.518,7.518,0,1,1,0-10.632A7.517,7.517,0,0,1,90.462,299.046Z" transform="translate(-77.629 -286.213)"/></g><g transform="translate(9.632)"><path class="k" d="M85.16,302.6a8.862,8.862,0,1,1,6.266-2.6h0A8.8,8.8,0,0,1,85.16,302.6Zm0-15.037a6.175,6.175,0,1,0,4.366,10.541h0a6.175,6.175,0,0,0-4.366-10.541Z" transform="translate(-76.299 -284.883)"/></g><path class="q" d="M71.963,311.206a3.048,3.048,0,0,1-4.312-4.309l7.608-7.607a1.124,1.124,0,0,1,1.591,0l2.718,2.717a1.125,1.125,0,0,1,0,1.592Z" transform="translate(-66.76 -284.745)"/></g></g><rect class="b" width="5.996" height="5.996" transform="translate(255.891 397.496)"/><g transform="translate(220.006 353.586)"><g transform="translate(0 0)"><circle class="b" cx="26.926" cy="26.926" r="26.926" transform="translate(0 38.079) rotate(-45)"/><circle class="m" cx="19.929" cy="19.929" r="19.929" transform="translate(9.895 38.079) rotate(-45)"/><path class="s" d="M282.535,398.944a19.929,19.929,0,0,1,19.8,17.691,19.928,19.928,0,1,0-39.73-2.238,20.2,20.2,0,0,0,.128,2.238A19.93,19.93,0,0,1,282.535,398.944Z" transform="translate(-244.456 -376.319)"/></g><path class="v" d="M294.6,419.8a4.082,4.082,0,0,1-.922-1c-.006-.013-.014-.025-.021-.038-.647-1.035-.859-3.294-1-4.789-.019-.2-.037-.393-.056-.573l0-.035a15.9,15.9,0,0,0-2.668-7.06,8.256,8.256,0,0,0-4.663-3.239v-.132a2.021,2.021,0,1,0-4.041,0v.132a8.253,8.253,0,0,0-4.663,3.24,15.879,15.879,0,0,0-2.668,7.059l0,.035q-.027.271-.056.573c-.14,1.5-.352,3.755-1,4.789l-.021.038a4.1,4.1,0,0,1-.921,1c-.815.714-2.045,1.792-.936,3.851a.841.841,0,0,0,.74.442h7.557a4.007,4.007,0,0,0,7.984,0H294.8a.842.842,0,0,0,.74-.442c1.109-2.059-.121-3.137-.935-3.851Zm-11.354,5.835a1.888,1.888,0,0,1-1.853-1.541H285.1a1.888,1.888,0,0,1-1.853,1.541Zm0,0" transform="translate(-244.379 -376.256)"/></g></g><g transform="translate(1027.747 2232.544)"><path class="aa" d="M0,35.4H36.168L71.563,0H0V35.4" transform="translate(0)"/><path class="ab" d="M42.74,8.866H35.672L35.7,25.489,29.542,8.86h-6.1L18.186,22.748c-.559-3.534-4.212-4.753-7.087-5.667-1.9-.61-3.913-1.507-3.893-2.5.016-.813,1.078-1.568,3.189-1.455A11.527,11.527,0,0,1,15.55,14.52L18,10.257A19.029,19.029,0,0,0,10.018,8.37H10a9.687,9.687,0,0,0-7.046,2.573,5.937,5.937,0,0,0-1.685,4.109,5.519,5.519,0,0,0,2.418,4.919,16.475,16.475,0,0,0,4.791,2.19c1.955.606,3.552,1.133,3.532,2.255a1.662,1.662,0,0,1-.464,1.1,3.1,3.1,0,0,1-2.27.713,9.731,9.731,0,0,1-5.832-1.665L1.27,28.883a15.128,15.128,0,0,0,7.694,2.011l.639,0a9.6,9.6,0,0,0,6.072-1.92c.091-.073.173-.147.258-.222l-.267,1.378,5.963-.019,1.07-2.739a11.7,11.7,0,0,0,3.762.6,11.824,11.824,0,0,0,3.672-.563l.746,2.706,10.7.01.026-6.245h2.277c5.5,0,8.756-2.8,8.756-7.5C52.634,11.144,49.471,8.866,42.74,8.866ZM26.46,23.075A6.394,6.394,0,0,1,24.2,22.68l2.231-7.045h.043L28.673,22.7a6.607,6.607,0,0,1-2.214.375Zm16.694-4.048H41.6V13.35h1.554c2.069,0,3.721.689,3.721,2.8,0,2.187-1.652,2.875-3.721,2.875" transform="translate(-0.271 -1.785)"/><path class="j" d="M0,0H72.377V35.4H0Z" transform="translate(0)"/></g><g transform="translate(1130.419 2231.624)"><path class="ac" d="M43.583,12.347,36.669,26.272,48.842,40.38,26.249,42.945l35.057.367L43.583,12.347Z" transform="translate(-14.564 -6.851)"/><path class="ac" d="M27.656,0,11.783,13.284,0,33.163l10.03-1.008Z" transform="translate(0)"/><path class="ad" d="M125.3,31.581,117.709,50.2h2.581l1.974-5.219h8.392l2.1,5.219h2.567L127.7,31.581Zm1.132,2.259h.055a7.224,7.224,0,0,0,.3,1.247l3.106,7.932h-6.86l3.078-7.932a6.616,6.616,0,0,0,.317-1.247Zm58.7,2.752a6.181,6.181,0,0,0-4.652,1.96,7,7,0,0,0-1.863,5.05,7.151,7.151,0,0,0,1.712,5.1,6.176,6.176,0,0,0,4.707,1.8,8.589,8.589,0,0,0,4.928-1.272v-2a7.22,7.22,0,0,1-4.389,1.48,4.529,4.529,0,0,1-3.34-1.207,4.8,4.8,0,0,1-1.27-3.427h9.98V42.967a6.757,6.757,0,0,0-1.518-4.686,5.477,5.477,0,0,0-4.293-1.688Zm-10.113.078a3.477,3.477,0,0,0-2.222.792,4.58,4.58,0,0,0-1.477,2.181h-.055V36.9H169V50.2h2.263V43.421a5.708,5.708,0,0,1,.966-3.505,2.953,2.953,0,0,1,2.429-1.285,2.9,2.9,0,0,1,1.712.428V36.852a3.913,3.913,0,0,0-1.353-.181Zm-37.4.234v1.817H145.2l-8.365,10.814V50.2h11.608V48.38h-8.282l8.365-10.866V36.9Zm14.309,0v7.945q0,5.66,5.052,5.66a4.7,4.7,0,0,0,4.362-2.415h.055v2.1h2.264V36.9H161.4v7.66a4.241,4.241,0,0,1-1.076,3.012,3.549,3.549,0,0,1-2.719,1.142q-3.423,0-3.423-4.206V36.9Zm33.161,1.48a3.3,3.3,0,0,1,2.581,1.026,4.141,4.141,0,0,1,.952,2.869h-7.633a4.77,4.77,0,0,1,1.38-2.817A3.773,3.773,0,0,1,185.093,38.384Z" transform="translate(-65.308 -17.522)"/></g><g transform="translate(1059.628 2177.16)"><g transform="translate(58.61 10.425)"><path class="ae" d="M234.42,80.474l-1.5-1.5,4.7-4.7-7.373-7.266,1.6-1.6,8.762,8.868-6.2,6.2Z" transform="translate(-230.253 -65.408)"/><path class="ae" d="M234.313,89.369a2.1,2.1,0,0,1-2.03,2.03,2.029,2.029,0,0,1-2.03-2.03,2.054,2.054,0,0,1,2.03-2.137,2.124,2.124,0,0,1,2.03,2.137Z" transform="translate(-230.253 -80.714)"/><path class="ae" d="M284.557,89.418l-8.868-8.868,6.2-6.2,1.6,1.5-4.808,4.7,7.373,7.373-1.5,1.5Z" transform="translate(-262.119 -71.681)"/><path class="ae" d="M296.8,91.157a2.124,2.124,0,0,1,2.03-2.137,2.054,2.054,0,0,1,2.03,2.137,2.029,2.029,0,0,1-2.03,2.03,2.1,2.1,0,0,1-2.03-2.03Z" transform="translate(-276.923 -81.968)"/></g><g transform="translate(0 0)"><path class="af" d="M36.753,43.279H34.009V39.143h2.744v-1.6a7.309,7.309,0,0,1,1.761-5.324,6.549,6.549,0,0,1,4.873-1.72,13.258,13.258,0,0,1,4.013.573v4.177a8.7,8.7,0,0,0-2.907-.533c-1.884,0-2.867,1.024-2.867,3.276v1.187h5.733v4.1H41.708V60.641H36.753Z" transform="translate(-34.009 -30.502)"/><path class="af" d="M101.226,59.021h5.16l-8.6,22.236c-1.72,4.423-3.645,6.061-7.125,6.061a10.21,10.21,0,0,1-5.119-1.311l1.679-3.685a6.1,6.1,0,0,0,2.908.819c1.392,0,2.252-.614,3.071-2.457L84.19,59.021h5.324l6.1,16.053Z" transform="translate(-69.203 -50.504)"/><path class="af" d="M172.761,58.039h4.955v4.873c1.351-3.235,3.849-5.446,7.658-5.283v5.242h-.287c-4.341,0-7.371,2.826-7.371,8.559v8.231h-4.955Z" transform="translate(-131.321 -49.522)"/><path class="ag" d="M36.753,43.279H34.009V39.143h2.744v-1.6a7.309,7.309,0,0,1,1.761-5.324,6.549,6.549,0,0,1,4.873-1.72,13.258,13.258,0,0,1,4.013.573v4.177a8.7,8.7,0,0,0-2.907-.533c-1.884,0-2.867,1.024-2.867,3.276v1.187h5.733v4.1H41.708V60.641H36.753Z" transform="translate(-34.009 -30.502)"/><path class="ah" d="M101.226,59.021h5.16l-8.6,22.236c-1.72,4.423-3.645,6.061-7.125,6.061a10.21,10.21,0,0,1-5.119-1.311l1.679-3.685a6.1,6.1,0,0,0,2.908.819c1.392,0,2.252-.614,3.071-2.457L84.19,59.021h5.324l6.1,16.053Z" transform="translate(-69.203 -50.504)"/><path class="ai" d="M172.761,58.039h4.955v4.873c1.351-3.235,3.849-5.446,7.658-5.283v5.242h-.287c-4.341,0-7.371,2.826-7.371,8.559v8.231h-4.955Z" transform="translate(-131.321 -49.522)"/></g><g transform="translate(87.864 8.844)"><path class="ae" d="M330.2,74.545c-.088,4.294,3.009,5.609,6.806,5.609,2.191,0,5.521-1.2,5.521-4.236,0-2.366-2.366-3.3-4.294-3.768l-4.645-1.139c-2.454-.614-4.7-1.782-4.7-5.025,0-2.045,1.314-5.871,7.186-5.871,4.119,0,7.741,2.22,7.712,6.485H341.8c-.117-3.184-2.746-4.791-5.7-4.791-2.717,0-5.229,1.052-5.229,4.148,0,1.957,1.461,2.775,3.155,3.184L339.11,70.4c2.95.789,5.4,2.074,5.4,5.492,0,1.431-.584,5.959-7.975,5.959-4.937,0-8.559-2.22-8.325-7.3Z" transform="translate(-328.203 -60.114)"/><path class="ae" d="M399.506,60.114c6.543,0,9.815,5.17,9.815,10.866s-3.272,10.867-9.815,10.867c-6.573,0-9.844-5.171-9.844-10.867S392.934,60.114,399.506,60.114Zm0,20.039c5.491,0,7.829-4.615,7.829-9.173s-2.337-9.172-7.829-9.172c-5.521,0-7.858,4.615-7.858,9.172S393.985,80.153,399.506,80.153Z" transform="translate(-371.307 -60.114)"/><path class="ae" d="M465.855,61.581h13.233v1.694H467.841v7.537h9.991v1.694h-9.991v9.932h-1.986Z" transform="translate(-424.744 -61.143)"/><path class="ae" d="M510.846,61.581H527.38v1.694h-7.274V82.438H518.12V63.275h-7.274Z" transform="translate(-456.298 -61.143)"/></g><g transform="translate(61.709 7.326)"><path class="aj" d="M240.628,109.337l1.6,1.5,7.266-7.373,4.7,4.808,1.5-1.6-6.2-6.2Z" transform="translate(-240.628 -86.899)"/><path class="aj" d="M264.589,121.577a2.124,2.124,0,0,0-2.137,2.03,2.054,2.054,0,0,0,2.137,2.03,2.029,2.029,0,0,0,2.03-2.03A2.1,2.1,0,0,0,264.589,121.577Z" transform="translate(-255.934 -101.703)"/><path class="aj" d="M264.638,56.887l-1.5-1.5-7.373,7.266-4.7-4.7-1.5,1.5,6.2,6.2Z" transform="translate(-246.901 -55.284)"/><path class="aj" d="M266.378,59.093a2.03,2.03,0,0,0,0-4.06,2.033,2.033,0,1,0,0,4.06Z" transform="translate(-257.189 -55.033)"/></g></g></g></svg>