<svg xmlns="http://www.w3.org/2000/svg" xmlns:xlink="http://www.w3.org/1999/xlink" width="200.235" height="200.245" viewBox="0 0 200.235 200.245"><defs><style>.a{fill:#fff;}.b{fill:#f6642b;}.c{filter:url(#a);}</style><filter id="a" x="0" y="0" width="200.235" height="200.245" filterUnits="userSpaceOnUse"><feOffset dy="3" input="SourceAlpha"/><feGaussianBlur stdDeviation="3" result="b"/><feFlood flood-opacity="0.161"/><feComposite operator="in" in2="b"/><feComposite in="SourceGraphic"/></filter></defs><g transform="translate(-39.51 -801)"><g class="c" transform="matrix(1, 0, 0, 1, 39.51, 801)"><rect class="a" width="182.235" height="182.245" rx="10" transform="translate(9 6)"/></g><rect class="b" width="136.67" height="136.683" rx="10" transform="translate(71 830)"/><g transform="translate(101 860.348)"><g transform="translate(1 0.652)"><path class="a" d="M33.01,32a5,5,0,0,0-3.758,8.3v6.726h7.515V40.3A5,5,0,0,0,33.01,32Zm1.666,6.863-.413.373v5.29H31.758v-5.29l-.413-.373a2.473,2.473,0,0,1-.839-1.853,2.505,2.505,0,0,1,5.01,0A2.473,2.473,0,0,1,34.676,38.863Z" transform="translate(4.49 5.338)"/><path class="a" d="M33.526,11v3.832a11.287,11.287,0,0,0-10.02,11.2v6.493A3.753,3.753,0,0,0,21,36.051V53.587a3.762,3.762,0,0,0,3.758,3.758h8.768v8.768h2.505V57.345H44.8a3.762,3.762,0,0,0,3.758-3.758V36.051a3.753,3.753,0,0,0-2.505-3.527V26.031a11.286,11.286,0,0,0-10.02-11.2V11ZM46.051,53.587A1.253,1.253,0,0,1,44.8,54.84H24.758a1.253,1.253,0,0,1-1.253-1.253V36.051A1.254,1.254,0,0,1,24.758,34.8H44.8a1.254,1.254,0,0,1,1.253,1.253ZM38.536,32.294H31.02V26.031a3.758,3.758,0,0,1,7.515,0Zm5.01-6.263v6.263H41.041V26.031a6.263,6.263,0,0,0-12.526,0v6.263H26.01V26.031a8.768,8.768,0,0,1,17.536,0Z" transform="translate(2.722 -1.133)"/><path class="a" d="M74.79,13.1c-22.2,0-35.348-11.6-35.477-11.718L38.5.652l-.812.73C37.558,1.5,24.413,13.1,2.21,13.1H1v1.2C1,45.837,19.224,75.652,38.5,75.652S76,45.837,76,14.3V13.1ZM38.5,73.246c-17.467,0-34.616-28.422-35.071-57.751C22.988,15.144,35.3,6.409,38.5,3.847c3.2,2.561,15.512,11.3,35.071,11.648C73.116,44.825,55.967,73.246,38.5,73.246Z" transform="translate(-1 -0.652)"/><path class="a" d="M35.831,6.313A59.364,59.364,0,0,1,8.877,16.78l.294,2.485A61.978,61.978,0,0,0,36.511,8.858a61.974,61.974,0,0,0,27.34,10.41l.294-2.485A59.371,59.371,0,0,1,37.191,6.315l-.68-.5Z" transform="translate(0.989 0.653)"/><path class="a" d="M37.469,67.62c-6.435,0-13.788-6.016-19.676-16.093C11.744,41.169,8.083,28.182,7.485,14.953l-2.4.118c.617,13.64,4.4,27.049,10.657,37.758,6.326,10.83,14.45,17.3,21.732,17.3s15.405-6.466,21.732-17.3C65.456,42.119,69.242,28.71,69.858,15.07l-2.4-.118c-.6,13.228-4.259,26.217-10.309,36.573C51.258,61.6,43.9,67.62,37.469,67.62Z" transform="translate(0.031 -0.135)"/></g></g></g></svg>