<svg xmlns="http://www.w3.org/2000/svg" width="80" height="80" viewBox="0 0 80 80"><defs><style>.a{fill:#fa7e3e;}</style></defs><g transform="translate(0)"><path class="a" d="M113.548,42.581V41.29h2.581V38.71h-2.581V37.4a1.264,1.264,0,0,1,.5-1.009,11.554,11.554,0,0,0,4-5.42h7.114A9.033,9.033,0,0,0,126.4,12.987,14.171,14.171,0,0,0,101.737,4.7a10.312,10.312,0,0,0-16.576,8.2c0,.289.017.576.04.864a9.025,9.025,0,0,0,3.831,17.2h7.148a11.565,11.565,0,0,0,3.957,5.414,1.276,1.276,0,0,1,.507,1.014V38.71H98.065V41.29h2.581v1.29a3.876,3.876,0,0,0,3.871,3.871h5.161a3.876,3.876,0,0,0,3.871-3.871ZM95.628,25.244a11.749,11.749,0,0,0-.063,3.143H89.032a6.452,6.452,0,1,1,3.225-12.041l1.293-2.232a8.82,8.82,0,0,0-5.8-1.108c0-.035-.009-.069-.009-.1a7.734,7.734,0,0,1,12.446-6.14,14.083,14.083,0,0,0-2.124,7.431h2.581a11.613,11.613,0,0,1,23.226,0v1.29h1.29a6.452,6.452,0,1,1,0,12.9h-6.527a11.558,11.558,0,0,0-3.793-9.943,11.615,11.615,0,0,0-19.213,6.8Zm15.34,17.337a1.292,1.292,0,0,1-1.29,1.29h-5.161a1.292,1.292,0,0,1-1.29-1.29V41.29h7.742ZM105.807,27.1a1.29,1.29,0,1,1,1.29,1.29A1.292,1.292,0,0,1,105.807,27.1Zm5.161,10.3V38.71h-2.581V30.73a3.871,3.871,0,1,0-2.581,0V38.71h-2.581V37.4a3.867,3.867,0,0,0-1.539-3.078,9.024,9.024,0,0,1,4.374-16.2,9.962,9.962,0,0,1,1.046-.057,8.934,8.934,0,0,1,6.013,2.3,9.047,9.047,0,0,1,3.009,6.731,8.95,8.95,0,0,1-3.628,7.226,3.858,3.858,0,0,0-1.533,3.073Zm0,0" transform="translate(-67.097 0)"/><path class="a" d="M31.718,239.148l-7.2-2.4v-1.793a9.059,9.059,0,0,0,1.717-2.482,5.149,5.149,0,0,0,4.734-5.117v-8.823a6.946,6.946,0,0,0-4.546-6.523l-2.164-1.62a11.934,11.934,0,0,0-19.1,9.547v7.419A5.149,5.149,0,0,0,9.9,232.472a9.059,9.059,0,0,0,1.717,2.482v1.793l-7.2,2.4A6.445,6.445,0,0,0,0,245.268v9.184H36.129v-9.184a6.442,6.442,0,0,0-4.41-6.12Zm-6.442.573-2.513,5.03L20.029,242.7l3.546-3.546Zm-7.213,1.293-3.871-3.871v-.35a8.918,8.918,0,0,0,7.742,0v.35Zm6.452-12.369a6.452,6.452,0,0,1-12.9,0v-5.161a1.292,1.292,0,0,1,1.29-1.29H23.225a1.292,1.292,0,0,1,1.29,1.29Zm2.528.96a9.137,9.137,0,0,0,.053-.96v-3.512a2.558,2.558,0,0,1-.053,4.473Zm-19.3-2.251a2.573,2.573,0,0,1,1.29-2.222v3.512a9.137,9.137,0,0,0,.053.96,2.574,2.574,0,0,1-1.343-2.25Zm1.49-5.04a5.126,5.126,0,0,0-1.49.6v-2.976a9.355,9.355,0,0,1,14.968-7.484l2.49,1.867.2.066a4.368,4.368,0,0,1,2.988,4.147v4.379a5.113,5.113,0,0,0-1.49-.6,3.864,3.864,0,0,0-3.671-2.7H12.9a3.864,3.864,0,0,0-3.671,2.7Zm3.323,16.838L16.1,242.7l-2.734,2.051-2.514-5.03Zm20.994,12.717H28.387v-5.161H25.806v5.161H10.322v-5.161H7.742v5.161H2.58v-6.6a3.868,3.868,0,0,1,2.646-3.673l3.151-1.05,4.062,8.124,5.624-4.217,5.623,4.217,4.062-8.124,3.151,1.05a3.868,3.868,0,0,1,2.647,3.673Zm0,0" transform="translate(0 -174.452)"/><path class="a" d="M303.718,239.148l-7.2-2.4v-1.793a9.06,9.06,0,0,0,1.717-2.482,5.149,5.149,0,0,0,4.734-5.117v-7.419a11.934,11.934,0,0,0-19.1-9.547l-2.164,1.622a6.944,6.944,0,0,0-4.546,6.522v8.823a5.149,5.149,0,0,0,4.734,5.117,9.059,9.059,0,0,0,1.718,2.482v1.793l-7.2,2.4a6.445,6.445,0,0,0-4.41,6.121v9.184h36.129v-9.184a6.443,6.443,0,0,0-4.41-6.12Zm-6.441.573-2.513,5.03-2.734-2.051,3.546-3.546Zm-.761-11.076a6.452,6.452,0,1,1-12.9,0v-6.511a14,14,0,0,0,6.452-2.262,14,14,0,0,0,6.452,2.262Zm2.528.96a9.123,9.123,0,0,0,.053-.96v-3.512a2.558,2.558,0,0,1-.053,4.473Zm-19.3-2.251a2.573,2.573,0,0,1,1.29-2.222v3.512a9.131,9.131,0,0,0,.053.96A2.574,2.574,0,0,1,279.741,227.355Zm2.581-7.742h-1.29v2.764a5.1,5.1,0,0,0-1.29.534v-4.379a4.368,4.368,0,0,1,2.988-4.147l.2-.066,2.49-1.867a9.355,9.355,0,0,1,14.968,7.484v2.976a5.056,5.056,0,0,0-1.29-.534v-2.764h-1.29a11.46,11.46,0,0,1-6.375-1.93l-1.367-.911-1.367.911a11.461,11.461,0,0,1-6.375,1.93Zm2.232,19.541L288.1,242.7l-2.734,2.051-2.513-5.03Zm4.219,12.717h-6.452v-5.161h-2.581v5.161H274.58v-6.6a3.868,3.868,0,0,1,2.646-3.673l3.151-1.05,4.062,8.124,4.334-3.249Zm-2.581-14.728v-.35a8.918,8.918,0,0,0,7.742,0v.35l-3.871,3.871Zm19.355,14.728h-5.161v-5.161h-2.581v5.161h-6.452v-6.452l4.333,3.249,4.062-8.124,3.151,1.05a3.868,3.868,0,0,1,2.647,3.673Zm0,0" transform="translate(-228.129 -174.452)"/></g></svg>