<svg xmlns="http://www.w3.org/2000/svg" xmlns:xlink="http://www.w3.org/1999/xlink" width="200.24" height="200.245" viewBox="0 0 200.24 200.245"><defs><style>.a{fill:#fff;}.b{fill:#69787d;}.c{filter:url(#a);}</style><filter id="a" x="0" y="0" width="200.24" height="200.245" filterUnits="userSpaceOnUse"><feOffset dy="3" input="SourceAlpha"/><feGaussianBlur stdDeviation="3" result="b"/><feFlood flood-opacity="0.161"/><feComposite operator="in" in2="b"/><feComposite in="SourceGraphic"/></filter></defs><g transform="translate(-43.629 -1261)"><g class="c" transform="matrix(1, 0, 0, 1, 43.63, 1261)"><rect class="a" width="182.24" height="182.245" rx="10" transform="translate(9 6)"/></g><rect class="b" width="136.674" height="136.683" rx="10" transform="translate(75 1290)"/><g transform="translate(-539.742 186)"><path class="a" d="M98.5,38.489a9.86,9.86,0,0,0-2.248.173,16.9,16.9,0,0,0-16.6-14.008h-.865a26.989,26.989,0,0,0-49.8-9.511H27.94a25.94,25.94,0,1,0,0,51.88c1.038,0,1.392-.427,1.392-1.464s-.354-1.288-1.392-1.288c-12.451,0-23.289-10.737-23.289-23.188S15.078,17.915,27.529,17.915a7.094,7.094,0,0,1,1.9.173,2.128,2.128,0,0,0,1.729-.865A23.869,23.869,0,0,1,52.151,4.459c12.105,0,22.8,9.249,23.838,21.354a1.75,1.75,0,0,0,.692,1.211,1.863,1.863,0,0,0,1.383.346,8.419,8.419,0,0,1,2.075-.173A13.249,13.249,0,0,1,93.544,39.806a2.135,2.135,0,0,0,.692,1.383,1.681,1.681,0,0,0,1.556.173,10.068,10.068,0,0,1,3.286-.519c5.88,0,11.541,5.947,11.541,12S104.833,65.467,98.78,65.467c-1.038,0-1.717-.216-1.717.822s.4.907,1.433.907a14.353,14.353,0,1,0,0-28.707Z" transform="translate(625.742 1133)"/><path class="a" d="M24.775,15.6H23.564A15.5,15.5,0,0,0,8,31.164c0,1.038.3,1.294,1.34,1.294s1.115-.256,1.115-1.294c0-6.744,6.537-12.879,13.282-12.879h1.038c1.038,0,1.243-.475,1.416-1.339C26.19,16.081,25.812,15.773,24.775,15.6Z" transform="translate(630.117 1142.919)"/><g transform="translate(659.014 1157.678)"><path class="a" d="M52.682,40.428a10.728,10.728,0,0,0-4.893,1.181L40.474,29.433a10.934,10.934,0,1,0-1.326.8l7.315,12.178A10.8,10.8,0,0,0,41.9,50.481H26.614a10.826,10.826,0,1,0,0,1.547H41.9a10.82,10.82,0,1,0,10.786-11.6ZM24.975,20.584a9.279,9.279,0,1,1,9.28,9.28A9.288,9.288,0,0,1,24.975,20.584ZM15.826,60.533a9.279,9.279,0,1,1,9.28-9.28A9.288,9.288,0,0,1,15.826,60.533Zm36.856,0a9.279,9.279,0,1,1,9.279-9.28A9.287,9.287,0,0,1,52.682,60.533Z" transform="translate(-5 -9.759)"/><path class="a" d="M49.241,18.262a1.667,1.667,0,0,0,1.408-1.678,1.409,1.409,0,1,0-2.818,0A1.666,1.666,0,0,0,49.241,18.262Z" transform="translate(-19.987 -11.654)"/><path class="a" d="M51.017,20.968a.484.484,0,0,0-.04-.12.5.5,0,0,0-.052-.075.685.685,0,0,0-.08-.093.709.709,0,0,0-.084-.051.746.746,0,0,0-.085-.051,8.88,8.88,0,0,0-2.2-.474l-.142.283h0l.376,2.92-.445.781-.446-.778.376-2.92h0l-.143-.283a8.685,8.685,0,0,0-2.2.473.64.64,0,0,0-.085.051.648.648,0,0,0-.081.05.545.545,0,0,0-.082.1.48.48,0,0,0-.052.07.567.567,0,0,0-.04.122.615.615,0,0,0-.024.072l-.445,4.009a.554.554,0,0,0,.491.614c.021,0,.04,0,.062,0a.557.557,0,0,0,.552-.5l.406-3.652.155-.046v3.8l-.444,5.511a.667.667,0,0,0,.612.72h.056a.667.667,0,0,0,.664-.614l.4-4.98a.662.662,0,0,0,.538,0l.4,4.98a.667.667,0,0,0,.664.614h.058a.668.668,0,0,0,.61-.72l-.445-5.511v-3.8l.155.046.405,3.652a.558.558,0,0,0,.553.5.468.468,0,0,0,.061,0,.556.556,0,0,0,.492-.614l-.447-4.009A.277.277,0,0,0,51.017,20.968Z" transform="translate(-19.007 -13.378)"/><path class="a" d="M80.222,70.068a5.555,5.555,0,0,0-.374-2.211L81,67.143l-1.129-1.8-1.148.718a5.6,5.6,0,0,0-1.822-1.3l.3-1.318-2.071-.475-.3,1.316a5.582,5.582,0,0,0-2.21.373L71.9,63.5,70.1,64.622l.718,1.151A5.493,5.493,0,0,0,69.515,67.6L68.2,67.292l-.481,2.07,1.318.306a5.579,5.579,0,0,0,.374,2.211l-1.15.716,1.127,1.8,1.151-.718a5.485,5.485,0,0,0,1.821,1.3l-.3,1.316,2.069.481.3-1.319a5.5,5.5,0,0,0,2.21-.371l.718,1.151,1.8-1.129-.719-1.148a5.515,5.515,0,0,0,1.306-1.825l1.316.308.48-2.073ZM76.648,73.1a3.815,3.815,0,1,1,1.214-5.254A3.815,3.815,0,0,1,76.648,73.1Z" transform="translate(-26.944 -28.374)"/><rect class="a" width="3.108" height="4.817" transform="translate(4.601 41.494)"/><rect class="a" width="3.11" height="6.975" transform="translate(9.272 39.337)"/><rect class="a" width="3.108" height="9.633" transform="translate(13.942 36.679)"/></g></g></g></svg>