<svg xmlns="http://www.w3.org/2000/svg" width="106.559" height="77.76" viewBox="0 0 106.559 77.76"><defs><style>.a{fill:#fa7e3e;}</style></defs><g transform="translate(-761 -1887.241)"><g transform="translate(782.784 1925.887)"><g transform="translate(9.124 2.769)"><path class="a" d="M114.933,142.708c-1.228-2.561-5.622-6.115-9.867-9.549-2.368-1.914-4.605-3.724-6.031-5.15a1.3,1.3,0,0,0-1.364-.305c-.879.318-1.421.563-1.849.754a4.311,4.311,0,0,1-1.75.48,1.3,1.3,0,0,0-.954.571c-1.844,2.756-3.752,2.522-5.028,2.094-.407-.136-.48-.31-.519-.477-.274-1.145,1.1-3.81,2.881-5.591,4.237-4.24,6.423-5.3,11.038-3.239,5.236,2.342,10.483,4.175,10.535,4.193a1.3,1.3,0,0,0,.858-2.464c-.052-.018-5.194-1.815-10.326-4.112-5.979-2.673-9.26-.913-13.946,3.776-1.784,1.784-4.206,5.393-3.58,8.039a3.225,3.225,0,0,0,2.24,2.349c2.954.975,5.651.042,7.659-2.623a6.584,6.584,0,0,0,1.958-.621c.245-.11.532-.237.913-.391,1.492,1.4,3.5,3.03,5.625,4.743,3.833,3.1,8.18,6.616,9.158,8.649a1.528,1.528,0,0,1-.389,1.958,1.437,1.437,0,0,1-1.606.315,1.3,1.3,0,0,0-2.036,1.213,1.575,1.575,0,0,1-1,1.468,2,2,0,0,1-2.031.047,1.3,1.3,0,0,0-2.188.832,2.478,2.478,0,0,1-1.539,2,1.375,1.375,0,0,1-1.5-.232,1.319,1.319,0,0,0-1.192-.3,1.3,1.3,0,0,0-.915.821c-.049.13-.162.443-1.382.443a7.508,7.508,0,0,1-3.194-1.093c-.915-.6-6.655-4.884-11.612-9.035-.7-.587-1.9-1.844-2.965-2.954-.944-.986-1.807-1.88-2.25-2.256a1.3,1.3,0,0,0-1.684,1.992c.4.342,1.187,1.168,2.05,2.068,1.163,1.215,2.365,2.472,3.174,3.15,4.855,4.065,10.691,8.454,11.854,9.218A10,10,0,0,0,96.81,155a4.487,4.487,0,0,0,2.96-.871,4.058,4.058,0,0,0,2.965-.031,5.136,5.136,0,0,0,2.715-2.506,5.042,5.042,0,0,0,3.273-.472,4.424,4.424,0,0,0,2.177-2.274,4.264,4.264,0,0,0,2.991-1.072A4.145,4.145,0,0,0,114.933,142.708Z" transform="translate(-74.642 -118.658)"/></g><g transform="translate(13.038 5.214)"><g transform="translate(0 0)"><path class="a" d="M119.7,138.663H107.97a1.3,1.3,0,0,0,0,2.608H119.7a1.3,1.3,0,1,0,0-2.608Z" transform="translate(-106.666 -138.663)"/></g></g><g transform="translate(47.036 23.465)"><path class="a" d="M391.009,288.556a1.3,1.3,0,0,0-1.81-.355l-3.812,2.561a1.3,1.3,0,0,0,1.455,2.164l3.812-2.561A1.3,1.3,0,0,0,391.009,288.556Z" transform="translate(-384.811 -287.977)"/></g><g transform="translate(35.205 22.162)"><g transform="translate(0 0)"><path class="a" d="M297.951,285.421c-.933-.735-5.108-5.009-7.69-7.7a1.3,1.3,0,1,0-1.883,1.8c.67.7,6.582,6.861,7.956,7.945a1.3,1.3,0,0,0,.806.279,1.318,1.318,0,0,0,1.027-.5A1.3,1.3,0,0,0,297.951,285.421Z" transform="translate(-288.016 -277.317)"/></g></g><g transform="translate(31.292 26.076)"><g transform="translate(0 0)"><path class="a" d="M264.643,316.142c-1.562-1.249-5.486-5.419-6.373-6.383a1.3,1.3,0,1,0-1.922,1.765c.047.049,4.73,5.106,6.665,6.655a1.3,1.3,0,0,0,1.63-2.037Z" transform="translate(-256.005 -309.337)"/></g></g><g transform="translate(26.077 28.681)"><path class="a" d="M222.007,337.47c-1.859-1.567-5.664-5.617-6.407-6.412a1.3,1.3,0,0,0-1.906,1.781c1.069,1.145,4.709,5,6.631,6.626a1.3,1.3,0,1,0,1.682-1.995Z" transform="translate(-213.343 -330.644)"/></g><path class="a" d="M15.239,98.968C13,96.85,4.068,96.164,1.382,96.005A1.3,1.3,0,0,0,0,97.306v23.469a1.3,1.3,0,0,0,1.3,1.3H9.127a1.3,1.3,0,0,0,1.239-.9c.19-.584,4.683-14.373,5.275-21.153A1.3,1.3,0,0,0,15.239,98.968Zm-7.064,20.5H2.608V98.7c4.19.331,8.712,1.051,10.355,1.849C12.271,106.264,9.145,116.41,8.175,119.471Z" transform="translate(0 -96.003)"/><g transform="translate(44.376 2.607)"><g transform="translate(0 0)"><path class="a" d="M379.949,117.33c-10.238,0-15.917,2.621-16.154,2.73a1.3,1.3,0,0,0-.7.811,1.315,1.315,0,0,0,.143,1.059c1.612,2.595,6.657,17,7.627,20.519a1.3,1.3,0,0,0,1.257.957h7.823a1.3,1.3,0,0,0,1.3-1.3V118.634A1.3,1.3,0,0,0,379.949,117.33Zm-1.3,23.469H373.1c-1.236-4.026-4.887-14.524-6.923-18.863a42.467,42.467,0,0,1,12.467-1.982Z" transform="translate(-363.046 -117.33)"/></g></g></g><path class="a" d="M95.646,58.537a16.823,16.823,0,0,0-1.225-4.073A15.771,15.771,0,0,0,73.25,46.381,21.639,21.639,0,0,0,60.691,33.439,21.128,21.128,0,0,0,33.3,46.381a15.619,15.619,0,0,0-3.953-1.263A16.017,16.017,0,0,0,10.909,58.537,16.433,16.433,0,0,0,0,74.171,16.226,16.226,0,0,0,16,90.618h3.551a1.83,1.83,0,0,0,0-3.659H16a12.5,12.5,0,0,1-12.085-9.7,12.838,12.838,0,0,1,9.043-15.53,1.814,1.814,0,0,0,1.332-1.6A12.5,12.5,0,0,1,26.649,48.538a11.966,11.966,0,0,1,6.73,2.06,1.749,1.749,0,0,0,.542.245,1.772,1.772,0,0,0,2.154-1.328A18.032,18.032,0,0,1,48.893,36.307,17.719,17.719,0,0,1,70.482,49.515a1.853,1.853,0,0,0,.238.559,1.744,1.744,0,0,0,2.459.524,11.966,11.966,0,0,1,6.73-2.06A12.5,12.5,0,0,1,92.273,60.125a1.814,1.814,0,0,0,1.332,1.6,12.853,12.853,0,0,1-3.043,25.231H87.011a1.83,1.83,0,0,0,0,3.659h3.551a16.026,16.026,0,0,0,15.168-11.242A16.584,16.584,0,0,0,95.646,58.537Z" transform="translate(761 1855.18)"/></g></svg>