<svg xmlns="http://www.w3.org/2000/svg" xmlns:xlink="http://www.w3.org/1999/xlink" width="200.235" height="200.235" viewBox="0 0 200.235 200.235"><defs><style>.a{fill:#fff;}.b{fill:#ffaa01;}.c{filter:url(#a);}</style><filter id="a" x="0" y="0" width="200.235" height="200.235" filterUnits="userSpaceOnUse"><feOffset dy="3" input="SourceAlpha"/><feGaussianBlur stdDeviation="3" result="b"/><feFlood flood-opacity="0.161"/><feComposite operator="in" in2="b"/><feComposite in="SourceGraphic"/></filter></defs><g transform="translate(-43.754 -1482)"><g class="c" transform="matrix(1, 0, 0, 1, 43.75, 1482)"><rect class="a" width="182.235" height="182.235" rx="10" transform="translate(9 6)"/></g><rect class="b" width="136.684" height="136.684" rx="10" transform="translate(76 1511)"/><g transform="translate(-763.75 443)"><path class="a" d="M77.274,39.262A35.262,35.262,0,1,0,25.959,70.668a.822.822,0,0,0,1.1-.351c.2-.4,1.171-1.927.772-2.139C16.523,62.389,9.77,51.948,9.77,39.262c0-18.54,13.694-32.306,32.242-32.306S74.69,20.722,74.69,39.262c0,17.9-13.08,31.621-30.739,32.615l5-1.944c.391-.228.22-.919,0-1.311a2.419,2.419,0,0,0-2.041-.445L38.2,73.312l9.542,6.207a2.591,2.591,0,0,0,1.387-.594c.228-.391.218-1.221-.174-1.449l-5-2.662C62.589,73.917,77.274,58.128,77.274,39.262Z" transform="translate(866 1094)"/><path class="a" d="M62.55,59.657a.2.2,0,0,0,.033-.057,25.651,25.651,0,0,0,7.083-15.275c.024-.261.049-.514.065-.775.049-.628.082-1.264.082-1.9a26.047,26.047,0,0,0-7.281-18.133c-.016-.016-.024-.041-.041-.057s-.041-.024-.057-.041a25.751,25.751,0,0,0-36.214-.055c-.016.016-.041.024-.057.041s-.024.041-.041.057A26.131,26.131,0,0,0,18.7,41.573,25.864,25.864,0,0,0,26.3,59.5c.016.016.016.041.033.057a.2.2,0,0,0,.057.033,25.684,25.684,0,0,0,17.92,7.436,26.186,26.186,0,0,0,18.163-7.34A.154.154,0,0,0,62.55,59.657ZM45.129,65.005v-3.4a.815.815,0,0,0-1.631,0v3.4a23.353,23.353,0,0,1-15.173-6.294l2.4-2.4a.813.813,0,1,0-1.15-1.15l-2.4,2.4a23.371,23.371,0,0,1-6.294-15.173h3.4a.815.815,0,1,0,0-1.631h-3.4a23.353,23.353,0,0,1,6.294-15.173l2.4,2.4a.8.8,0,0,0,.579.236.835.835,0,0,0,.579-.236.812.812,0,0,0,0-1.15l-2.4-2.4a23.371,23.371,0,0,1,15.173-6.294v3.4a.815.815,0,0,0,1.631,0v-3.4A23.353,23.353,0,0,1,60.31,24.436l-2.4,2.4a.812.812,0,0,0,0,1.15.8.8,0,0,0,.579.236.835.835,0,0,0,.579-.236l2.4-2.4a23.368,23.368,0,0,1,6.319,15.988c0,.481-.016.954-.049,1.427H64.362a.815.815,0,0,0,0,1.631h3.212a23.415,23.415,0,0,1-6.107,12.931l-2.4-2.4a.813.813,0,0,0-1.15,1.15l2.4,2.4A23.472,23.472,0,0,1,45.129,65.005Z" transform="translate(863.699 1091.697)"/><path class="a" d="M52.813,45.751a4.432,4.432,0,0,0,.611-2.234c0-2.161-1.079-3.962-3.133-4.346V27.855c0-.448-.845-.815-1.294-.815a.818.818,0,0,0-.815.815V39.172a4.649,4.649,0,0,0-3.861,4.346A4.658,4.658,0,0,0,49,47.953a3.025,3.025,0,0,0,2.3-.659l4.575,4.018a.8.8,0,0,0,.579.236,2.342,2.342,0,0,0,.928-.5,1.008,1.008,0,0,0,0-1.3ZM46.2,43.517a2.8,2.8,0,1,1,2.8,2.8A2.8,2.8,0,0,1,46.2,43.517Z" transform="translate(859.015 1089.745)"/></g></g></svg>