<svg xmlns="http://www.w3.org/2000/svg" width="184.795" height="42.802" viewBox="0 0 184.795 42.802"><defs><style>.a{fill:#fff;}</style></defs><g transform="translate(-34.009 -30.502)"><g transform="translate(102.151 42.622)"><path class="a" d="M235.1,82.924l-1.739-1.739,5.466-5.466-8.572-8.447,1.863-1.863L242.3,75.719,235.1,82.924Z" transform="translate(-230.253 -65.408)"/><path class="a" d="M234.974,89.716a2.443,2.443,0,0,1-2.36,2.36,2.359,2.359,0,0,1-2.36-2.36,2.388,2.388,0,0,1,2.36-2.484,2.469,2.469,0,0,1,2.36,2.484Z" transform="translate(-230.253 -79.654)"/><path class="a" d="M286,91.868,275.689,81.557l7.205-7.205,1.863,1.739-5.59,5.466,8.572,8.572L286,91.868Z" transform="translate(-259.912 -71.247)"/><path class="a" d="M296.8,91.5a2.47,2.47,0,0,1,2.36-2.485,2.389,2.389,0,0,1,2.361,2.485,2.359,2.359,0,0,1-2.361,2.36,2.443,2.443,0,0,1-2.36-2.36Z" transform="translate(-273.691 -80.821)"/></g><g transform="translate(34.009 30.502)"><path class="a" d="M37.2,45.357h-3.19V40.548H37.2V38.691c0-2.761.714-4.856,2.047-6.189a7.614,7.614,0,0,1,5.666-2,15.414,15.414,0,0,1,4.666.666v4.856a10.12,10.12,0,0,0-3.38-.619c-2.19,0-3.333,1.19-3.333,3.809V40.6H49.53v4.761H42.96V65.543H37.2Z" transform="translate(-34.009 -30.502)"/><path class="a" d="M104,59.021h6L100,84.874c-2,5.142-4.237,7.046-8.284,7.046A11.871,11.871,0,0,1,85.761,90.4l1.952-4.285a7.1,7.1,0,0,0,3.381.952c1.619,0,2.618-.714,3.571-2.857L84.19,59.021h6.189l7.094,18.664Z" transform="translate(-66.766 -49.118)"/><path class="a" d="M172.761,58.107h5.761v5.666c1.571-3.761,4.475-6.332,8.9-6.142v6.094h-.333c-5.047,0-8.57,3.285-8.57,9.951v9.57h-5.761Z" transform="translate(-124.582 -48.205)"/><path class="a" d="M37.2,45.357h-3.19V40.548H37.2V38.691c0-2.761.714-4.856,2.047-6.189a7.614,7.614,0,0,1,5.666-2,15.414,15.414,0,0,1,4.666.666v4.856a10.12,10.12,0,0,0-3.38-.619c-2.19,0-3.333,1.19-3.333,3.809V40.6H49.53v4.761H42.96V65.543H37.2Z" transform="translate(-34.009 -30.502)"/><path class="a" d="M104,59.021h6L100,84.874c-2,5.142-4.237,7.046-8.284,7.046A11.871,11.871,0,0,1,85.761,90.4l1.952-4.285a7.1,7.1,0,0,0,3.381.952c1.619,0,2.618-.714,3.571-2.857L84.19,59.021h6.189l7.094,18.664Z" transform="translate(-66.766 -49.118)"/><path class="a" d="M172.761,58.107h5.761v5.666c1.571-3.761,4.475-6.332,8.9-6.142v6.094h-.333c-5.047,0-8.57,3.285-8.57,9.951v9.57h-5.761Z" transform="translate(-124.582 -48.205)"/></g><g transform="translate(136.162 40.784)"><path class="a" d="M330.525,76.891c-.1,4.992,3.5,6.521,7.913,6.521,2.547,0,6.419-1.392,6.419-4.925,0-2.751-2.751-3.838-4.993-4.381l-5.4-1.324C331.612,72.068,329,70.71,329,66.94c0-2.377,1.528-6.826,8.355-6.826,4.789,0,9,2.581,8.966,7.54h-2.31c-.135-3.7-3.192-5.57-6.622-5.57-3.159,0-6.079,1.223-6.079,4.823,0,2.275,1.7,3.226,3.668,3.7l5.909,1.46c3.43.917,6.283,2.412,6.283,6.385,0,1.664-.679,6.928-9.272,6.928-5.739,0-9.951-2.581-9.679-8.49Z" transform="translate(-328.203 -60.114)"/><path class="a" d="M401.107,60.114c7.607,0,11.411,6.011,11.411,12.634s-3.8,12.634-11.411,12.634c-7.642,0-11.445-6.012-11.445-12.634S393.466,60.114,401.107,60.114Zm0,23.3c6.385,0,9.1-5.366,9.1-10.664s-2.717-10.664-9.1-10.664c-6.419,0-9.136,5.366-9.136,10.664S394.688,83.412,401.107,83.412Z" transform="translate(-368.322 -60.114)"/><path class="a" d="M465.855,61.581H481.24v1.97H468.164v8.762H479.78v1.97H468.164V85.83h-2.309Z" transform="translate(-418.058 -61.072)"/><path class="a" d="M510.846,61.581h19.223v1.97h-8.457V85.83H519.3V63.551h-8.457Z" transform="translate(-447.427 -61.072)"/></g><g transform="translate(105.754 39.02)"><path class="a" d="M240.628,110.779l1.863,1.739,8.447-8.572,5.466,5.59,1.739-1.863-7.205-7.205Z" transform="translate(-240.628 -84.692)"/><path class="a" d="M264.936,121.577a2.469,2.469,0,0,0-2.484,2.36,2.388,2.388,0,0,0,2.484,2.36,2.359,2.359,0,0,0,2.361-2.36A2.444,2.444,0,0,0,264.936,121.577Z" transform="translate(-254.874 -98.471)"/><path class="a" d="M267.088,57.13l-1.739-1.739-8.572,8.447-5.466-5.466-1.739,1.739,7.205,7.205Z" transform="translate(-246.467 -55.267)"/><path class="a" d="M266.725,59.754a2.36,2.36,0,0,0,0-4.721,2.363,2.363,0,1,0,0,4.721Z" transform="translate(-256.042 -55.033)"/></g></g></svg>