<svg xmlns="http://www.w3.org/2000/svg" width="118" height="118" viewBox="0 0 118 118"><defs><style>.a{fill:#fa7e3e;stroke:#fa7e3e;stroke-width:2px;}.b{fill:#fff;}.c{stroke:none;}.d{fill:none;}</style></defs><g transform="translate(-733 -2206)"><g class="a" transform="translate(733 2206)"><circle class="c" cx="59" cy="59" r="59"/><circle class="d" cx="59" cy="59" r="58"/></g><g transform="translate(751.5 2225.833)"><g transform="translate(0.5 1.167)"><g transform="translate(4.658 13.692)"><path class="b" d="M27.356,15.092c-12.668,0-19.431-1.193-23.044-2.72v9.464c0,2.086,10.3,3.8,23.044,3.8,12.7,0,23.026-1.714,23.026-3.8V12.372C46.767,13.9,40.023,15.092,27.356,15.092ZM12.973,18.985a2.105,2.105,0,1,1-2.105-2.105A2.107,2.107,0,0,1,12.973,18.985Zm6.111.951a2.115,2.115,0,1,1-2.124-2.105A2.108,2.108,0,0,1,19.084,19.936Z" transform="translate(-4.312 -12.372)"/></g><g transform="translate(4.658 27.943)"><path class="b" d="M27.356,26.754c-12.668,0-19.431-1.193-23.044-2.72v9.445c0,2.105,10.3,3.819,23.044,3.819,12.7,0,23.026-1.714,23.026-3.819V24.034C46.767,25.563,40.023,26.754,27.356,26.754ZM12.973,30.649a2.105,2.105,0,1,1-2.105-2.105A2.107,2.107,0,0,1,12.973,30.649Zm6.111.949a2.115,2.115,0,1,1-2.124-2.124A2.107,2.107,0,0,1,19.084,31.6Z" transform="translate(-4.312 -24.034)"/></g><g transform="translate(4.658 42.549)"><path class="b" d="M27.356,38.707c-12.668,0-19.431-1.173-23.044-2.72V45.47c0,1.975,9.3,3.615,21.126,3.764h3.819c11.812-.149,21.126-1.788,21.126-3.764V35.987C46.767,37.533,40.023,38.707,27.356,38.707ZM12.973,42.619a2.106,2.106,0,1,1-2.105-2.124A2.123,2.123,0,0,1,12.973,42.619Zm6.111.932a2.115,2.115,0,1,1-4.229,0,2.115,2.115,0,0,1,4.229,0Z" transform="translate(-4.312 -35.987)"/></g><path class="b" d="M.667,9.265.5,53.2c0,3.991,3.057,8.114,25.732,8.421h3.925C52.829,61.33,55.885,57.2,55.885,53.2L55.736,9.287c-.087-3.5-3.034-8.12-27.534-8.12S.755,5.789.667,9.265ZM2.362,53.2,2.531,9.293C2.662,4.119,16.563,3.031,28.2,3.031s25.543,1.09,25.671,6.282L54.023,53.2c0,1.543,0,6.25-23.876,6.555h-3.9C2.381,59.433,2.362,54.747,2.362,53.2Z" transform="translate(-0.5 -1.167)"/><g transform="translate(4.819 4.657)"><ellipse class="b" cx="22.877" cy="3.766" rx="22.877" ry="3.766"/></g><g transform="translate(32.564 27.1)"><path class="b" d="M51.134,25.178l4.571,15.8a1.439,1.439,0,0,0,2.413.6l2.8-2.925A19.809,19.809,0,0,1,27.149,58.476a22.787,22.787,0,0,0,1.419,2.77A23.8,23.8,0,1,0,69.41,36.785a22.807,22.807,0,0,0-2.958-3.929l3.088-3.225a1.438,1.438,0,0,0-.7-2.393L52.846,23.384A1.432,1.432,0,0,0,51.134,25.178Z" transform="translate(-27.149 -23.344)"/></g></g></g></g></svg>