<svg xmlns="http://www.w3.org/2000/svg" width="118" height="118" viewBox="0 0 118 118"><defs><style>.a{fill:#fa7e3e;stroke:#fa7e3e;}.a,.b{stroke-width:2px;}.b,.d{fill:none;}.b{stroke:#fff;}.c{stroke:none;}</style></defs><g transform="translate(-494 -1924)"><g class="a" transform="translate(494 1924)"><circle class="c" cx="59" cy="59" r="59"/><circle class="d" cx="59" cy="59" r="58"/></g><g transform="translate(507 1936.995)"><path class="b" d="M79.8,57.587a5.657,5.657,0,0,0-5.248-.551L59.244,60.809a6.72,6.72,0,0,1-4.522,1.734H39.7a1.171,1.171,0,1,1,0-2.343H54.792c3.655-.059,4.909-4.967,1.863-7.005a6.108,6.108,0,0,0-3.386-1.031c-3.058-.023-7.088-.035-8.88.035-2.812.105-3.936-.246-10.5-4.616a13.716,13.716,0,0,0-15.323-.457v23.98l20.536,5.588a31.95,31.95,0,0,0,20.325-1.242l19.365-7.9A5.665,5.665,0,0,0,79.8,57.587Z" transform="translate(1.984 6.516)"/><path class="b" d="M8.171,74.946H17.04a1.175,1.175,0,0,0,1.171-1.171V44.136a1.175,1.175,0,0,0-1.171-1.171H8.171A1.175,1.175,0,0,0,7,44.136V73.775A1.175,1.175,0,0,0,8.171,74.946Zm3.561-6.607h1.745a1.171,1.171,0,0,1,0,2.343H11.733a1.171,1.171,0,0,1,0-2.343Z" transform="translate(0 6.166)"/><path class="b" d="M58.915,7.005A19.915,19.915,0,1,0,78.83,26.92,19.936,19.936,0,0,0,58.915,7.005ZM59.243,25.8c4.717,1.389,5.708,4.024,5.708,5.99a6.044,6.044,0,0,1-4.867,5.919v2.248a1.171,1.171,0,0,1-2.343,0V37.705a6.044,6.044,0,0,1-4.866-5.919,1.171,1.171,0,0,1,2.343,0,3.695,3.695,0,0,0,7.39,0c0-.633,0-2.557-4.026-3.742-4.717-1.389-5.707-4.024-5.707-5.99a6.044,6.044,0,0,1,4.866-5.919V13.887a1.171,1.171,0,0,1,2.343,0v2.248a6.044,6.044,0,0,1,4.867,5.919,1.171,1.171,0,1,1-2.343,0,3.695,3.695,0,0,0-7.39,0C55.218,22.687,55.218,24.611,59.243,25.8Z" transform="translate(5.487 0)"/></g></g></svg>