<svg xmlns="http://www.w3.org/2000/svg" width="118" height="118" viewBox="0 0 118 118"><defs><style>.a{fill:#fa7e3e;stroke:#fa7e3e;stroke-width:2px;}.b,.e{fill:none;}.b{stroke:#fff;stroke-width:3px;}.c{fill:#fff;}.d{stroke:none;}</style></defs><g transform="translate(-328 -2206)"><g class="a" transform="translate(328 2206)"><circle class="d" cx="59" cy="59" r="59"/><circle class="e" cx="59" cy="59" r="58"/></g><g transform="translate(-541.5 160.465)"><path class="b" d="M21.294,64.207H85.458a14.626,14.626,0,0,0,14.585-14.585V46.705A14.626,14.626,0,0,0,85.458,32.12H79.88c.035-.367.11-.718.11-1.095a11.827,11.827,0,0,0-18.632-9.695A21.684,21.684,0,0,0,19.467,29.2a22.2,22.2,0,0,0,.241,3.078,14.583,14.583,0,0,0-13,14.424v2.917A14.634,14.634,0,0,0,21.294,64.207Z" transform="translate(874.796 2069.025)"/><g transform="translate(913.413 2095.819)"><path class="c" d="M81.3,70.192H77.529V65.234l-9.34,5.226V80.742l3.786-2.485,2.07,3.155-6.708,4.4-.99.65-1.015-.609L58,81.452l1.941-3.236L64.416,80.9V70.472L54.773,65.2v4.993H51v-9.27l.951-.543,7.337-4.192,1.872,3.276L56.752,61.98l9.54,5.217L75.583,62l-4.44-2.537,1.872-3.276,7.337,4.192.951.543v9.27Z" transform="translate(-51 -56.186)"/></g></g></g></svg>