<svg xmlns="http://www.w3.org/2000/svg" width="113.013" height="127.468" viewBox="0 0 113.013 127.468"><defs><style>.a{fill:#cc4b5e;}.b{fill:#fff;}</style></defs><g transform="translate(-787 -1114.182)"><path class="a" d="M451.151,115.835,404.432,88.861a9.787,9.787,0,0,0-9.786,0l-46.719,26.974a9.787,9.787,0,0,0-4.895,8.475v53.947a9.792,9.792,0,0,0,4.895,8.477l46.719,26.974a9.787,9.787,0,0,0,9.786,0l46.719-26.974a9.79,9.79,0,0,0,4.893-8.477V124.31A9.785,9.785,0,0,0,451.151,115.835Z" transform="translate(443.969 1026.631)"/><path class="b" d="M439.37,166.9V124.377a8,8,0,0,0-4-6.929l-36.825-21.26a8,8,0,0,0-8,0l-36.826,21.26a8,8,0,0,0-4,6.929V166.9a8,8,0,0,0,4,6.928l36.826,21.261a8,8,0,0,0,8,0l36.825-21.261A8,8,0,0,0,439.37,166.9Z" transform="translate(449.279 1032.278)"/><g transform="translate(807.598 1144.033)"><g transform="translate(1.998 2.468)"><path class="a" d="M36.764,2.469a2.3,2.3,0,0,0-1.584.7L23.663,14.685a2.3,2.3,0,0,0,0,3.257L35.18,29.46A2.3,2.3,0,1,0,38.438,26.2l-9.889-9.889,9.889-9.889a2.3,2.3,0,0,0-1.674-3.955Z" transform="translate(25.364 -2.468)"/><path class="a" d="M25.294,13.142A2.3,2.3,0,0,0,23.688,17.1l9.889,9.889-9.889,9.889a2.3,2.3,0,1,0,3.262,3.257L38.467,28.618a2.3,2.3,0,0,0,0-3.257L26.95,13.843A2.3,2.3,0,0,0,25.294,13.142Z" transform="translate(25.362 11.444)"/><path class="a" d="M4.3,5.531A2.3,2.3,0,0,0,2,7.835V44.692A2.3,2.3,0,0,0,4.3,47H31.948v9.214H18.158a2.3,2.3,0,1,0,0,4.607H50.341a2.3,2.3,0,1,0,0-4.607H36.555V47h6.879a2.3,2.3,0,1,0,0-4.607H6.6V10.138H43.439a2.3,2.3,0,0,0,0-4.607Z" transform="translate(-1.998 1.524)"/></g></g></g></svg>