<svg xmlns="http://www.w3.org/2000/svg" width="113.013" height="127.468" viewBox="0 0 113.013 127.468"><defs><style>.a{fill:#f2622f;}.b{fill:#fff;}</style></defs><g transform="translate(-150 -1108.182)"><path class="a" d="M215.059,115.835,168.338,88.861a9.787,9.787,0,0,0-9.786,0l-46.719,26.974a9.786,9.786,0,0,0-4.893,8.475v53.947a9.79,9.79,0,0,0,4.893,8.477l46.719,26.974a9.787,9.787,0,0,0,9.786,0l46.721-26.974a9.79,9.79,0,0,0,4.893-8.477V124.31A9.786,9.786,0,0,0,215.059,115.835Z" transform="translate(43.061 1020.631)"/><g transform="translate(162 1121.395)"><path class="b" d="M203.277,166.9V124.377a8,8,0,0,0-4-6.929l-36.825-21.26a8,8,0,0,0-8,0l-36.825,21.26a8,8,0,0,0-4,6.929V166.9a8,8,0,0,0,4,6.928l36.825,21.261a8,8,0,0,0,8,0l36.825-21.261A8,8,0,0,0,203.277,166.9Z" transform="translate(-113.628 -95.117)"/></g><g transform="translate(177.002 1146.47)"><g transform="translate(0 0)"><path class="a" d="M13.644,34.48H44.167A6.958,6.958,0,0,0,51.1,27.542V26.155a6.958,6.958,0,0,0-6.938-6.938H41.514c.017-.174.053-.342.053-.521A5.626,5.626,0,0,0,32.7,14.084a10.315,10.315,0,0,0-19.928,3.745,10.559,10.559,0,0,0,.115,1.464A6.937,6.937,0,0,0,6.7,26.155v1.388A6.961,6.961,0,0,0,13.644,34.48Z" transform="translate(0.006 0.067)"/><path class="a" d="M56.017,1.5H1.807A1.812,1.812,0,0,0,0,3.307v38.7a1.812,1.812,0,0,0,1.807,1.807H27.1v6.474h-12.2V53.9H42.916V50.289h-12.2V43.814h25.3a1.812,1.812,0,0,0,1.807-1.807V3.307A1.812,1.812,0,0,0,56.017,1.5ZM54.21,40.2H3.614V5.114h50.6Z" transform="translate(0 -1.5)"/></g></g><path class="b" d="M1870.455,1217.6v6.047l-6.854-.967V1217.6Z" transform="translate(-1661.204 -47.329)"/><path class="b" d="M1841.442,1217.6v5.079l-5.241-.726V1217.6Z" transform="translate(-1639.205 -47.389)"/><path class="b" d="M1870.417,1186.748v6l-6.864-.095v-5.1Z" transform="translate(-1661.166 -22.972)"/><path class="b" d="M1841.171,1191.245v5.105h-5.31v-4.461Z" transform="translate(-1638.935 -26.663)"/></g></svg>