<svg xmlns="http://www.w3.org/2000/svg" width="113.013" height="127.468" viewBox="0 0 113.013 127.468"><defs><style>.a{fill:#e3b91b;}.b{fill:#fff;}.c{fill:#f0c111;}</style></defs><g transform="translate(-1103 -1114)"><path class="a" d="M569.2,414.528l-46.721-26.974a9.787,9.787,0,0,0-9.786,0l-46.719,26.974A9.785,9.785,0,0,0,461.078,423V476.95a9.786,9.786,0,0,0,4.893,8.477L512.69,512.4a9.787,9.787,0,0,0,9.786,0L569.2,485.427a9.786,9.786,0,0,0,4.893-8.477V423A9.786,9.786,0,0,0,569.2,414.528Z" transform="translate(641.922 727.757)"/><path class="b" d="M557.416,465.591V423.07a8,8,0,0,0-4-6.928l-36.825-21.261a8,8,0,0,0-8,0l-36.825,21.261a8,8,0,0,0-4,6.928v42.521a8,8,0,0,0,4,6.928l36.825,21.261a8,8,0,0,0,8,0l36.825-21.261A8,8,0,0,0,557.416,465.591Z" transform="translate(647.232 734.198)"/><g transform="translate(58.582 -351.879)"><g transform="translate(1070.828 1504)"><g transform="translate(0 0)"><path class="c" d="M61.039,1.5H1.969A1.975,1.975,0,0,0,0,3.469v42.17a1.975,1.975,0,0,0,1.969,1.969H29.535v7.055H16.244V58.6h30.52V54.663H33.473V47.608H61.039a1.975,1.975,0,0,0,1.969-1.969V3.469A1.975,1.975,0,0,0,61.039,1.5ZM59.07,43.67H3.938V5.438H59.07Z" transform="translate(0 -1.5)"/></g></g><g transform="translate(1089.697 1512.935)"><g transform="translate(0 0)"><path class="c" d="M30.229,47.647,26.363,43.78l-.767-.767c-.21.365-.38.683-.524.952-.41.779-.564,1.177-.576,1.2a.527.527,0,0,0,.118.561L28.289,49.4a.527.527,0,0,0,.561.118c.018-.011.417-.166,1.2-.576.269-.144.587-.314.952-.524Z" transform="translate(-19.876 -28.748)"/><path class="c" d="M46.779,17.432c-.007-.1-.018-.2-.03-.31s-.03-.185-.048-.277-.03-.177-.048-.262c-.026-.107-.052-.214-.081-.317a.525.525,0,0,0-.362-.362c-.1-.03-.21-.055-.317-.081-.085-.018-.173-.033-.262-.048s-.185-.03-.277-.048-.207-.022-.31-.029c-3.04-.251-6.509,1.594-9.6,4.151-.133.111-.269.225-.4.339-.756.646-1.487,1.339-2.181,2.048-.162.162-.317.325-.461.476s-.266.28-.391.421-.258.28-.38.424c-.085.092-.17.184-.251.28-.162.185-.325.376-.483.565-.048.055-.092.114-.14.17-.118.14-.232.284-.347.428l-.244.31c-.037.044-.07.092-.107.137l-.336.446-.114.159a.019.019,0,0,0-.007.015c-.033.041-.066.081-.1.125-.137.2-.273.391-.406.583l-.2.3-.185.273c-.133.207-.266.406-.391.605a1.149,1.149,0,0,1-.074.111l0,0c-.1.151-.2.306-.288.458s-.2.325-.292.483l.76.76,4.265,4.265.76.76c.066-.037.133-.081.2-.122.236-.14.483-.291.738-.458l0,0c.232-.151.476-.306.719-.469l.269-.181.306-.2c.579-.387,1.173-.834,1.771-1.306.022-.015.041-.033.063-.048.181-.144.358-.292.535-.439s.38-.321.565-.483l.181-.159c.033-.026.066-.059.1-.089l0,0a1.1,1.1,0,0,0,.1-.085l.45-.406c.1-.1.2-.188.3-.284.155-.148.314-.3.469-.454.708-.694,1.4-1.424,2.051-2.184.114-.129.229-.266.339-.4C45.185,23.94,47.03,20.472,46.779,17.432Zm-3.291,4.509a2.087,2.087,0,1,1,0-2.952A2.087,2.087,0,0,1,43.488,21.941Z" transform="translate(-21.417 -15.675)"/><path class="c" d="M19.252,54.36a2.486,2.486,0,0,1-.6-2.321,3.394,3.394,0,0,1,.646-1.361,2.8,2.8,0,0,0-1.583.793c-1.018,1.018-1.631,4.826-1.741,5.579a.514.514,0,0,0,.59.59c.753-.111,4.56-.723,5.579-1.741a2.852,2.852,0,0,0,.8-1.587,3.443,3.443,0,0,1-1.365.649A2.487,2.487,0,0,1,19.252,54.36Z" transform="translate(-15.813 -32.414)"/><path class="c" d="M16.564,37.111a7.371,7.371,0,0,1,4.712-2.2c.214-.347.439-.7.686-1.077.048-.077.1-.148.144-.225l.391-.583c.439-.653.945-1.336,1.494-2.011.255-.321.528-.638.8-.948-5.5-1.055-9.032,6.368-9.069,6.449a.528.528,0,0,0,.1.59.244.244,0,0,0,.07.055A.516.516,0,0,0,16.564,37.111Z" transform="translate(-15.675 -22.51)"/><path class="c" d="M42.3,47.656c-.672.546-1.35,1.048-2,1.491l-.576.384-.244.155c-.373.24-.734.469-1.077.679a7.377,7.377,0,0,1-2.2,4.719.516.516,0,0,0-.055.668.244.244,0,0,0,.055.07.528.528,0,0,0,.59.1c.081-.037,7.5-3.568,6.453-9.065C42.934,47.129,42.616,47.4,42.3,47.656Z" transform="translate(-25.419 -30.588)"/><path class="c" d="M23.343,53.717a1.64,1.64,0,0,0,1.933.111,2.635,2.635,0,0,0,.649-.48,2.436,2.436,0,0,0,.258-.3,3.241,3.241,0,0,0-2.17-2.17,2.437,2.437,0,0,0-.3.258,2.487,2.487,0,0,0-.476.653A1.63,1.63,0,0,0,23.343,53.717Z" transform="translate(-19.167 -32.508)"/></g></g></g></g></svg>