<svg xmlns="http://www.w3.org/2000/svg" width="118" height="118" viewBox="0 0 118 118"><defs><style>.a{fill:#fa7e3e;stroke:#fa7e3e;stroke-width:2px;}.b{fill:#fff;}.c{stroke:none;}.d{fill:none;}</style></defs><g transform="translate(-922 -1924)"><g class="a" transform="translate(922 1924)"><circle class="c" cx="59" cy="59" r="59"/><circle class="d" cx="59" cy="59" r="58"/></g><g transform="translate(940 1943.999)"><path class="b" d="M72.881,40.655a3.706,3.706,0,0,0,3.425-3.944l-.044-3.9a3.711,3.711,0,0,0-3.475-3.866H72.75L67.775,29A27.148,27.148,0,0,0,64,20.167l3.48-3.558a3.7,3.7,0,0,0-.367-5.21L64.32,8.671A4.126,4.126,0,0,0,61.46,7.462a3.244,3.244,0,0,0-2.355.961l-3.479,3.557A27.166,27.166,0,0,0,46.711,8.4l-.056-4.972A3.7,3.7,0,0,0,42.758,0h-.05l-3.9.044a3.706,3.706,0,0,0-3.866,3.512L35,8.53a27.159,27.159,0,0,0-8.835,3.779L22.607,8.83a3.234,3.234,0,0,0-2.293-.909A4.122,4.122,0,0,0,17.4,9.195l-2.727,2.79a3.7,3.7,0,0,0-.249,5.217l3.558,3.48A27.15,27.15,0,0,0,14.4,29.595l-4.973.056A3.707,3.707,0,0,0,6,33.595l.044,3.9A3.71,3.71,0,0,0,9.52,41.362h.035l4.974-.055a27.177,27.177,0,0,0,3.779,8.831L14.83,53.7a3.7,3.7,0,0,0,.365,5.21l2.788,2.729a4.132,4.132,0,0,0,2.862,1.208,3.253,3.253,0,0,0,2.356-.959l3.48-3.559A27.157,27.157,0,0,0,35.6,61.908l.054,4.971a3.7,3.7,0,0,0,3.895,3.427h.049l3.9-.045a3.882,3.882,0,0,0,3.7-2.462l-2.3-5.127.046,4.1a.882.882,0,0,1-.322.646,1.746,1.746,0,0,1-1.149.416l-3.922.045c-.791,0-1.464-.472-1.47-1.029l-.054-4.971L38,59.929l-1.912-.4a24.69,24.69,0,0,1-8.12-3.262l-1.655-1.036-1.365,1.4L21.467,60.19a.859.859,0,0,1-.623.23,1.716,1.716,0,0,1-1.167-.516l-2.787-2.729A1.707,1.707,0,0,1,16.345,56a.822.822,0,0,1,.218-.61l3.478-3.559,1.363-1.4-1.07-1.63a24.7,24.7,0,0,1-3.442-8.044l-.437-1.9-1.952.021-4.982.055c-.49,0-1.043-.6-1.052-1.468l-.044-3.9c-.009-.873.534-1.487,1.029-1.493l4.973-.056L16.378,32l.394-1.912a24.673,24.673,0,0,1,3.262-8.118l1.035-1.654-1.4-1.365-3.56-3.482a.875.875,0,0,1-.227-.68,1.75,1.75,0,0,1,.516-1.107l2.726-2.788a1.7,1.7,0,0,1,1.185-.545.819.819,0,0,1,.6.218l3.558,3.478,1.394,1.364,1.631-1.07a24.679,24.679,0,0,1,8.047-3.442l1.9-.438L37.424,8.5l-.057-4.971c-.005-.495.6-1.053,1.468-1.062l3.9-.043h.022c.874,0,1.467.531,1.472,1.029l.056,4.972.022,1.953,1.913.394a24.692,24.692,0,0,1,8.12,3.261l1.654,1.033,1.364-1.394,3.481-3.559a.851.851,0,0,1,.619-.229,1.712,1.712,0,0,1,1.167.519l2.789,2.727a1.75,1.75,0,0,1,.543,1.1.876.876,0,0,1-.213.686l-3.48,3.558-1.365,1.4L61.971,21.5a24.666,24.666,0,0,1,3.441,8.044l.437,1.9,1.952-.021,4.985-.056c.489,0,1.041.6,1.051,1.469l.044,3.9a1.749,1.749,0,0,1-.392,1.157.881.881,0,0,1-.636.336l-4.974.056-1.951.022-.395,1.911a24.677,24.677,0,0,1-3.262,8.118l-1.036,1.655,1.4,1.365,3.56,3.48a.879.879,0,0,1,.227.682,1.746,1.746,0,0,1-.517,1.107l-2.728,2.788a1.694,1.694,0,0,1-1.182.545.822.822,0,0,1-.6-.217l-2.36-2.308,2.175,4.85a3.469,3.469,0,0,0,.784.1,4.117,4.117,0,0,0,2.916-1.274l2.727-2.788a3.705,3.705,0,0,0,.251-5.218l-3.559-3.48a27.144,27.144,0,0,0,3.581-8.914Z" transform="translate(0)"/><path class="b" d="M68.051,89.391a3.907,3.907,0,0,0,1.522-.308l2.513-1.057a3.8,3.8,0,0,0,2.066-2.073,3.391,3.391,0,0,0-.046-2.65l-8.5-18.942a1.78,1.78,0,0,0-1.6-1.07l-1.072-2.317a16.7,16.7,0,0,0,5.949-8A17.337,17.337,0,0,0,58.113,31a17.684,17.684,0,0,0-5.9-1.015,17.106,17.106,0,0,0-5.483,33.355,17.617,17.617,0,0,0,8.829.755l1.074,2.314a1.766,1.766,0,0,0-.389,2L64.724,87.3a3.606,3.606,0,0,0,3.326,2.092ZM55.99,61.54a15.211,15.211,0,0,1-8.45-.484,14.683,14.683,0,0,1,4.676-28.645,15.264,15.264,0,0,1,5.09.877A14.91,14.91,0,0,1,66.6,52.174a14.345,14.345,0,0,1-5.847,7.361l-.888.571,2.117,4.573L59.05,65.851l-2.1-4.53ZM66.939,86.312,58.948,68.5l4.969-1.988,7.974,17.776a.974.974,0,0,1,.006.767,1.36,1.36,0,0,1-.75.732l-2.515,1.058a1.483,1.483,0,0,1-.582.119h0A1.186,1.186,0,0,1,66.939,86.312Z" transform="translate(-11.426 -11.812)"/><path class="b" d="M60.3,42.236a9.98,9.98,0,0,0-12.734,6.106,10.008,10.008,0,0,0,6.1,12.747,1.212,1.212,0,1,0,.806-2.286,7.575,7.575,0,0,1-.75-13.97,7.494,7.494,0,0,1,5.771-.31,1.212,1.212,0,0,0,.807-2.286Z" transform="translate(-16.151 -16.411)"/><ellipse class="b" cx="1.121" cy="1.119" rx="1.121" ry="1.119" transform="matrix(0.333, -0.943, 0.943, 0.333, 45.758, 30.252)"/></g></g></svg>