<svg xmlns="http://www.w3.org/2000/svg" width="84.919" height="66.579" viewBox="0 0 84.919 66.579"><defs><style>.a{fill:#fa7e3e;}</style></defs><g transform="translate(-1 -9)"><g transform="translate(1 9)"><path class="a" d="M85.919,61.9,68.825,48.229v8.249H56.6a27.022,27.022,0,0,0,4.687-9.911l4.825-1.248V35.073l-4.818-1.22a26.87,26.87,0,0,0-3.249-7.811L60.6,21.761l-7.249-7.248-4.283,2.552a26.884,26.884,0,0,0-7.809-3.249L40.038,9H29.786l-1.22,4.818a26.847,26.847,0,0,0-7.809,3.249l-4.283-2.552L9.226,21.763l2.553,4.283A26.892,26.892,0,0,0,8.53,33.857L3.713,35.075V45.323l4.821,1.23a26.862,26.862,0,0,0,4.706,9.924H1V67.33H68.825v8.249ZM3.713,64.617V59.191H15.6a27.418,27.418,0,0,0,7.576,5.426Zm31.2,0A24.5,24.5,0,0,1,11,45.171l-.172-.83L6.426,43.215v-6.03l4.4-1.114L11,35.239a24.2,24.2,0,0,1,3.5-8.427l.467-.709-2.333-3.915L16.9,17.926l3.915,2.335.709-.467a24.2,24.2,0,0,1,8.427-3.5l.833-.172,1.114-4.4h6.027l1.114,4.4.833.172a24.2,24.2,0,0,1,8.427,3.5l.709.467,3.915-2.335,4.262,4.262L54.852,26.1l.467.709a24.2,24.2,0,0,1,3.5,8.427l.172.833,4.4,1.115v6.032l-4.41,1.141-.171.826a24.343,24.343,0,0,1-5.724,11.292H44.646a18.951,18.951,0,1,0-9.733,2.714H71.539V53.875L81.575,61.9,71.539,69.933V64.617Zm0-8.139A16.278,16.278,0,1,1,51.191,40.2,16.3,16.3,0,0,1,34.913,56.478Z" transform="translate(-1 -9)"/><path class="a" d="M19.443,29.288l-2.519-1.007a13.636,13.636,0,0,0-.8,2.9l2.68.426A10.807,10.807,0,0,1,19.443,29.288Z" transform="translate(4.392 -2.126)"/><path class="a" d="M18.728,32.507l-2.708.167a13.466,13.466,0,0,0,.52,2.965l2.6-.762A10.86,10.86,0,0,1,18.728,32.507Z" transform="translate(4.355 -0.62)"/><path class="a" d="M17.26,37.209a13.656,13.656,0,0,0,1.746,2.449l2.021-1.81a10.835,10.835,0,0,1-1.4-1.96Z" transform="translate(4.797 0.586)"/><path class="a" d="M31.139,35.565a4.064,4.064,0,0,0-2.713-3.82V22H25.713v9.745a4.06,4.06,0,0,0,1.357,7.889,4,4,0,0,0,1.743-.408l4.08,4.08,1.918-1.918-4.08-4.08A4,4,0,0,0,31.139,35.565Zm-4.07,1.357a1.357,1.357,0,1,1,1.357-1.357A1.359,1.359,0,0,1,27.07,36.922Z" transform="translate(6.843 -4.365)"/></g></g></svg>