<svg xmlns="http://www.w3.org/2000/svg" width="61.933" height="66" viewBox="0 0 61.933 66"><defs><style>.a{fill:#fa7e3e;}</style></defs><g transform="translate(-6287.207 -626)"><path class="a" d="M58.362,20.223a7.185,7.185,0,1,0,7.185,7.185A7.193,7.193,0,0,0,58.362,20.223Zm0,12.055a4.87,4.87,0,1,1,4.87-4.87A4.87,4.87,0,0,1,58.362,32.278Z" transform="translate(6259.452 633.303)"/><path class="a" d="M71.181,15.1,70.2,13.4a4.154,4.154,0,0,0-5.675-1.521l-.614.354a14.31,14.31,0,0,0-3.918-2.263V9.261a4.16,4.16,0,0,0-4.155-4.155H53.87a4.16,4.16,0,0,0-4.155,4.155v.707a14.322,14.322,0,0,0-3.923,2.267l-.608-.358A4.155,4.155,0,0,0,39.508,13.4l-.983,1.7a4.16,4.16,0,0,0,1.521,5.676l.606.35a14.192,14.192,0,0,0,0,4.533l-.606.35a4.16,4.16,0,0,0-1.521,5.675l.983,1.7a4.154,4.154,0,0,0,5.675,1.521l.614-.354a14.329,14.329,0,0,0,3.918,2.263v.707a4.16,4.16,0,0,0,4.155,4.155h1.966a4.16,4.16,0,0,0,4.155-4.155v-.707a14.322,14.322,0,0,0,3.923-2.267l.608.358A4.155,4.155,0,0,0,70.2,33.386l.983-1.7a4.159,4.159,0,0,0-1.521-5.675l-.606-.35a14.192,14.192,0,0,0,0-4.533l.606-.35A4.16,4.16,0,0,0,71.181,15.1ZM68.5,18.772l-.642.371a2.236,2.236,0,0,0-1.1,2.3,11.873,11.873,0,0,1,0,3.9,2.236,2.236,0,0,0,1.1,2.3l.642.371a1.841,1.841,0,0,1,.674,2.515l-.983,1.7a1.841,1.841,0,0,1-2.515.674l-.649-.375a2.27,2.27,0,0,0-1.135-.3,2.21,2.21,0,0,0-1.4.5,12.023,12.023,0,0,1-3.384,1.953,2.235,2.235,0,0,0-1.431,2.1v.748a1.841,1.841,0,0,1-1.841,1.841H53.87a1.841,1.841,0,0,1-1.841-1.841v-.749a2.234,2.234,0,0,0-1.431-2.1,12.023,12.023,0,0,1-3.384-1.953,2.21,2.21,0,0,0-1.4-.5,2.27,2.27,0,0,0-1.135.3l-.649.375a1.84,1.84,0,0,1-2.515-.674l-.983-1.7a1.841,1.841,0,0,1,.674-2.515l.642-.371a2.236,2.236,0,0,0,1.1-2.3,11.873,11.873,0,0,1,0-3.9,2.236,2.236,0,0,0-1.1-2.3l-.642-.371a1.841,1.841,0,0,1-.674-2.515l.983-1.7a1.841,1.841,0,0,1,2.515-.674l.649.375a2.27,2.27,0,0,0,1.135.3,2.208,2.208,0,0,0,1.4-.5A12.041,12.041,0,0,1,50.6,12.106a2.235,2.235,0,0,0,1.431-2.1V9.26a1.841,1.841,0,0,1,1.841-1.841h1.966A1.841,1.841,0,0,1,57.678,9.26v.748a2.234,2.234,0,0,0,1.431,2.1,12.023,12.023,0,0,1,3.384,1.953,2.21,2.21,0,0,0,1.4.5,2.27,2.27,0,0,0,1.135-.3l.649-.375a1.84,1.84,0,0,1,2.515.674l.983,1.7A1.843,1.843,0,0,1,68.5,18.772Z" transform="translate(6262.96 637.318)"/><path class="a" d="M36.717,1.875l7.055,4.863a.321.321,0,0,1,0,.548L36.717,12.15a.358.358,0,0,1-.548-.274v-2.6A25.549,25.549,0,0,0,10.621,34.822H6.1A30.109,30.109,0,0,1,36.169,4.752v-2.6A.358.358,0,0,1,36.717,1.875ZM66.239,34.822H61.787A25.549,25.549,0,0,1,36.238,60.37v-2.6c0-.274-.342-.479-.548-.274l-7.055,4.863a.321.321,0,0,0,0,.548l7.055,4.863a.358.358,0,0,0,.548-.274v-2.6A30.1,30.1,0,0,0,66.239,34.822Z" transform="translate(6282.9 624.178)"/><path class="a" d="M46.9,7.005a7.9,7.9,0,1,0,7.9,7.9A7.9,7.9,0,0,0,46.9,7.005Zm.13,7.45c1.87.551,2.263,1.6,2.263,2.375a2.4,2.4,0,0,1-1.93,2.347v.891a.464.464,0,0,1-.929,0v-.891A2.4,2.4,0,0,1,44.5,16.83a.464.464,0,0,1,.929,0,1.465,1.465,0,0,0,2.93,0c0-.251,0-1.014-1.6-1.484-1.87-.551-2.263-1.6-2.263-2.375a2.4,2.4,0,0,1,1.929-2.347V9.734a.464.464,0,0,1,.929,0v.891a2.4,2.4,0,0,1,1.93,2.347.464.464,0,1,1-.929,0,1.465,1.465,0,0,0-2.93,0C45.43,13.223,45.43,13.986,47.026,14.455Z" transform="translate(6293.207 625.995)"/><path class="a" d="M46.9,7.005a7.9,7.9,0,1,0,7.9,7.9A7.9,7.9,0,0,0,46.9,7.005Zm.13,7.45c1.87.551,2.263,1.6,2.263,2.375a2.4,2.4,0,0,1-1.93,2.347v.891a.464.464,0,0,1-.929,0v-.891A2.4,2.4,0,0,1,44.5,16.83a.464.464,0,0,1,.929,0,1.465,1.465,0,0,0,2.93,0c0-.251,0-1.014-1.6-1.484-1.87-.551-2.263-1.6-2.263-2.375a2.4,2.4,0,0,1,1.929-2.347V9.734a.464.464,0,0,1,.929,0v.891a2.4,2.4,0,0,1,1.93,2.347.464.464,0,1,1-.929,0,1.465,1.465,0,0,0-2.93,0C45.43,13.223,45.43,13.986,47.026,14.455Z" transform="translate(6248.207 663.995)"/></g></svg>