<svg xmlns="http://www.w3.org/2000/svg" width="77.328" height="77.439" viewBox="0 0 77.328 77.439"><defs><style>.a,.b{fill:none;stroke:#fa7e3e;}.a{stroke-width:2.5px;}.b{stroke-width:3.5px;}.c{fill:#fa7e3e;}</style></defs><g transform="translate(1.252 1.252)"><path class="a" d="M70.353,34.827a1.064,1.064,0,0,0,1.541,0l8.256-8.256,1.981,1.981a1.447,1.447,0,0,0,1.321.33,1.337,1.337,0,0,0,.881-1.1l1.321-10.347a1.86,1.86,0,0,0-.33-1.1,1.056,1.056,0,0,0-1.1-.33L73.875,17.325a1.643,1.643,0,0,0-.771.33,2.406,2.406,0,0,0-.33.55,1.447,1.447,0,0,0,.33,1.321l1.981,1.981L66.83,29.763a1.064,1.064,0,0,0,0,1.541Z" transform="translate(-10.981 -15.963)"/><path class="a" d="M17.865,28.639a2.406,2.406,0,0,0,.55.33,1.447,1.447,0,0,0,1.321-.33l1.981-1.981,8.256,8.256a1.064,1.064,0,0,0,1.541,0L34.927,31.5a1.064,1.064,0,0,0,0-1.541L26.671,21.7l1.981-1.981a1.447,1.447,0,0,0,.33-1.321,1.337,1.337,0,0,0-1.1-.881L17.535,16.2a1.86,1.86,0,0,0-1.1.33,1.056,1.056,0,0,0-.33,1.1l1.321,10.347A2.3,2.3,0,0,0,17.865,28.639Z" transform="translate(-16.062 -15.939)"/><path class="a" d="M31.4,66.93a1.064,1.064,0,0,0-1.541,0L21.6,75.186,19.622,73.2a1.447,1.447,0,0,0-1.321-.33,1.337,1.337,0,0,0-.881,1.1L16.1,84.322a1.86,1.86,0,0,0,.33,1.1,1.056,1.056,0,0,0,1.1.33l10.347-1.321a1.644,1.644,0,0,0,.771-.33,2.406,2.406,0,0,0,.33-.55,1.447,1.447,0,0,0-.33-1.321l-1.981-1.981,8.256-8.256a1.064,1.064,0,0,0,0-1.541Z" transform="translate(-16.059 -10.861)"/><path class="a" d="M83.882,73.1a2.4,2.4,0,0,0-.55-.33,1.447,1.447,0,0,0-1.321.33l-1.981,1.981L71.774,66.83a1.064,1.064,0,0,0-1.541,0l-3.3,3.522a1.064,1.064,0,0,0,0,1.541l8.256,8.256L73.2,82.131a1.447,1.447,0,0,0-.33,1.321,1.337,1.337,0,0,0,1.1.881l10.347,1.321a1.86,1.86,0,0,0,1.1-.33,1.056,1.056,0,0,0,.33-1.1L84.432,73.875A4.659,4.659,0,0,0,83.882,73.1Z" transform="translate(-10.971 -10.871)"/><g transform="translate(14.368 14.477)"><path class="b" d="M52.99,30A22.99,22.99,0,1,0,75.98,52.99,23.058,23.058,0,0,0,52.99,30Z" transform="translate(-30 -30)"/><g transform="translate(10.973 11.92)"><path class="c" d="M41.746,25.669,39,23.7,26.331,41.231l-6.389-4.94L17.9,38.928l9.211,7.057Z" transform="translate(-17.9 -23.7)"/></g></g></g></svg>