<svg xmlns="http://www.w3.org/2000/svg" width="60.374" height="60.374" viewBox="0 0 60.374 60.374"><defs><style>.a{fill:#fa7e3e;}</style></defs><g transform="translate(-2.5 -2.5)"><path class="a" d="M55.5,2.5H21.248a7.377,7.377,0,0,0-7.372,7.372V31.988h-4A7.377,7.377,0,0,0,2.5,39.36V55.5a7.377,7.377,0,0,0,7.372,7.372H26.014A7.377,7.377,0,0,0,33.386,55.5v-4H55.5a7.377,7.377,0,0,0,7.372-7.372V9.872A7.377,7.377,0,0,0,55.5,2.5Zm-26.31,53a3.187,3.187,0,0,1-3.178,3.178H9.872A3.187,3.187,0,0,1,6.694,55.5V39.36a3.187,3.187,0,0,1,3.178-3.178H26.014a3.187,3.187,0,0,1,3.178,3.178ZM58.68,44.127A3.187,3.187,0,0,1,55.5,47.3H33.386V39.36a8.134,8.134,0,0,0-.89-3.5L47.749,20.612v7.308a2.1,2.1,0,0,0,4.194,0V15.528a2.116,2.116,0,0,0-2.1-2.1H37.454a2.1,2.1,0,0,0,0,4.194h7.308L29.51,32.878a7.141,7.141,0,0,0-3.5-.89H18.07V9.872a3.147,3.147,0,0,1,3.178-3.178H55.5A3.187,3.187,0,0,1,58.68,9.872Z"/></g></svg>