<svg xmlns="http://www.w3.org/2000/svg" width="52.247" height="62.196" viewBox="0 0 52.247 62.196"><defs><style>.a{fill:#fa7e3e;}</style></defs><g transform="translate(-8.883 -1.025)"><g transform="translate(8.883 1.025)"><path class="a" d="M61.075,17.006c-.063-1.651-.063-3.238-.063-4.761a2.141,2.141,0,0,0-2.158-2.158c-9.332-.063-16.442-2.73-22.345-8.443a2.185,2.185,0,0,0-3.047,0c-5.9,5.713-13.014,8.38-22.282,8.38a2.141,2.141,0,0,0-2.158,2.158c0,1.524,0,3.111-.063,4.825C8.64,32.686,8.2,54.079,34.286,63.094a2.7,2.7,0,0,0,.7.127,2.282,2.282,0,0,0,.7-.127C61.774,54.079,61.329,32.686,61.075,17.006ZM34.985,58.713c-22.345-8.126-22.028-25.9-21.711-41.58,0-.952.063-1.841.063-2.73,8.7-.444,15.68-3.047,21.647-8.253,5.967,5.205,12.95,7.872,21.647,8.189,0,.889,0,1.777.063,2.73C57.013,32.813,57.33,50.588,34.985,58.713Z" transform="translate(-8.883 -1.025)"/><path class="a" d="M51.036,37.712,40.562,48.186l-4.507-4.507a2.2,2.2,0,1,0-3.111,3.111l6.031,6.031a2.063,2.063,0,0,0,1.524.635,1.969,1.969,0,0,0,1.524-.635L54.083,40.759a2.263,2.263,0,0,0,0-3.111A2.128,2.128,0,0,0,51.036,37.712Z" transform="translate(-17.444 -14.176)"/></g></g></svg>